<?xml version="1.0" encoding="UTF-8" standalone="no"?>
<!-- Created with Inkscape (http://www.inkscape.org/) -->

<svg
   xmlns:dc="http://purl.org/dc/elements/1.1/"
   xmlns:cc="http://creativecommons.org/ns#"
   xmlns:rdf="http://www.w3.org/1999/02/22-rdf-syntax-ns#"
   xmlns:svg="http://www.w3.org/2000/svg"
   xmlns="http://www.w3.org/2000/svg"
   xmlns:sodipodi="http://sodipodi.sourceforge.net/DTD/sodipodi-0.dtd"
   xmlns:inkscape="http://www.inkscape.org/namespaces/inkscape"
   version="1.1"
   id="svg815"
   width="144"
   height="36"
   viewBox="0 0 144 36"
   sodipodi:docname="canvate-logo-1.svg"
   inkscape:version="0.92.2 (5c3e80d, 2017-08-06)">
  <metadata
     id="metadata821">
    <rdf:RDF>
      <cc:Work
         rdf:about="">
        <dc:format>image/svg+xml</dc:format>
        <dc:type
           rdf:resource="http://purl.org/dc/dcmitype/StillImage" />
        <dc:title></dc:title>
      </cc:Work>
    </rdf:RDF>
  </metadata>
  <defs
     id="defs819" />
  <sodipodi:namedview
     pagecolor="#ffffff"
     bordercolor="#666666"
     borderopacity="1"
     objecttolerance="10"
     gridtolerance="10"
     guidetolerance="10"
     inkscape:pageopacity="0"
     inkscape:pageshadow="2"
     inkscape:window-width="1280"
     inkscape:window-height="971"
     id="namedview817"
     showgrid="false"
     inkscape:zoom="4.3807239"
     inkscape:cx="118.16376"
     inkscape:cy="30.677114"
     inkscape:window-x="-8"
     inkscape:window-y="-8"
     inkscape:window-maximized="1"
     inkscape:current-layer="svg815"
     showguides="true"
     inkscape:guide-bbox="true" />
  <path
     sodipodi:type="star"
     style="fill:#000000;fill-opacity:0;stroke:none;stroke-width:1;stroke-linecap:round;stroke-linejoin:round;stroke-miterlimit:4;stroke-dasharray:none;stroke-opacity:1;paint-order:normal"
     id="path2679"
     sodipodi:sides="5"
     sodipodi:cx="-377.49832"
     sodipodi:cy="-572.73346"
     sodipodi:r1="323.93066"
     sodipodi:r2="161.96533"
     sodipodi:arg1="0.67877047"
     sodipodi:arg2="1.307089"
     inkscape:flatsided="false"
     inkscape:rounded="0"
     inkscape:randomized="0"
     d="m -125.36843,-369.35797 -209.91177,-47.00926 -157.72729,146.27003 -20.15784,-214.16461 -187.85148,-104.80765 197.45354,-85.35175 41.6287,-211.04471 142.19083,161.41433 213.57943,-25.62516 -109.57477,185.11129 z"
     inkscape:transform-center-x="26.092236"
     inkscape:transform-center-y="-5.0481008" />
  <circle
     style="fill:#ff0000;fill-opacity:1;stroke:none;stroke-width:0.17394507;stroke-linecap:round;stroke-linejoin:round;stroke-miterlimit:4;stroke-dasharray:none;stroke-opacity:1;paint-order:normal"
     id="path10642-0"
     cx="28.087448"
     cy="29.980251"
     r="3.3197489" />
  <circle
     style="fill:#ff0000;fill-opacity:1;stroke:none;stroke-width:0.17394507;stroke-linecap:round;stroke-linejoin:round;stroke-miterlimit:4;stroke-dasharray:none;stroke-opacity:1;paint-order:normal"
     id="path10642-0-5"
     cx="96.177231"
     cy="29.664852"
     r="3.3197489" />
  <g
     aria-label="CANVATE"
     style="font-style:normal;font-weight:normal;font-size:40px;line-height:1.25;font-family:sans-serif;letter-spacing:0px;word-spacing:0px;fill:#000000;fill-opacity:1;stroke:none"
     id="text5366"
     transform="matrix(1.2543944,0,0,1.2543944,212.77916,-51.154894)">
    <path
       style="font-style:normal;font-variant:normal;font-weight:normal;font-stretch:normal;font-family:Khand;-inkscape-font-specification:Khand"
       d="m -67.026743,41.774114 h 11.64 v 2.52 h -8.8 v 9.56 h 7.68 v 2.52 h -7.68 v 9.76 h 8.8 v 2.52 h -11.64 z"
       id="path5404"
       inkscape:connector-curvature="0" />
    <path
       style="font-style:normal;font-variant:normal;font-weight:normal;font-stretch:normal;font-family:Khand;-inkscape-font-specification:Khand"
       d="m -70.131118,41.774114 v 2.52 h -5.2 v 24.36 h -2.88 v -24.36 h -5.2 v -2.52 z"
       id="path5402"
       inkscape:connector-curvature="0" />
    <path
       style="font-style:normal;font-variant:normal;font-weight:normal;font-stretch:normal;font-family:Khand;-inkscape-font-specification:Khand"
       d="m -104.74799,41.774114 h 2.96 l -5.88,26.88 h -4 l -5.88,-26.88 h 2.92 l 2.84,13.36 q 1.52,8.04 2.12,10.76 0.32,-1.6 1.08,-5.52 0.84,-4.28 3.84,-18.6 z"
       id="path5396"
       inkscape:connector-curvature="0" />
    <path
       style="font-style:normal;font-variant:normal;font-weight:normal;font-stretch:normal;font-family:Khand;-inkscape-font-specification:Khand"
       d="m -123.38799,64.094114 -0.28,-8.84 v -13.48 h 2.84 v 26.88 h -3.28 l -5.52,-13.92 q -0.32,-0.84 -3.16,-8.36 l 0.24,8.8 v 13.48 h -2.76 v -26.88 h 3.28 q 6.36,16.16 8.64,22.32 z"
       id="path5394"
       inkscape:connector-curvature="0" />
    <path
       style="font-style:normal;font-variant:normal;font-weight:normal;font-stretch:normal;font-family:Khand;-inkscape-font-specification:Khand"
       d="m -168.98924,47.254114 q 0,-5.68 7.2,-5.68 2.32,0 4.64,0.64 v 2.64 q -2.36,-0.68 -4.72,-0.68 -2.36,0 -3.32,0.84 -0.96,0.8 -0.96,2.4 v 15.64 q 0,1.56 0.96,2.4 1,0.8 3.44,0.8 2.48,0 4.68,-0.64 v 2.6 q -2,0.64 -4.72,0.64 -7.2,0 -7.2,-5.68 z"
       id="path5384"
       inkscape:connector-curvature="0" />
    <path
       inkscape:connector-curvature="0"
       style="font-style:normal;font-variant:normal;font-weight:normal;font-stretch:normal;font-size:40px;line-height:1.25;font-family:Khand;-inkscape-font-specification:Khand;letter-spacing:0px;word-spacing:0px;fill:#000000;fill-opacity:1;stroke:none"
       d="m -152.10924,68.214114 h -2.96 l 5.88,-26.88 h 4 l 5.88,26.88 h -2.92 l -2.84,-13.36 q -1.52,-8.04 -2.12,-10.76 -0.32,1.6 -1.08,5.52 -0.84,4.28 -3.84,18.6 z"
       id="path5396-5" />
    <path
       inkscape:connector-curvature="0"
       style="font-style:normal;font-variant:normal;font-weight:normal;font-stretch:normal;font-size:40px;line-height:1.25;font-family:Khand;-inkscape-font-specification:Khand;letter-spacing:0px;word-spacing:0px;fill:#000000;fill-opacity:1;stroke:none"
       d="m -97.919973,68.398918 h -2.959997 l 5.879997,-26.88 h 4 l 5.88,26.88 h -2.92 l -2.84,-13.36 q -1.52,-8.04 -2.12,-10.76 -0.32,1.6 -1.08,5.52 -0.84,4.28 -3.84,18.6 z"
       id="path5396-5-8" />
  </g>
</svg>
