<?xml version="1.0" encoding="UTF-8" standalone="no"?>
<!-- Created with Inkscape (http://www.inkscape.org/) -->

<svg
   xmlns:dc="http://purl.org/dc/elements/1.1/"
   xmlns:cc="http://creativecommons.org/ns#"
   xmlns:rdf="http://www.w3.org/1999/02/22-rdf-syntax-ns#"
   xmlns:svg="http://www.w3.org/2000/svg"
   xmlns="http://www.w3.org/2000/svg"
   xmlns:sodipodi="http://sodipodi.sourceforge.net/DTD/sodipodi-0.dtd"
   xmlns:inkscape="http://www.inkscape.org/namespaces/inkscape"
   version="1.1"
   id="svg815"
   width="190"
   height="97"
   viewBox="0 0 190 97"
   sodipodi:docname="canvate1.svg"
   inkscape:version="0.92.2 (5c3e80d, 2017-08-06)">
  <metadata
     id="metadata821">
    <rdf:RDF>
      <cc:Work
         rdf:about="">
        <dc:format>image/svg+xml</dc:format>
        <dc:type
           rdf:resource="http://purl.org/dc/dcmitype/StillImage" />
        <dc:title />
      </cc:Work>
    </rdf:RDF>
  </metadata>
  <defs
     id="defs819" />
  <sodipodi:namedview
     pagecolor="#ffffff"
     bordercolor="#666666"
     borderopacity="1"
     objecttolerance="10"
     gridtolerance="10"
     guidetolerance="10"
     inkscape:pageopacity="0"
     inkscape:pageshadow="2"
     inkscape:window-width="1280"
     inkscape:window-height="971"
     id="namedview817"
     showgrid="false"
     inkscape:zoom="3.0976396"
     inkscape:cx="73.191632"
     inkscape:cy="73.355037"
     inkscape:window-x="-8"
     inkscape:window-y="-8"
     inkscape:window-maximized="1"
     inkscape:current-layer="svg815"
     showguides="true"
     inkscape:guide-bbox="true" />
  <path
     sodipodi:type="star"
     style="fill:#000000;fill-opacity:0;stroke:none;stroke-width:1;stroke-linecap:round;stroke-linejoin:round;stroke-miterlimit:4;stroke-dasharray:none;stroke-opacity:1;paint-order:normal"
     id="path2679"
     sodipodi:sides="5"
     sodipodi:cx="-377.49832"
     sodipodi:cy="-511.73346"
     sodipodi:r1="323.93066"
     sodipodi:r2="161.96533"
     sodipodi:arg1="0.67877047"
     sodipodi:arg2="1.307089"
     inkscape:flatsided="false"
     inkscape:rounded="0"
     inkscape:randomized="0"
     d="m -125.36843,-308.35797 -209.91177,-47.00926 -157.72729,146.27003 -20.15784,-214.16461 -187.85148,-104.80765 197.45354,-85.35175 41.6287,-211.04471 142.19083,161.41433 213.57943,-25.62516 -109.57477,185.11129 z"
     inkscape:transform-center-x="26.092236"
     inkscape:transform-center-y="-5.0481008" />
  <path
     style="font-style:normal;font-weight:normal;font-size:42.56049347px;line-height:1.25;font-family:sans-serif;letter-spacing:0px;word-spacing:0px;fill:#55d5cd;fill-opacity:1;stroke:none;stroke-width:0.14596382"
     d="m 27.423598,0.82107331 c -0.10109,0.076 0.1958,1.81695999 0.37419,2.84121999 0.33408,1.32178 0.28865,3.10644 3.26477,3.74239 7.8374,2.00171 10.14269,3.7130997 15.50699,6.1084597 0.47307,0.2185 0.92578,0.61146 1.35423,1.07826 -0.52573,0.15092 -0.99974,0.29985 -1.51143,0.45006 -0.90777,-0.15309 -1.81973,-0.28417 -2.73747,-0.372 -21.82656,-2.00199 -41.09392,14.6266 -43.03502997,37.1412 C -1.215182,73.475403 13.679728,92.853351 34.552318,95.928711 c 1.48899,-0.31427 2.34688,-0.74635 0.35542,-0.86108 -18.5549,-2.55609 -31.25837,-23.595848 -29.62918,-42.832338 0.9824,-4.35721 3.0831501,-8.31798 5.82606,-11.87052 -1.2673599,3.06634 -2.1020899,6.38484 -2.4037999,9.8848 -1.4742901,17.22141 10.3655699,32.624918 26.9572099,35.069938 0,0 2.41707,-0.44474 0.11155,-0.62931 -14.75057,-2.03177 -24.67918,-18.810358 -23.38315,-34.102628 0.59808,-6.87082 3.57476,-13.28973 8.38459,-18.08274 -2.9567,4.05562 -4.75728,8.88205 -5.199,13.93599 -1.23586,14.42904 8.68467,27.335172 22.58614,29.383741 0.14657,-0.0465 0.22033,-0.21369 0.3305,-0.32053 -12.35836,-1.701769 -20.91237,-15.968311 -19.82757,-28.780541 0.85118,-9.8689 7.3693,-17.80672 15.94733,-20.72153 3.7965,-0.50156 6.82822,-0.61456 8.12789,1.88881 3.00984,4.31178 -12.07436,6.62095 -7.27241,21.7617 -1.8692,-17.00772 6.40527,-12.4003 13.59835,-19.57035 l 11.58079,-1.84183 c 1.87254,0.77452 7.14345,2.64112 11.20299,3.54544 0.0182,0.51381 -0.0503,1.48232 -0.25345,3.47222 l 2.52805,-3.0507 c 0.29268,0.037 0.57177,0.0655 0.82868,0.0833 0.20375,0.35296 0.49439,0.67398 0.64426,0.71349 0.52602,0.13858 0.18016,3.10833 -0.54867,4.70929 l -0.34597,0.76197 0.80046,-0.38913 c 1.4515,-0.70828 2.82936,-2.45982 3.20457,-4.07143 l 0.16278,-0.70517 c 0.489,-2.43623 -0.0119,2.5549 1.24506,-3.62568 -0.13586,-0.2358 -0.0676,-0.65911 0.20254,-1.285 -3.58243,-1.87304 -6.84248,-2.44036 -9.70814,-4.51213 -0.44689,-0.61822 -0.54346,-0.89638 -0.50941,-1.45018 0.0388,-0.63262 -0.0147,-0.7467 -0.68737,-1.5138 -0.40054,-0.45669 -1.21693,-1.16591 -1.81331,-1.57501 -0.28827,-0.19797 -0.67089,-0.42638 -1.0915,-0.66782 l -0.1283,-0.16689 c -2.1897,-2.82364 -7.9271,-7.71263 -11.87214,-10.1166797 -4.09371,-2.49462 -9.51152,-4.68228 -14.21664,-5.73781 -4.35201,-0.97633 -6.04535,-1.02033 -2.60062,-0.0677 5.36182,1.48257 10.66016,4.14371 15.61696,7.8478797 1.57662,1.17821 3.78362,3.18966 4.57249,4.05946 l -5.51873,-2.74808 c -7.00691,-2.7176097 -8.95719,-3.0446197 -17.52378,-5.3235697 -2.75002,-0.90816 -5.22386,-1.53544 -6.58564,-4.14423 -0.42862,-0.8213 -0.8005,-1.47942999 -0.82419,-1.46326999 z M 58.396768,20.634943 c 0.26851,0.0233 0.60205,0.0611 0.99095,0.11985 0.50374,0.0772 0.9581,0.17327 1.37154,0.28614 1.24037,0.33969 2.1108,0.85557 2.82373,1.64668 0.42566,0.47226 1.01006,0.98023 1.29644,1.12814 0.73049,0.37695 0.72458,0.4525 -0.037,0.5091 -0.3663,0.028 -0.75929,0.11066 -0.87205,0.18544 -0.74168,0.49423 -3.03456,-0.70761 -3.76618,-1.97491 -0.36153,-0.62625 -1.3431,-1.37558 -2.1657,-1.65468 -0.44413,-0.1507 -0.49581,-0.24338 -0.24199,-0.26662 l -2.9e-4,0.003 c 0.1269,-0.0114 0.33094,-0.005 0.59971,0.0181 z m 0.66257,9.24885 -8.4148,1.14404 c 1.11783,0.75992 5.25947,3.74967 6.31017,4.41333 0.85681,0.56049 2.30771,1.71855 3.22301,2.57164 l 1.66279,1.54808 0.59928,1.97355 c 0.32924,1.08581 0.69545,2.14252 0.81419,2.34805 0.11862,0.20569 0.67619,0.60402 1.23851,0.88366 0.56228,0.27963 1.07749,0.607 1.14746,0.72812 0.14543,0.25194 -0.14451,1.27345 -0.48684,1.71623 -0.38228,0.49437 0.0775,0.5201 0.78109,0.0427 0.52515,-0.35609 0.67194,-0.38384 0.71774,-0.13916 0.0677,0.36295 0.37223,0.1909 0.65068,-0.36606 0.1063,-0.21267 0.25131,-0.62179 0.32295,-0.90864 0.10937,-0.43571 0.22514,-0.5423 0.69332,-0.6539 0.43167,-0.10278 0.6495,-0.27085 0.94459,-0.73072 0.54473,-0.84912 0.97604,-2.66989 0.65276,-2.75489 -0.17582,-0.0461 -0.22411,-0.23336 -0.16197,-0.60357 0.0497,-0.29493 0.0106,-0.79226 -0.0858,-1.10382 l -0.17545,-0.56537 -0.2912,0.92468 c -0.43534,1.37532 -0.78186,1.68977 -1.51407,1.36705 l -0.60112,-0.26801 c 0,0 -0.21591,1.60701 -3.11335,-2.30665 -1.67526,-2.22719 -2.0178,-2.84257 -2.61309,-4.68131 -0.15479,-0.47814 -2.09169,-3.78456 -2.30086,-4.57907 z"
     id="path10251-4-7-5-7"
     inkscape:connector-curvature="0"
     sodipodi:nodetypes="cccccccccccccccccccccccccccccccccccccccccccccccccccccccccccccccccccccccccccccccccccccccccccccc" />
  <g
     id="g6821"
     transform="translate(-0.45654555,-2.054455)">
    <circle
       r="3.3197489"
       cy="85.969849"
       cx="71.770569"
       id="path10642-0"
       style="fill:#ff0000;fill-opacity:1;stroke:none;stroke-width:0.17394507;stroke-linecap:round;stroke-linejoin:round;stroke-miterlimit:4;stroke-dasharray:none;stroke-opacity:1;paint-order:normal" />
    <circle
       r="3.3197489"
       cy="85.654449"
       cx="139.86035"
       id="path10642-0-5"
       style="fill:#ff0000;fill-opacity:1;stroke:none;stroke-width:0.17394507;stroke-linecap:round;stroke-linejoin:round;stroke-miterlimit:4;stroke-dasharray:none;stroke-opacity:1;paint-order:normal" />
    <g
       transform="matrix(1.2543944,0,0,1.2543944,256.46228,4.8347013)"
       id="text5366"
       style="font-style:normal;font-weight:normal;font-size:40px;line-height:1.25;font-family:sans-serif;letter-spacing:0px;word-spacing:0px;fill:#000000;fill-opacity:1;stroke:none"
       aria-label="CANVATE">
      <path
         inkscape:connector-curvature="0"
         id="path5404"
         d="m -67.026743,41.774114 h 11.64 v 2.52 h -8.8 v 9.56 h 7.68 v 2.52 h -7.68 v 9.76 h 8.8 v 2.52 h -11.64 z"
         style="font-style:normal;font-variant:normal;font-weight:normal;font-stretch:normal;font-family:Khand;-inkscape-font-specification:Khand" />
      <path
         inkscape:connector-curvature="0"
         id="path5402"
         d="m -70.131118,41.774114 v 2.52 h -5.2 v 24.36 h -2.88 v -24.36 h -5.2 v -2.52 z"
         style="font-style:normal;font-variant:normal;font-weight:normal;font-stretch:normal;font-family:Khand;-inkscape-font-specification:Khand" />
      <path
         inkscape:connector-curvature="0"
         id="path5396"
         d="m -104.74799,41.774114 h 2.96 l -5.88,26.88 h -4 l -5.88,-26.88 h 2.92 l 2.84,13.36 q 1.52,8.04 2.12,10.76 0.32,-1.6 1.08,-5.52 0.84,-4.28 3.84,-18.6 z"
         style="font-style:normal;font-variant:normal;font-weight:normal;font-stretch:normal;font-family:Khand;-inkscape-font-specification:Khand" />
      <path
         inkscape:connector-curvature="0"
         id="path5394"
         d="m -123.38799,64.094114 -0.28,-8.84 v -13.48 h 2.84 v 26.88 h -3.28 l -5.52,-13.92 q -0.32,-0.84 -3.16,-8.36 l 0.24,8.8 v 13.48 h -2.76 v -26.88 h 3.28 q 6.36,16.16 8.64,22.32 z"
         style="font-style:normal;font-variant:normal;font-weight:normal;font-stretch:normal;font-family:Khand;-inkscape-font-specification:Khand" />
      <path
         inkscape:connector-curvature="0"
         id="path5384"
         d="m -168.98924,47.254114 q 0,-5.68 7.2,-5.68 2.32,0 4.64,0.64 v 2.64 q -2.36,-0.68 -4.72,-0.68 -2.36,0 -3.32,0.84 -0.96,0.8 -0.96,2.4 v 15.64 q 0,1.56 0.96,2.4 1,0.8 3.44,0.8 2.48,0 4.68,-0.64 v 2.6 q -2,0.64 -4.72,0.64 -7.2,0 -7.2,-5.68 z"
         style="font-style:normal;font-variant:normal;font-weight:normal;font-stretch:normal;font-family:Khand;-inkscape-font-specification:Khand" />
      <path
         id="path5396-5"
         d="m -152.10924,68.214114 h -2.96 l 5.88,-26.88 h 4 l 5.88,26.88 h -2.92 l -2.84,-13.36 q -1.52,-8.04 -2.12,-10.76 -0.32,1.6 -1.08,5.52 -0.84,4.28 -3.84,18.6 z"
         style="font-style:normal;font-variant:normal;font-weight:normal;font-stretch:normal;font-size:40px;line-height:1.25;font-family:Khand;-inkscape-font-specification:Khand;letter-spacing:0px;word-spacing:0px;fill:#000000;fill-opacity:1;stroke:none"
         inkscape:connector-curvature="0" />
      <path
         id="path5396-5-8"
         d="m -97.919973,68.398918 h -2.959997 l 5.879997,-26.88 h 4 l 5.88,26.88 h -2.92 l -2.84,-13.36 q -1.52,-8.04 -2.12,-10.76 -0.32,1.6 -1.08,5.52 -0.84,4.28 -3.84,18.6 z"
         style="font-style:normal;font-variant:normal;font-weight:normal;font-stretch:normal;font-size:40px;line-height:1.25;font-family:Khand;-inkscape-font-specification:Khand;letter-spacing:0px;word-spacing:0px;fill:#000000;fill-opacity:1;stroke:none"
         inkscape:connector-curvature="0" />
    </g>
  </g>
</svg>
