<?xml version="1.0" encoding="UTF-8" standalone="no"?>
<!-- Created with Inkscape (http://www.inkscape.org/) -->

<svg
   xmlns:dc="http://purl.org/dc/elements/1.1/"
   xmlns:cc="http://creativecommons.org/ns#"
   xmlns:rdf="http://www.w3.org/1999/02/22-rdf-syntax-ns#"
   xmlns:svg="http://www.w3.org/2000/svg"
   xmlns="http://www.w3.org/2000/svg"
   xmlns:sodipodi="http://sodipodi.sourceforge.net/DTD/sodipodi-0.dtd"
   xmlns:inkscape="http://www.inkscape.org/namespaces/inkscape"
   version="1.1"
   id="svg815"
   width="161"
   height="97"
   viewBox="0 0 161 97"
   sodipodi:docname="canvate-shiroi.svg"
   inkscape:version="0.92.2 (5c3e80d, 2017-08-06)">
  <metadata
     id="metadata821">
    <rdf:RDF>
      <cc:Work
         rdf:about="">
        <dc:format>image/svg+xml</dc:format>
        <dc:type
           rdf:resource="http://purl.org/dc/dcmitype/StillImage" />
        <dc:title></dc:title>
      </cc:Work>
    </rdf:RDF>
  </metadata>
  <defs
     id="defs819" />
  <sodipodi:namedview
     pagecolor="#ffffff"
     bordercolor="#666666"
     borderopacity="1"
     objecttolerance="10"
     gridtolerance="10"
     guidetolerance="10"
     inkscape:pageopacity="0"
     inkscape:pageshadow="2"
     inkscape:window-width="1280"
     inkscape:window-height="971"
     id="namedview817"
     showgrid="false"
     inkscape:zoom="2.4802019"
     inkscape:cx="51.25718"
     inkscape:cy="-22.606652"
     inkscape:window-x="-8"
     inkscape:window-y="-8"
     inkscape:window-maximized="1"
     inkscape:current-layer="svg815"
     showguides="false"
     inkscape:guide-bbox="true" />
  <g
     aria-label="Canvate  JS"
     transform="matrix(0.93316925,0,-0.30982868,0.93316925,8.6387734,10.667883)"
     style="font-style:normal;font-weight:normal;font-size:42.39542389px;line-height:1.25;font-family:sans-serif;letter-spacing:0px;word-spacing:0px;fill:#ffffff;fill-opacity:1;stroke:none;stroke-width:1.0598855"
     id="text10565-2">
    <path
       id="path2859"
       style="font-style:normal;font-variant:normal;font-weight:normal;font-stretch:normal;font-family:Khand;-inkscape-font-specification:Khand;stroke-width:1.0598855;fill:#ffffff;fill-opacity:1"
       d="m 58.43114,46.113614 q 0,-6.02015 7.631176,-6.02015 2.458934,0 4.917869,0.678327 v 2.798098 q -2.50133,-0.720722 -5.00266,-0.720722 -2.50133,0 -3.51882,0.890303 -1.01749,0.847909 -1.01749,2.543726 v 16.576611 q 0,1.653421 1.01749,2.543725 1.059885,0.847909 3.646006,0.847909 2.628517,0 4.960265,-0.678327 v 2.755702 q -2.119771,0.678327 -5.00266,0.678327 -7.631176,0 -7.631176,-6.02015 z m 22.322516,-1.653421 q 7.207222,0 7.207222,6.147336 v 18.187637 h -2.882889 v -1.738212 q -2.162167,1.907794 -5.172242,1.907794 -5.892964,0 -5.892964,-5.808173 v -1.356654 q 0,-4.409124 5.129847,-5.850568 l 5.935359,-1.653422 v -3.688402 q -0.04239,-1.738212 -0.975095,-2.543725 -0.932699,-0.805513 -3.773192,-0.805513 -2.798098,0 -5.172242,0.847908 v -2.840493 q 2.416539,-0.805513 5.596196,-0.805513 z m -3.815588,17.466914 v 1.271863 q 0,1.695817 0.805513,2.50133 0.805513,0.805513 3.05247,0.805513 2.246958,0 4.239543,-1.653421 v -7.927945 l -4.833079,1.356654 q -1.907794,0.55114 -2.586121,1.356653 -0.678326,0.805514 -0.678326,2.289353 z M 96.515479,45.774451 q 2.840493,-1.187072 5.172241,-1.187072 2.37414,0 3.90038,1.48384 1.52623,1.441444 1.52623,4.112356 v 18.611591 h -3.01007 V 50.480343 q 0,-3.094866 -3.13726,-3.094866 -1.992586,0 -4.324335,1.102281 V 68.795166 H 93.63259 V 44.67217 h 2.882889 z M 122.42637,44.67217 h 3.05247 l -5.34182,24.122996 h -4.23954 L 110.55565,44.67217 h 3.09487 l 2.33175,11.065205 2.07737,10.93802 q 1.27187,-7.037641 4.36673,-22.003225 z m 11.90119,-0.211977 q 7.20722,0 7.20722,6.147336 v 18.187637 h -2.88289 v -1.738212 q -2.16216,1.907794 -5.17224,1.907794 -5.89296,0 -5.89296,-5.808173 v -1.356654 q 0,-4.409124 5.12984,-5.850568 l 5.93536,-1.653422 v -3.688402 q -0.0424,-1.738212 -0.97509,-2.543725 -0.9327,-0.805513 -3.77319,-0.805513 -2.7981,0 -5.17225,0.847908 v -2.840493 q 2.41654,-0.805513 5.5962,-0.805513 z m -3.81559,17.466914 v 1.271863 q 0,1.695817 0.80551,2.50133 0.80552,0.805513 3.05248,0.805513 2.24695,0 4.23954,-1.653421 v -7.927945 l -4.83308,1.356654 q -1.90779,0.55114 -2.58612,1.356653 -0.67833,0.805514 -0.67833,2.289353 z m 19.66221,-21.621666 v 4.366729 h 5.38421 v 2.670912 h -5.38421 v 16.110261 q 0,1.483839 0.72072,2.162166 0.72072,0.635932 2.20456,0.635932 1.48384,0 2.88289,-0.46635 v 2.755702 q -1.69582,0.423955 -3.17966,0.423955 -5.68098,0 -5.68098,-5.384219 V 47.343082 h -2.62852 V 44.67217 h 2.7557 l 0.84791,-4.366729 z m 11.91377,15.431934 h 7.88555 v -4.875473 q 0,-3.98517 -3.94277,-3.98517 -3.94278,0 -3.94278,3.98517 z m -2.96768,6.910455 V 50.861902 q 0,-3.010075 1.69582,-4.790683 1.73821,-1.823003 5.21464,-1.823003 3.47642,0 5.12984,1.823003 1.69582,1.780608 1.69582,4.790683 v 7.376803 h -10.76844 v 4.281938 q 0,1.907794 1.18707,2.840494 1.18708,0.932699 3.68841,0.932699 2.50133,0 5.17224,-0.763118 v 2.798098 q -2.11977,0.678327 -5.04506,0.678327 -7.97034,0 -7.97034,-6.359313 z"
       inkscape:connector-curvature="0" />
  </g>
  <circle
     style="fill:#ff0000;fill-opacity:1;stroke:none;stroke-width:0.17471696;stroke-linecap:round;stroke-linejoin:round;stroke-miterlimit:4;stroke-dasharray:none;stroke-opacity:1;paint-order:normal"
     id="path10642"
     cx="155.92389"
     cy="72.045502"
     r="3.3344805" />
  <path
     sodipodi:type="star"
     style="fill:#000000;fill-opacity:0;stroke:none;stroke-width:1;stroke-linecap:round;stroke-linejoin:round;stroke-miterlimit:4;stroke-dasharray:none;stroke-opacity:1;paint-order:normal"
     id="path2679"
     sodipodi:sides="5"
     sodipodi:cx="-377.49832"
     sodipodi:cy="-511.73346"
     sodipodi:r1="323.93066"
     sodipodi:r2="161.96533"
     sodipodi:arg1="0.67877047"
     sodipodi:arg2="1.307089"
     inkscape:flatsided="false"
     inkscape:rounded="0"
     inkscape:randomized="0"
     d="m -125.36843,-308.35797 -209.91177,-47.00926 -157.72729,146.27003 -20.15784,-214.16461 -187.85148,-104.80765 197.45354,-85.35175 41.6287,-211.04471 142.19083,161.41433 213.57943,-25.62516 -109.57477,185.11129 z"
     inkscape:transform-center-x="26.092236"
     inkscape:transform-center-y="-5.0481008" />
  <path
     style="font-style:normal;font-weight:normal;font-size:42.56049347px;line-height:1.25;font-family:sans-serif;letter-spacing:0px;word-spacing:0px;fill:#ffffff;fill-opacity:1;stroke:none;stroke-width:0.14596382"
     d="m 29.563524,0.40815317 c -0.101083,0.076 0.195803,1.81695733 0.374189,2.84122003 0.334086,1.32178 0.288652,3.1064398 3.264769,3.74239 7.837406,2.00171 10.142691,3.7130998 15.506992,6.1084598 0.47307,0.2185 0.925785,0.61146 1.35423,1.07826 -0.525729,0.15092 -0.999736,0.29985 -1.51143,0.45006 -0.907771,-0.15309 -1.819724,-0.28417 -2.737465,-0.372 -21.826563,-2.00199 -41.0939186,14.626603 -43.0350276,37.1412 -1.855039,21.66474 13.0398776,41.042695 33.9124696,44.118056 1.488983,-0.31427 2.346874,-0.74635 0.355419,-0.861084 C 18.49277,92.098622 5.7892984,71.058864 7.4184854,51.822376 c 0.982402,-4.357208 3.0831476,-8.317984 5.8260596,-11.870525 -1.267361,3.066342 -2.102086,6.384845 -2.403804,9.884807 -1.4742846,17.221406 10.365575,32.62492 26.957213,35.069938 0,0 2.417069,-0.444737 0.111549,-0.629311 C 23.158933,82.24552 13.23033,65.466926 14.526356,50.174657 c 0.598084,-6.870821 3.574765,-13.28973 8.384587,-18.082739 -2.956699,4.055613 -4.75728,8.882051 -5.198993,13.935984 -1.235866,14.429042 8.684665,27.33517 22.586135,29.383746 0.146572,-0.04653 0.220335,-0.213691 0.330503,-0.320537 C 28.270225,73.389343 19.71622,59.122804 20.801014,46.310571 21.6522,36.441674 28.170319,28.503852 36.748347,25.589044 c 3.796498,-0.501559 6.828222,-0.61456 8.127888,1.888816 3.009846,4.311775 -12.074362,6.620948 -7.272404,21.761694 C 35.73463,32.231839 44.009099,36.83926 51.202179,29.669204 l 11.580788,-1.841827 c 1.872542,0.77452 7.143453,2.641117 11.202991,3.545438 0.0182,0.513806 -0.05033,1.482318 -0.253453,3.472217 l 2.528052,-3.050697 c 0.292684,0.03705 0.57177,0.06553 0.828681,0.08331 0.203752,0.352957 0.494393,0.673977 0.644263,0.713493 0.526016,0.138577 0.180152,3.108325 -0.54867,4.709287 L 76.83886,38.0624 77.639312,37.673261 c 1.451504,-0.708274 2.829366,-2.459816 3.204576,-4.071427 l 0.162776,-0.705173 c 0.488999,-2.436221 -0.01192,2.554908 1.24506,-3.625677 -0.135856,-0.235795 -0.06757,-0.659104 0.202539,-1.285001 -3.582425,-1.873034 -6.84248,-2.440361 -9.70814,-4.512129 -0.446884,-0.618223 -0.543455,-0.896381 -0.509406,-1.450181 0.03884,-0.63262 -0.01468,-0.7467 -0.687367,-1.5138 -0.400545,-0.45669 -1.216937,-1.16591 -1.813318,-1.57501 -0.288268,-0.19797 -0.670885,-0.42638 -1.091498,-0.66782 l -0.128301,-0.16689 c -2.189699,-2.82364 -7.927094,-7.71263 -11.872132,-10.1166798 -4.093715,-2.49462 -9.511527,-4.68228 -14.216648,-5.73781 -4.35201,-0.97633 -6.045347,-1.02033 -2.600618,-0.0677 5.361822,1.48257 10.660163,4.14371 15.61696,7.8478798 1.576624,1.17821 3.783624,3.18966 4.572489,4.05946 l -5.518725,-2.74808 C 47.490643,8.6196132 45.540363,8.2926032 36.973773,6.0136532 34.223757,5.1054978 31.749914,4.4782132 30.388141,1.8694232 29.959516,1.0481232 29.587635,0.38999317 29.56395,0.40615317 Z M 60.536693,20.222023 c 0.268509,0.0233 0.602052,0.0611 0.990957,0.11985 0.503736,0.0772 0.9581,0.17327 1.371541,0.28614 1.240367,0.33969 2.110791,0.85557 2.823726,1.64668 0.425657,0.472265 1.010057,0.980228 1.296442,1.128141 0.730492,0.376954 0.724576,0.452504 -0.03703,0.509106 -0.366304,0.02805 -0.759295,0.110651 -0.872051,0.185439 -0.741686,0.494222 -3.034564,-0.707618 -3.766184,-1.974916 -0.361527,-0.62625 -1.3431,-1.37558 -2.165695,-1.65468 -0.444128,-0.1507 -0.495808,-0.24338 -0.241993,-0.26662 l -2.87e-4,0.003 c 0.126896,-0.0114 0.330936,-0.005 0.599711,0.0181 z m 0.662575,9.248849 -8.414805,1.144043 c 1.117833,0.759922 5.259472,3.749666 6.310175,4.413333 0.856804,0.560488 2.307711,1.718547 3.223005,2.571633 l 1.662789,1.548086 0.599286,1.973544 c 0.329234,1.085812 0.695453,2.142523 0.814189,2.348054 0.118618,0.20569 0.676194,0.604017 1.238505,0.883657 0.562289,0.279631 1.077495,0.607002 1.147466,0.728123 0.145432,0.251938 -0.144507,1.273453 -0.486839,1.716229 -0.382286,0.49437 0.07746,0.520104 0.781087,0.04266 0.525155,-0.356091 0.671938,-0.383836 0.717745,-0.139159 0.06767,0.36295 0.372221,0.190901 0.650679,-0.366062 0.106297,-0.212666 0.251304,-0.62179 0.322945,-0.90864 0.109372,-0.435705 0.225139,-0.542302 0.693325,-0.653896 0.431669,-0.102786 0.649498,-0.270854 0.944587,-0.730726 0.544733,-0.849117 0.976039,-2.669889 0.652764,-2.754881 -0.175821,-0.04615 -0.224118,-0.233361 -0.161978,-0.603572 0.04969,-0.294937 0.01064,-0.792261 -0.08576,-1.103818 l -0.17545,-0.565379 -0.291194,0.924687 c -0.43534,1.375318 -0.781864,1.689765 -1.514069,1.367051 l -0.601127,-0.268018 c 0,0 -0.215903,1.607017 -3.113345,-2.306642 -1.67526,-2.227198 -2.017805,-2.842573 -2.61309,-4.681309 -0.154795,-0.478143 -2.091691,-3.784567 -2.300859,-4.579072 z"
     id="path10251-4-7-5"
     inkscape:connector-curvature="0"
     sodipodi:nodetypes="cccccccccccccccccccccccccccccccccccccccccccccccccccccccccccccccccccccccccccccccccccccccccccccc" />
  <circle
     style="fill:#ff0000;fill-opacity:1;stroke:none;stroke-width:0.67990559;stroke-linecap:round;stroke-linejoin:round;stroke-miterlimit:4;stroke-dasharray:none;stroke-opacity:1;paint-order:normal"
     id="path898"
     cx="9.8014956"
     cy="-121.85068"
     r="33.862389" />
  <path
     style="font-style:normal;font-weight:normal;font-size:42.56049347px;line-height:1.25;font-family:sans-serif;letter-spacing:0px;word-spacing:0px;fill:#feffff;fill-opacity:1;stroke:none;stroke-width:0.10965641"
     d="m -10.372423,-160.71747 c -0.07594,0.0571 0.106939,1.44532 0.281112,2.13449 0.250985,0.99299 1.67598,1.89198 2.4526825,2.81149 5.8879099,1.5038 7.61977213,2.7895 11.6497411,4.58903 0.3553974,0.16415 0.6955067,0.45936 1.0173754,0.81005 -0.3949586,0.11338 -0.7510546,0.22527 -1.135473,0.33811 -0.6819675,-0.11501 -1.3670791,-0.21348 -2.0565389,-0.27947 -16.3973681,-1.50401 -30.8721131,10.98835 -32.3303841,27.90261 -1.393612,16.2758 9.796303,30.833626 25.4769946,33.144013 1.1186096,-0.236097 1.7631066,-0.560701 0.2670112,-0.646892 -13.9395078,-1.92029 -23.4830858,-17.726561 -22.2591468,-32.178121 0.738037,-3.27338 2.316238,-6.24894 4.376871,-8.91782 -0.952115,2.30362 -1.579208,4.79667 -1.805876,7.42604 -1.107567,12.93771 7.787216,24.509713 20.2518082,26.346553 0,0 1.8158412,-0.334107 0.083802,-0.472774 -11.0814762,-1.526375 -18.5404132,-14.131419 -17.5667642,-25.619859 0.449315,-5.16175 2.685569,-9.98401 6.298983,-13.58479 -2.221242,3.04681 -3.573942,6.67271 -3.905782,10.46952 -0.928453,10.83992 6.52442,20.53575 16.9680033,22.07475 0.1101133,-0.0349 0.1655283,-0.16054 0.2482928,-0.2408 -9.2843121,-1.27847 -15.7105731,-11.99631 -14.8956131,-21.6216 0.639459,-7.41408 5.536245,-13.37743 11.980553,-15.5672 2.8521476,-0.3768 5.12975251,-0.46169 6.1061363,1.41898 2.2611693,3.23926 -9.0709544,4.97404 -5.4634475,16.34864 -1.4042512,-12.77717 4.8120051,-9.31582 10.2158625,-14.70237 l 8.7001477,-1.38369 c 1.406767,0.58187 5.366578,1.98416 8.416338,2.66354 0.01367,0.386 -0.03779,1.1136 -0.190414,2.60853 l 1.899216,-2.29186 c 0.219886,0.0278 0.429547,0.0492 0.62256,0.0626 0.153069,0.26516 0.371414,0.50633 0.484005,0.53601 0.395169,0.10411 0.135339,2.33516 -0.412192,3.53789 l -0.259913,0.57244 0.601344,-0.29234 c 1.09045,-0.5321 2.125585,-1.84796 2.407465,-3.05869 l 0.122282,-0.52977 c 0.367365,-1.83023 -0.0089,1.91939 0.935361,-2.72381 -0.102059,-0.17715 -0.05079,-0.49516 0.152159,-0.96537 -2.69132,-1.40713 -5.140464,-1.83334 -7.293313,-3.38977 -0.335721,-0.46445 -0.40827,-0.67341 -0.382698,-1.08946 0.02915,-0.47526 -0.01104,-0.56096 -0.516384,-1.13725 -0.300916,-0.34309 -0.914235,-0.8759 -1.36227,-1.18324 -0.216565,-0.14873 -0.504011,-0.32032 -0.819998,-0.50171 l -0.09639,-0.12537 c -1.645029,-2.12128 -5.955286,-5.79417 -8.9190266,-7.60023 -3.0754302,-1.87411 -7.1456065,-3.5176 -10.68036351,-4.31058 -3.26948009,-0.73347 -4.54161219,-0.76653 -1.95373369,-0.0509 4.0281085,1.11379 8.008529,3.113 11.7323553,5.89578 1.1844555,0.88514 2.8424805,2.39626 3.4351175,3.0497 l -4.1459798,-2.06451 c -5.2640003,-2.04163 -6.7291628,-2.2873 -13.1648772,-3.99938 -2.0927434,-1.07046 -3.9244631,-1.15351 -4.9475053,-3.11338 -0.3220077,-0.61701 -0.6013857,-1.11143 -0.6191797,-1.09929 z m 23.268824,14.88532 c 0.20172,0.0175 0.452294,0.0459 0.744466,0.09 0.378431,0.058 0.71978,0.13017 1.03038,0.21497 0.931837,0.25519 1.585746,0.64275 2.12134,1.23708 0.319781,0.35479 0.758816,0.7364 0.973968,0.84752 0.548786,0.28319 0.544339,0.33995 -0.0278,0.38247 -0.275193,0.021 -0.57043,0.0831 -0.655134,0.13931 -0.557201,0.37129 -2.279744,-0.5316 -2.829379,-1.48366 -0.271602,-0.47048 -1.009014,-1.03342 -1.626991,-1.2431 -0.333656,-0.11321 -0.372481,-0.18284 -0.181804,-0.2003 l -2.1e-4,0.002 c 0.09533,-0.009 0.248613,-0.004 0.450536,0.0136 z m 0.497768,6.94826 -6.3216889,0.85947 c 0.8397857,0.5709 3.9512159,2.81696 4.7405699,3.31555 0.643677,0.42107 1.733684,1.29107 2.421303,1.93196 l 1.249183,1.16301 0.450221,1.48264 c 0.247337,0.81573 0.522462,1.60959 0.611659,1.76399 0.08911,0.15453 0.508001,0.45378 0.93044,0.66386 0.422425,0.21007 0.809473,0.45601 0.862046,0.54701 0.109255,0.18927 -0.108565,0.95668 -0.365743,1.28933 -0.287198,0.3714 0.05822,0.39073 0.586793,0.0321 0.39453,-0.26752 0.504799,-0.28837 0.539215,-0.10455 0.05086,0.27267 0.279633,0.14342 0.488828,-0.27501 0.07985,-0.15977 0.188791,-0.46712 0.242611,-0.68262 0.08217,-0.32733 0.169138,-0.40741 0.520869,-0.49125 0.324296,-0.0772 0.487942,-0.20347 0.709623,-0.54896 0.40924,-0.6379 0.733257,-2.00577 0.490398,-2.06963 -0.132086,-0.0346 -0.168371,-0.17531 -0.121688,-0.45343 0.03734,-0.22158 0.008,-0.59519 -0.06446,-0.82926 l -0.131808,-0.42474 -0.218759,0.69468 c -0.327052,1.03322 -0.587386,1.26945 -1.137456,1.02701 l -0.451604,-0.20136 c 0,0 -0.162196,1.20729 -2.33892,-1.73288 -1.258551,-1.6732 -1.515895,-2.1355 -1.963103,-3.51687 -0.116295,-0.3592 -1.571405,-2.84318 -1.728538,-3.44006 z"
     id="path10251-4-7-5-6"
     inkscape:connector-curvature="0"
     sodipodi:nodetypes="cccccccccccccccccccccccccccccccccccccccccccccccccccccccccccccccccccccccccccccccccccccccccccccc" />
</svg>
