<?xml version="1.0" encoding="UTF-8" standalone="no"?>
<!-- Created with Inkscape (http://www.inkscape.org/) -->

<svg
   xmlns:dc="http://purl.org/dc/elements/1.1/"
   xmlns:cc="http://creativecommons.org/ns#"
   xmlns:rdf="http://www.w3.org/1999/02/22-rdf-syntax-ns#"
   xmlns:svg="http://www.w3.org/2000/svg"
   xmlns="http://www.w3.org/2000/svg"
   xmlns:sodipodi="http://sodipodi.sourceforge.net/DTD/sodipodi-0.dtd"
   xmlns:inkscape="http://www.inkscape.org/namespaces/inkscape"
   version="1.1"
   id="svg815"
   width="51"
   height="61"
   viewBox="0 0 51 61"
   sodipodi:docname="iso-canvate-shiroi.svg"
   inkscape:version="0.92.2 (5c3e80d, 2017-08-06)">
  <metadata
     id="metadata821">
    <rdf:RDF>
      <cc:Work
         rdf:about="">
        <dc:format>image/svg+xml</dc:format>
        <dc:type
           rdf:resource="http://purl.org/dc/dcmitype/StillImage" />
        <dc:title></dc:title>
      </cc:Work>
    </rdf:RDF>
  </metadata>
  <defs
     id="defs819" />
  <sodipodi:namedview
     pagecolor="#ffffff"
     bordercolor="#666666"
     borderopacity="1"
     objecttolerance="10"
     gridtolerance="10"
     guidetolerance="10"
     inkscape:pageopacity="0"
     inkscape:pageshadow="2"
     inkscape:window-width="1280"
     inkscape:window-height="971"
     id="namedview817"
     showgrid="false"
     inkscape:zoom="12.293322"
     inkscape:cx="25.538822"
     inkscape:cy="30.438106"
     inkscape:window-x="-8"
     inkscape:window-y="-8"
     inkscape:window-maximized="1"
     inkscape:current-layer="svg815"
     showguides="true"
     inkscape:guide-bbox="true" />
  <path
     sodipodi:type="star"
     style="fill:#000000;fill-opacity:0;stroke:none;stroke-width:1;stroke-linecap:round;stroke-linejoin:round;stroke-miterlimit:4;stroke-dasharray:none;stroke-opacity:1;paint-order:normal"
     id="path2679"
     sodipodi:sides="5"
     sodipodi:cx="-377.49832"
     sodipodi:cy="-547.73346"
     sodipodi:r1="323.93066"
     sodipodi:r2="161.96533"
     sodipodi:arg1="0.67877047"
     sodipodi:arg2="1.307089"
     inkscape:flatsided="false"
     inkscape:rounded="0"
     inkscape:randomized="0"
     d="m -125.36843,-344.35797 -209.91177,-47.00926 -157.72729,146.27003 -20.15784,-214.16461 -187.85148,-104.80765 197.45354,-85.35175 41.6287,-211.04471 142.19083,161.41433 213.57943,-25.62516 -109.57477,185.11129 z"
     inkscape:transform-center-x="26.092236"
     inkscape:transform-center-y="-5.0481008" />
  <path
     style="font-style:normal;font-weight:normal;font-size:42.56049347px;line-height:1.25;font-family:sans-serif;letter-spacing:0px;word-spacing:0px;fill:#fcffff;fill-opacity:1;stroke:none;stroke-width:0.09208113"
     d="m 17.394885,0.4014366 c -0.06377,0.047944 0.123522,1.1462254 0.236057,1.7923814 0.210757,0.833843 0.182096,1.959694 2.059576,2.360882 4.944219,1.262777 6.398507,2.342406 9.782571,3.853517 0.298435,0.13784 0.584031,0.385738 0.854315,0.680218 -0.331656,0.09521 -0.630683,0.189161 -0.953485,0.283921 C 28.801253,9.275779 28.225948,9.193087 27.646992,9.13768 13.877726,7.874726 1.7229353,18.364858 0.4983888,32.568168 -0.6718612,46.235348 8.724582,58.459911 21.892035,60.4 22.831359,60.201743 23.372559,59.929166 22.116252,59.856786 10.410912,58.244277 2.3969394,44.971367 3.4247106,32.836048 4.0444579,30.087308 5.36971,27.588656 7.100073,25.347539 6.30056,27.281938 5.7739748,29.375412 5.5836364,31.583359 4.6535859,42.447466 12.122749,52.164758 22.589568,53.707195 c 0,0 1.524805,-0.280561 0.07037,-0.397 C 13.354554,52.028458 7.091105,41.443698 7.908701,31.796585 c 0.377301,-4.33445 2.255137,-8.383812 5.289409,-11.407477 -1.865231,2.55848 -3.001126,5.603233 -3.279779,8.791502 -0.779646,9.102546 5.478711,17.244365 14.24844,18.536706 0.09247,-0.02936 0.138998,-0.134806 0.208498,-0.20221 -7.79626,-1.073559 -13.192545,-10.073591 -12.508205,-18.156175 0.536971,-6.225783 4.648919,-11.23335 10.06036,-13.072154 2.395017,-0.316408 4.307577,-0.387696 5.12747,1.191557 1.898758,2.720079 -7.617099,4.176819 -4.587789,13.728342 -1.179184,-10.729299 4.040757,-7.822712 8.578504,-12.345934 l 7.305728,-1.161916 c 1.181291,0.488606 4.506441,1.666147 7.067395,2.236637 0.01148,0.324133 -0.03174,0.935119 -0.159889,2.190445 l 1.594818,-1.924529 c 0.184639,0.02338 0.360701,0.04134 0.522773,0.05256 0.128537,0.222662 0.311888,0.425176 0.406433,0.450105 0.331837,0.08742 0.113649,1.960884 -0.346128,2.970849 l -0.218255,0.480692 0.504964,-0.245488 c 0.91568,-0.446814 1.784903,-1.551773 2.021603,-2.568456 l 0.102687,-0.444858 c 0.308485,-1.536887 -0.0075,1.611761 0.785445,-2.287255 -0.08571,-0.14875 -0.04262,-0.415794 0.127772,-0.810641 -2.259969,-1.181602 -4.316572,-1.539499 -6.124371,-2.846472 -0.281916,-0.390005 -0.342838,-0.565481 -0.321358,-0.914846 0.0245,-0.399087 -0.0093,-0.471054 -0.433624,-0.954978 -0.252684,-0.288103 -0.767704,-0.735513 -1.143931,-0.993594 -0.181854,-0.124889 -0.423227,-0.268982 -0.68857,-0.421294 l -0.08094,-0.105282 C 40.586792,9.78113 36.967362,6.696916 34.478639,5.180323 31.896123,3.606594 28.478302,2.226512 25.510081,1.560632 22.764619,0.944715 21.69638,0.916957 23.869484,1.517932 c 3.3825,0.935278 6.724953,2.614055 9.851943,4.950828 0.994612,0.743272 2.386895,2.012193 2.884551,2.560906 L 33.124496,7.296039 C 28.704191,5.581637 27.473858,5.375343 22.069633,3.93767 20.334788,3.364761 18.774167,2.969039 17.915094,1.323286 17.644696,0.80517 17.410095,0.3899894 17.395154,0.4001838 Z M 36.934278,12.900996 c 0.169389,0.0147 0.379804,0.03854 0.625144,0.07561 0.317781,0.0487 0.604416,0.109308 0.865235,0.180511 0.782484,0.214293 1.331591,0.539736 1.781344,1.038807 0.268526,0.297927 0.637194,0.618375 0.81786,0.711687 0.46083,0.2378 0.457098,0.285461 -0.02336,0.321168 -0.231083,0.0177 -0.479,0.0698 -0.550133,0.116984 -0.467892,0.31178 -1.914352,-0.4464 -2.375893,-1.245873 -0.228069,-0.39507 -0.847293,-0.867784 -1.366227,-1.043853 -0.280177,-0.09507 -0.31278,-0.153537 -0.152661,-0.168198 l -1.8e-4,0.0018 c 0.08005,-0.0072 0.20877,-0.0031 0.378327,0.01142 z m 0.417985,5.834628 -5.308472,0.721719 c 0.705184,0.479396 3.317933,2.365473 3.980767,2.784145 0.540515,0.353584 1.455818,1.084145 2.03323,1.622313 l 1.048968,0.976608 0.37806,1.245009 c 0.207696,0.684983 0.438725,1.351608 0.51363,1.481268 0.07483,0.129759 0.426576,0.381043 0.78131,0.557453 0.354719,0.176405 0.679737,0.382928 0.723877,0.459336 0.09175,0.158935 -0.09116,0.803356 -0.307121,1.082681 -0.241165,0.311873 0.04886,0.328108 0.492747,0.02691 0.331294,-0.224639 0.423892,-0.242142 0.452789,-0.08779 0.0427,0.228967 0.234816,0.12043 0.410481,-0.23093 0.06706,-0.13416 0.158534,-0.392255 0.203729,-0.573215 0.069,-0.274864 0.142029,-0.34211 0.437383,-0.412509 0.272318,-0.06485 0.409736,-0.170868 0.595893,-0.460978 0.343643,-0.535665 0.615732,-1.684297 0.411795,-1.737914 -0.110917,-0.02911 -0.141385,-0.147216 -0.102184,-0.380763 0.03134,-0.186061 0.0067,-0.499797 -0.0541,-0.696342 l -0.110687,-0.356665 -0.183699,0.583338 c -0.274633,0.867618 -0.493238,1.065987 -0.955149,0.862403 l -0.379221,-0.169079 c 0,0 -0.136201,1.013785 -1.964049,-1.455142 -1.056838,-1.405026 -1.272932,-1.793236 -1.648467,-2.9532 -0.09765,-0.301636 -1.319541,-2.38749 -1.451494,-2.888702 z"
     id="path10251-4-7-5"
     inkscape:connector-curvature="0"
     sodipodi:nodetypes="cccccccccccccccccccccccccccccccccccccccccccccccccccccccccccccccccccccccccccccccccccccccccccccc" />
</svg>
