<?xml version="1.0" encoding="UTF-8" standalone="no"?>
<!-- Created with Inkscape (http://www.inkscape.org/) -->

<svg
   xmlns:dc="http://purl.org/dc/elements/1.1/"
   xmlns:cc="http://creativecommons.org/ns#"
   xmlns:rdf="http://www.w3.org/1999/02/22-rdf-syntax-ns#"
   xmlns:svg="http://www.w3.org/2000/svg"
   xmlns="http://www.w3.org/2000/svg"
   xmlns:sodipodi="http://sodipodi.sourceforge.net/DTD/sodipodi-0.dtd"
   xmlns:inkscape="http://www.inkscape.org/namespaces/inkscape"
   width="310mm"
   height="160mm"
   viewBox="0 0 310 160"
   version="1.1"
   id="svg2150"
   inkscape:version="0.92.3 (2405546, 2018-03-11)"
   sodipodi:docname="hakodate-logo.svg">
  <defs
     id="defs2144" />
  <sodipodi:namedview
     id="base"
     pagecolor="#ffffff"
     bordercolor="#666666"
     borderopacity="1.0"
     inkscape:pageopacity="0.0"
     inkscape:pageshadow="2"
     inkscape:zoom="0.38690666"
     inkscape:cx="386.05002"
     inkscape:cy="106.91023"
     inkscape:document-units="mm"
     inkscape:current-layer="layer1"
     showgrid="false"
     inkscape:window-width="1366"
     inkscape:window-height="705"
     inkscape:window-x="-8"
     inkscape:window-y="-8"
     inkscape:window-maximized="1"
     showguides="true"
     inkscape:guide-bbox="true"
     width="310mm" />
  <metadata
     id="metadata2147">
    <rdf:RDF>
      <cc:Work
         rdf:about="">
        <dc:format>image/svg+xml</dc:format>
        <dc:type
           rdf:resource="http://purl.org/dc/dcmitype/StillImage" />
        <dc:title />
      </cc:Work>
    </rdf:RDF>
  </metadata>
  <g
     inkscape:label="Layer 1"
     inkscape:groupmode="layer"
     id="layer1"
     transform="translate(0,-137)">
    <g
       id="g1548"
       transform="translate(-657.71753,973.08698)">
      <g
         id="text855-3-6-1"
         style="font-style:normal;font-variant:normal;font-weight:normal;font-stretch:normal;font-size:52.14189529px;line-height:1.25;font-family:Prime;-inkscape-font-specification:Prime;letter-spacing:0px;word-spacing:0px;fill:#ffffff;fill-opacity:1;stroke:none;stroke-width:1.30354738"
         aria-label="HAKODATE"
         transform="matrix(0.8743187,0,0,0.8743187,261.70027,-76.107315)" />
    </g>
    <g
       id="g157"
       transform="translate(-4.9999997e-7,-6.1666343)">
      <path
         d="m 176.27048,184.76255 5.4599,-5.63159 v -22.78404 l -2.63886,-2.70111 c -4.36298,-2.7e-4 -5.67523,-1.4e-4 -8.16707,0 l -2.2816,2.33588 v 20.91533 z m -9.15109,8.9279 v -0.4063 l -5.7148,-5.72792 -13.27541,-0.0422 -6.13584,-6.44863 v -24.76458 l -2.63886,-2.70113 c -4.36299,-2.8e-4 -5.67524,-1.7e-4 -8.16708,0 l -2.28159,2.33587 v 23.77076 l 13.56149,13.98414 z m -33.38988,-6.1601 -5.45989,5.63159 v 22.784 l 2.63885,2.70114 c 4.36298,2.7e-4 5.67523,1.3e-4 8.16707,0 l 2.2816,-2.33588 v -20.91532 z m 9.33346,-8.74652 v 0.40631 l 6.29111,6.48664 h 13.27541 l 5.55953,5.73211 v 24.76456 l 2.63885,2.70114 c 4.36299,2.7e-4 5.67524,1.6e-4 8.16708,0 l 2.2816,-2.33587 v -23.77075 l -13.5615,-13.98414 z"
         style="opacity:0.98999999;fill:#ffffff;stroke:none;stroke-width:0.72678518;stroke-opacity:1"
         id="rect4610-5-4-5-4-96-4"
         inkscape:connector-curvature="0" />
      <g
         transform="translate(-27.897587)"
         id="g150">
        <path
           id="path3252-0"
           style="opacity:1;fill:#ffffff;fill-opacity:1;stroke:none;stroke-width:0.03499706;stroke-linecap:round;stroke-linejoin:round;stroke-miterlimit:4;stroke-dasharray:none;stroke-opacity:1;paint-order:normal"
           d="m 233.87524,229.94202 c -1.64119,0 -3.05479,1.0484 -3.60185,2.55282 l -3.38584,9.64437 6.9758,-7.77524 0.005,0.006 c 0.1522,-0.31348 0.44664,-0.50695 0.78135,-0.50695 h 2.23397 l 5.92677,17.00465 h -14.67972 l 4.28811,-12.35067 -6.99803,7.80056 -6.27093,17.86196 h 3.73827 c 0.36471,0 0.72943,-0.2736 0.82063,-0.59273 l 3.05407,-8.79843 h 17.41496 l 3.05459,8.79843 c 0.0912,0.31913 0.41033,0.59273 0.82063,0.59273 h 3.73827 L 239.8468,230.26117 c -0.0912,-0.18234 -0.31879,-0.31884 -0.54674,-0.31884 z m -169.382825,5e-5 v 17.94051 l 4.28553,-4.77646 V 230.5348 c 1e-5,-0.31912 -0.27359,-0.59274 -0.59273,-0.59273 z m 21.2447,0 c -0.31912,0 -0.59273,0.27363 -0.59273,0.59273 v 14.54278 h -15.85329 l -4.79868,5.34851 v 13.75316 h 3.6928 c 0.31913,0 0.59273,-0.2736 0.59273,-0.59272 v -14.58826 h 16.36644 v 14.58826 c 0,0.31912 0.27361,0.59273 0.59273,0.59272 h 3.69228 v -34.23718 z m 21.789885,0 c -1.64119,0 -3.05479,1.04839 -3.60185,2.55281 l -3.38584,9.64437 6.9758,-7.77523 0.005,0.006 c 0.1522,-0.31348 0.44664,-0.50694 0.78135,-0.50694 h 2.23397 l 5.92677,17.00464 h -14.67973 l 4.28811,-12.35066 -6.998016,7.80056 -6.270928,17.86195 h 3.738269 c 0.364709,0 0.729429,-0.2736 0.820621,-0.59272 l 3.054074,-8.79844 h 17.41496 l 3.05459,8.79844 c 0.0912,0.31912 0.41033,0.59272 0.82062,0.59272 h 3.73827 l -11.94449,-33.91834 c -0.0912,-0.18235 -0.31878,-0.31884 -0.54673,-0.31884 z m 22.06893,0 c -0.31912,0 -0.59273,0.27361 -0.59273,0.59273 v 17.71054 l 4.28553,-4.77645 v -13.52682 z m 19.69441,0 c -0.3647,-1e-5 -0.63821,0.27361 -0.63821,0.59273 v 11.07787 c 0,1.91472 -1.55018,3.46491 -3.4649,3.46491 h -9.61905 c -0.95736,0 -1.82357,0.40998 -2.27945,0.95705 v -0.0227 l -4.28553,4.77697 v 13.39039 h 3.6928 c 0.31912,0 0.59274,-0.2736 0.59273,-0.59272 v -13.72216 c -10e-6,-0.45588 0.41021,-0.8661 0.8661,-0.8661 h 10.39419 l 6.47351,14.63373 c 0.13679,0.27351 0.54699,0.54724 0.8661,0.54725 h 4.10311 l -7.15719,-16.09307 c 2.46178,-1.27648 4.14858,-3.87508 4.14858,-6.83834 v -11.30577 z m 17.9126,-0.18242 c -4.28534,0 -7.74992,3.46458 -7.74992,7.74992 v 3.09645 l 5.0214,-5.59708 0.002,0.002 c 0.63402,-0.80915 1.61784,-1.33067 2.72645,-1.33067 h 10.30325 c 1.91472,0 3.46438,1.55019 3.46438,3.4649 v 19.83084 c 0,1.91473 -1.54966,3.46489 -3.46438,3.4649 h -10.30325 c -1.91472,1e-5 -3.46439,-1.55017 -3.46439,-3.4649 v -18.60353 l -4.28553,4.77697 v 13.46171 c 0,4.28533 3.46458,7.75043 7.74992,7.75043 h 10.30325 c 4.23973,-10e-6 7.74991,-3.4651 7.74991,-7.75043 V 237.5095 c -1e-4,-4.28534 -3.51028,-7.74992 -7.75001,-7.74992 z m 26.28418,0.18242 c -1.45884,0 -2.64427,1.18544 -2.64428,2.64428 v 28.94862 c 0,0.44062 0.10962,0.85552 0.30076,1.22112 l 3.98476,-4.44211 v -23.58512 c 0,-0.50149 0.36462,-0.8661 0.8661,-0.8661 h 12.12639 c 1.91472,0 3.46491,1.55017 3.46491,3.4649 v 19.466 c 0,1.91472 -1.55019,3.4649 -3.46491,3.4649 h -12.12639 c -0.10128,0 -0.19494,-0.0207 -0.28318,-0.0512 l -3.33933,3.72226 c 0.33925,0.15849 0.71642,0.2496 1.11517,0.24959 h 14.63373 c 4.28533,0 7.75043,-3.51069 7.75043,-7.75043 v -18.73684 c 0,-4.28533 -3.4651,-7.74991 -7.75043,-7.74991 z m 56.93503,0 c -0.31913,0 -0.59273,0.27362 -0.59273,0.59273 v 3.32796 h 10.21229 v 5.32474 l 4.24419,-4.73046 0.0408,0.0455 v -0.63975 h 9.756 c 0.31912,0 0.59273,-0.2736 0.59273,-0.59273 v -3.32796 z m 13.90457,7.01301 -4.28501,4.77593 v 22.44824 h 3.69229 c 0.36471,0 0.59272,-0.2736 0.59272,-0.59272 z m 21.61264,-7.01301 c -4.28533,0 -7.74992,3.46458 -7.74992,7.74991 v 10.51151 l 4.28501,-4.77594 v -6.1004 c 0,-1.91472 1.55018,-3.46439 3.46491,-3.46439 h 14.77067 c 0.31912,0 0.59273,-0.27359 0.59273,-0.59273 v -3.32796 z m -1.23093,15.13551 c -0.95737,10e-6 -1.7781,0.36451 -2.23398,0.91157 v -0.0186 l -4.28501,4.77593 v 5.68234 c 0,4.28532 3.46458,7.75043 7.74992,7.75043 h 15.3634 v -3.32796 c -10e-6,-0.31911 -0.2736,-0.59274 -0.59273,-0.59273 h -14.77067 c -1.91472,0 -3.46491,-1.55018 -3.46491,-3.4649 v -7.79539 h 16.63981 c 0.31913,0 0.59273,-0.27361 0.59273,-0.59273 v -3.32796 z"
           inkscape:connector-curvature="0" />
        <g
           aria-label="p  r  o  j  e  c  t"
           style="font-style:normal;font-variant:normal;font-weight:normal;font-stretch:normal;font-size:25.9512043px;line-height:1.25;font-family:'Blender Pro';-inkscape-font-specification:'Blender Pro';letter-spacing:0px;word-spacing:0px;fill:#ffffff;fill-opacity:1;stroke:none;stroke-width:0.64878005"
           id="text1564-9-6-9-8-2"
           transform="translate(-0.52916667,-3.1750001)">
          <path
             id="path3560"
             style="font-style:normal;font-variant:normal;font-weight:normal;font-stretch:normal;font-family:'Blender Pro';-inkscape-font-specification:'Blender Pro';fill:#ffffff;stroke-width:0.64878005"
             d="m 301.04524,282.12866 v -1.89444 h -3.42556 v -4.38575 h -2.02419 v 4.38575 h -1.84254 v 1.89444 h 1.84254 v 5.99473 c 0,0.54497 0.12975,1.064 0.44117,1.50517 0.20761,0.28546 0.85639,0.98614 1.24565,1.27161 0.46713,0.33736 1.14186,0.51902 1.76469,0.51902 h 1.84253 v -1.89444 h -1.81658 c -0.15571,0 -0.31142,-0.0519 -0.36332,-0.0778 -0.36332,-0.18166 -0.85639,-0.67473 -1.03805,-1.03805 -0.026,-0.0519 -0.0519,-0.15571 -0.0519,-0.33737 v -5.94282 z m -21.23864,6.74731 -1.89443,-0.62283 c -0.28547,0.51903 -0.72664,1.064 -1.21971,1.32351 -0.0778,0.026 -0.15571,0.0779 -0.31142,0.0779 h -2.67297 c -0.15571,0 -0.20761,-0.026 -0.31141,-0.0779 -0.36332,-0.18165 -0.9083,-0.67473 -1.08995,-1.03804 -0.026,-0.0519 -0.0519,-0.12976 -0.0519,-0.28547 v -4.85287 c 0,-0.15571 0,-0.18166 0.0519,-0.28547 0.18165,-0.36331 0.72663,-0.85639 1.08995,-1.03804 0.1038,-0.0519 0.1557,-0.0779 0.31141,-0.0779 h 2.59512 c 0.62283,0 1.27161,0.85639 1.55707,1.40137 l 1.89444,-0.59688 c -0.31141,-0.75259 -1.14185,-1.76468 -1.73873,-2.1799 -0.46712,-0.33737 -1.14185,-0.51903 -1.76468,-0.51903 h -2.56917 c -0.62283,0 -1.32351,0.18166 -1.79063,0.51903 -0.38927,0.28546 -1.03805,0.96019 -1.24566,1.24566 -0.31142,0.44117 -0.41522,0.96019 -0.41522,1.47921 v 4.95668 c 0,0.51903 0.1038,1.03805 0.41522,1.47922 0.20761,0.28547 0.85639,0.9602 1.24566,1.24566 0.46712,0.33737 1.1678,0.51903 1.79063,0.51903 h 2.64702 c 0.62283,0 1.29756,-0.18166 1.76468,-0.51903 0.38927,-0.28546 1.0121,-0.96019 1.21971,-1.24566 0.12976,-0.18165 0.31141,-0.46712 0.49307,-0.90829 z m -24.63458,0 -1.89444,-0.62283 -0.1557,0.28547 c -0.18166,0.33736 -0.70069,0.85639 -1.064,1.03804 -0.10381,0.0519 -0.15571,0.0779 -0.31142,0.0779 h -2.62107 c -0.12976,0 -0.23356,-0.026 -0.33737,-0.0779 -0.44117,-0.20761 -0.90829,-0.75258 -1.06399,-1.03804 -0.026,-0.0519 -0.0519,-0.12976 -0.0519,-0.28547 v -1.55707 h 7.4999 v -3.34771 c 0,-0.51902 -0.1038,-1.03804 -0.41522,-1.47921 -0.20761,-0.28547 -0.85639,-0.9602 -1.24566,-1.24566 -0.46712,-0.33737 -1.1678,-0.51903 -1.79063,-0.51903 h -2.59512 c -0.62283,0 -1.32351,0.18166 -1.79063,0.51903 -0.38927,0.28546 -1.03805,0.96019 -1.24566,1.24566 -0.31141,0.41522 -0.44117,0.93424 -0.44117,1.47921 v 4.95668 c 0,0.54498 0.12976,1.064 0.44117,1.47922 0.20761,0.28547 0.85639,0.9602 1.24566,1.24566 0.46712,0.33737 1.1678,0.51903 1.79063,0.51903 h 2.56917 c 0.62283,0 1.29756,-0.18166 1.76468,-0.51903 0.64878,-0.44117 1.37542,-1.37541 1.71278,-2.15395 z m -2.02419,-4.02244 h -5.47571 v -1.45326 c 0,-0.15571 0.0259,-0.25951 0.0519,-0.28547 0.18165,-0.38926 0.57092,-0.75258 1.08995,-1.03804 0.0779,-0.0519 0.23356,-0.0779 0.31141,-0.0779 h 2.56917 c 0.15571,0 0.20761,0.026 0.31141,0.0779 0.36332,0.18165 0.93425,0.67473 1.11591,1.03804 0.0259,0.0519 0.0259,0.23356 0.0259,0.28547 z m -22.79692,7.73346 v -12.35277 h -2.0242 v 12.27492 c 0,0.15571 -0.0259,0.23356 -0.0519,0.28546 -0.20761,0.38927 -0.70068,0.93425 -1.064,1.14186 -0.0779,0.0519 -0.38927,0.0519 -1.99824,0.0779 v 1.86849 h 1.42731 c 0.59688,0 1.53113,-0.18166 2.0242,-0.51903 0.38927,-0.28546 1.03805,-0.98614 1.24566,-1.27161 0.31141,-0.44117 0.44117,-0.96019 0.44117,-1.50517 z m 0.1557,-14.66243 v -2.30965 h -2.3356 v 2.30965 z m -17.88605,10.38048 v -4.95668 c 0,-0.51902 -0.1038,-1.03804 -0.41522,-1.47921 -0.20761,-0.28547 -0.85639,-0.9602 -1.24566,-1.24566 -0.46712,-0.33737 -1.1678,-0.51903 -1.79063,-0.51903 h -2.59512 c -0.62283,0 -1.32351,0.18166 -1.79063,0.51903 -0.38927,0.28546 -1.03805,0.96019 -1.24566,1.24566 -0.31141,0.44117 -0.41522,0.96019 -0.41522,1.47921 v 4.95668 c 0,0.51903 0.10381,1.03805 0.41522,1.47922 0.20761,0.28547 0.85639,0.9602 1.24566,1.24566 0.46712,0.33737 1.1678,0.51903 1.79063,0.51903 h 2.59512 c 0.62283,0 1.32351,-0.18166 1.79063,-0.51903 0.38927,-0.28546 1.03805,-0.96019 1.24566,-1.24566 0.31142,-0.44117 0.41522,-0.96019 0.41522,-1.47922 z m -2.0761,0.28547 c -0.1557,0.28546 -0.80448,0.83044 -1.08995,0.98614 -0.1038,0.0519 -0.1557,0.0779 -0.31141,0.0779 h -2.51727 c -0.1557,0 -0.20761,-0.026 -0.31141,-0.0779 -0.36332,-0.18165 -0.93424,-0.67473 -1.1159,-1.03804 -0.0259,-0.0519 -0.0519,-0.12976 -0.0519,-0.28547 v -4.85287 c 0,-0.15571 0.026,-0.23356 0.0519,-0.28547 0.20761,-0.36331 0.75258,-0.85639 1.1159,-1.03804 0.0519,-0.026 0.15571,-0.0779 0.31141,-0.0779 h 2.51727 c 0.15571,0 0.28546,0.0519 0.36332,0.10381 0.38926,0.23356 0.77853,0.59687 1.01209,0.93424 0.0519,0.0779 0.0779,0.18166 0.0779,0.36332 v 4.85287 c 0,0.0779 0,0.23356 -0.0519,0.33737 z m -21.19848,-5.78712 c -0.31142,-0.75259 -1.14185,-1.79063 -1.73873,-2.20585 -0.46712,-0.33737 -1.14186,-0.49308 -1.76468,-0.49308 h -1.42732 c -0.75259,0 -1.53112,0.54498 -2.05015,1.03805 l -0.12975,-0.90829 h -1.99824 l 0.18165,2.0761 v 9.10887 h 2.0242 v -8.01892 c 0.25951,-0.38927 1.50517,-1.40137 2.05014,-1.40137 h 1.40137 c 0.62283,0 1.24566,0.83044 1.53112,1.37542 z m -24.26519,5.44975 v -4.85287 c 0,-0.54498 -0.12975,-1.064 -0.44117,-1.50517 -0.20761,-0.28547 -0.85639,-0.9602 -1.24566,-1.24566 -0.46712,-0.33737 -1.14185,-0.54498 -1.76468,-0.54498 h -2.02419 c -0.77854,0 -1.55707,0.59688 -2.0761,1.08995 l -0.1038,-0.96019 h -2.0242 l 0.18166,2.0761 v 13.59843 h 2.02419 v -5.34595 c 0.51903,0.46712 1.27161,0.98615 1.99825,0.98615 h 2.02419 c 0.62283,0 1.29756,-0.18166 1.76468,-0.51903 0.38927,-0.28546 1.03805,-0.98614 1.24566,-1.27161 0.31142,-0.41522 0.44117,-0.96019 0.44117,-1.50517 z m -2.02419,-0.0519 c 0,0.15571 -0.0259,0.23356 -0.0519,0.28546 -0.18166,0.36332 -0.72664,0.9083 -1.08996,1.11591 -0.0778,0.0259 -0.1557,0.0519 -0.31141,0.0519 h -1.92039 c -0.54497,0 -1.81658,-1.08995 -2.0761,-1.47922 v -4.72312 c 0.25952,-0.36332 1.55708,-1.45327 2.0761,-1.45327 h 1.92039 c 0.15571,0 0.23356,0.0519 0.31141,0.0779 0.36332,0.20761 0.88235,0.72663 1.08996,1.08995 0.0259,0.0259 0.0519,0.12975 0.0519,0.28546 z"
             inkscape:connector-curvature="0" />
        </g>
      </g>
    </g>
  </g>
</svg>
