<?xml version="1.0" encoding="UTF-8" standalone="no"?>
<!-- Created with Inkscape (http://www.inkscape.org/) -->

<svg
   xmlns:dc="http://purl.org/dc/elements/1.1/"
   xmlns:cc="http://creativecommons.org/ns#"
   xmlns:rdf="http://www.w3.org/1999/02/22-rdf-syntax-ns#"
   xmlns:svg="http://www.w3.org/2000/svg"
   xmlns="http://www.w3.org/2000/svg"
   xmlns:sodipodi="http://sodipodi.sourceforge.net/DTD/sodipodi-0.dtd"
   xmlns:inkscape="http://www.inkscape.org/namespaces/inkscape"
   width="302mm"
   height="70mm"
   viewBox="0 0 302 70"
   version="1.1"
   id="svg2150"
   inkscape:version="0.92.3 (2405546, 2018-03-11)"
   sodipodi:docname="hakodate-logo-katakana.svg">
  <defs
     id="defs2144" />
  <sodipodi:namedview
     id="base"
     pagecolor="#ffffff"
     bordercolor="#666666"
     borderopacity="1.0"
     inkscape:pageopacity="0.0"
     inkscape:pageshadow="2"
     inkscape:zoom="0.77381331"
     inkscape:cx="669.9389"
     inkscape:cy="131.80592"
     inkscape:document-units="mm"
     inkscape:current-layer="layer1"
     showgrid="false"
     inkscape:window-width="1366"
     inkscape:window-height="705"
     inkscape:window-x="-8"
     inkscape:window-y="-8"
     inkscape:window-maximized="1"
     showguides="true"
     inkscape:guide-bbox="true" />
  <metadata
     id="metadata2147">
    <rdf:RDF>
      <cc:Work
         rdf:about="">
        <dc:format>image/svg+xml</dc:format>
        <dc:type
           rdf:resource="http://purl.org/dc/dcmitype/StillImage" />
        <dc:title />
      </cc:Work>
    </rdf:RDF>
  </metadata>
  <g
     inkscape:label="Layer 1"
     inkscape:groupmode="layer"
     id="layer1"
     transform="translate(0,-227)">
    <g
       aria-label="プロジェクト"
       transform="matrix(1.002697,0,0,0.99731026,-0.52916667,0)"
       style="font-style:normal;font-variant:normal;font-weight:normal;font-stretch:normal;font-size:24.30798721px;line-height:1.25;font-family:'Blender Pro';-inkscape-font-specification:'Blender Pro';letter-spacing:0px;word-spacing:0px;fill:#ffffff;fill-opacity:1;stroke:none;stroke-width:0.60769951"
       id="text1564">
      <path
         id="path97"
         style="font-style:normal;font-variant:normal;font-weight:normal;font-stretch:normal;font-family:'Blender Pro';-inkscape-font-specification:'Blender Pro';fill:#ffffff;stroke-width:0.60769951"
         d="m 291.61973,284.36146 q 4.6527,1.32934 9.40035,3.60822 l -1.13944,2.18392 q -5.03251,-2.56374 -8.26091,-3.41831 v 9.87512 h -2.18392 v -18.99062 h 1.89906 q 1.13943,0.0949 0.28486,0.75963 z m -16.61679,-1.6142 q -1.80411,10.34988 -11.86913,14.81268 l -1.70916,-1.80411 q 9.3054,-3.79812 11.20446,-13.10353 h -7.59624 q -2.18392,3.60822 -4.55775,5.79214 l -1.89906,-1.23439 q 4.93756,-4.46279 6.36186,-10.44484 l 2.18392,0.75963 q 0.56971,0.28486 -0.18991,0.56972 -0.37981,1.23439 -1.04448,2.46878 h 6.83662 l 0.85458,-0.47477 1.70915,1.70916 q 0.66467,0.66467 -0.28486,0.94953 z m -30.38498,2.75364 v 7.50129 h 6.93158 v 1.80411 h -15.47736 v -1.80411 h 6.64672 v -7.50129 h -5.31737 v -1.80411 h 12.5338 v 1.80411 z m -14.62278,-0.28486 q -4.8426,7.78615 -15.00258,11.01455 -0.28486,1.13944 -0.94953,0.095 l -1.32935,-2.08897 q 10.34989,-2.27887 15.57231,-10.7297 z m -14.62277,2.56373 q -2.84859,-2.08897 -4.74765,-3.0385 l 1.42429,-1.99401 q 2.37383,1.23439 4.84261,3.0385 z m 2.84859,-5.60223 q -2.56373,-1.80411 -4.74765,-3.0385 l 1.23439,-1.99401 q 2.56373,1.42429 4.84261,3.03849 z m 7.88111,-6.45681 q 1.6142,1.23439 3.2284,2.94355 l -1.23439,1.23439 q -1.70915,-1.89907 -3.2284,-3.0385 z m -2.27888,1.6142 q 1.61421,1.32935 3.22841,3.0385 l -1.23439,1.13944 q -1.6142,-1.70916 -3.32336,-3.13345 z m -21.07958,16.8067 h -2.18392 v -1.04449 h -10.53979 v 1.51925 h -2.18392 v -14.81268 h 14.90763 z m -12.72371,-12.24895 v 9.1155 h 10.53979 v -9.1155 z m -10.25493,-2.46878 q 0.75962,0 1.23439,-0.47477 0.47476,-0.47476 0.47476,-1.23439 0,-0.75962 -0.47476,-1.23439 -0.47477,-0.47476 -1.23439,-0.47476 -0.75963,0 -1.23439,0.47476 -0.47477,0.47477 -0.47477,1.23439 0,0.75963 0.47477,1.23439 0.47476,0.47477 1.23439,0.47477 z m 0,0.94953 q -1.13944,0 -1.89906,-0.75962 -0.75963,-0.75963 -0.75963,-1.89907 0,-1.13943 0.75963,-1.89906 0.75962,-0.75962 1.89906,-0.75962 1.13943,0 1.89906,0.75962 0.75962,0.75963 0.75962,1.89906 0,1.13944 -0.75962,1.89907 -0.75963,0.75962 -1.89906,0.75962 z m -16.9966,1.23439 v -2.08897 h 14.05305 l 2.46878,1.80411 q -0.47476,11.48932 -13.00857,15.00259 l -1.70915,-2.08897 q 11.86913,-2.75364 12.43885,-12.62876 z"
         inkscape:connector-curvature="0" />
    </g>
    <path
       inkscape:connector-curvature="0"
       id="rect4610-5-4-5-4-96-4"
       style="opacity:0.98999999;fill:#ffffff;stroke:none;stroke-width:0.72678518;stroke-opacity:1"
       d="m 49.832769,260.92261 5.4599,-5.63159 v -22.78404 l -2.638856,-2.70111 c -4.362985,-2.7e-4 -5.675234,-1.4e-4 -8.167071,0 l -2.2816,2.33588 v 20.91533 z m -9.15109,8.9279 v -0.4063 l -5.7148,-5.72792 -13.275405,-0.0422 -6.135848,-6.44863 v -24.76458 l -2.638857,-2.70113 c -4.3629857,-2.8e-4 -5.6752337,-1.7e-4 -8.1670777,0 l -2.281588,2.33587 v 23.77076 l 13.5614887,13.98414 z m -33.3898787,-6.1601 -5.459888,5.63159 v 22.784 l 2.638847,2.70114 c 4.362985,2.7e-4 5.6752347,1.3e-4 8.1670717,0 l 2.281599,-2.33588 v -20.91532 z m 9.3334557,-8.74652 v 0.40631 l 6.291119,6.48664 h 13.275406 l 5.559529,5.73211 v 24.76456 l 2.638856,2.70114 c 4.36299,2.7e-4 5.675236,1.6e-4 8.167079,0 l 2.281597,-2.33587 V 268.92803 L 41.277343,254.94389 Z" />
    <g
       id="g1548"
       transform="translate(-657.71753,973.08698)">
      <g
         id="text855-3-6-1"
         style="font-style:normal;font-variant:normal;font-weight:normal;font-stretch:normal;font-size:52.14189529px;line-height:1.25;font-family:Prime;-inkscape-font-specification:Prime;letter-spacing:0px;word-spacing:0px;fill:#ffffff;fill-opacity:1;stroke:none;stroke-width:1.30354738"
         aria-label="HAKODATE"
         transform="matrix(0.8743187,0,0,0.8743187,261.70027,-76.107315)" />
    </g>
    <path
       id="path3252-0"
       style="opacity:1;fill:#ffffff;fill-opacity:1;stroke:none;stroke-width:0.03499706;stroke-linecap:round;stroke-linejoin:round;stroke-miterlimit:4;stroke-dasharray:none;stroke-opacity:1;paint-order:normal"
       d="m 233.87524,229.94202 c -1.64119,0 -3.05479,1.0484 -3.60185,2.55282 l -3.38584,9.64437 6.9758,-7.77524 0.005,0.006 c 0.1522,-0.31348 0.44664,-0.50695 0.78135,-0.50695 h 2.23397 l 5.92677,17.00465 h -14.67972 l 4.28811,-12.35067 -6.99803,7.80056 -6.27093,17.86196 h 3.73827 c 0.36471,0 0.72943,-0.2736 0.82063,-0.59273 l 3.05407,-8.79843 h 17.41496 l 3.05459,8.79843 c 0.0912,0.31913 0.41033,0.59273 0.82063,0.59273 h 3.73827 L 239.8468,230.26117 c -0.0912,-0.18234 -0.31879,-0.31884 -0.54674,-0.31884 z m -169.382825,5e-5 v 17.94051 l 4.28553,-4.77646 V 230.5348 c 1e-5,-0.31912 -0.27359,-0.59274 -0.59273,-0.59273 z m 21.2447,0 c -0.31912,0 -0.59273,0.27363 -0.59273,0.59273 v 14.54278 h -15.85329 l -4.79868,5.34851 v 13.75316 h 3.6928 c 0.31913,0 0.59273,-0.2736 0.59273,-0.59272 v -14.58826 h 16.36644 v 14.58826 c 0,0.31912 0.27361,0.59273 0.59273,0.59272 h 3.69228 v -34.23718 z m 21.789885,0 c -1.64119,0 -3.05479,1.04839 -3.60185,2.55281 l -3.38584,9.64437 6.9758,-7.77523 0.005,0.006 c 0.1522,-0.31348 0.44664,-0.50694 0.78135,-0.50694 h 2.23397 l 5.92677,17.00464 h -14.67973 l 4.28811,-12.35066 -6.998016,7.80056 -6.270928,17.86195 h 3.738269 c 0.364709,0 0.729429,-0.2736 0.820621,-0.59272 l 3.054074,-8.79844 h 17.41496 l 3.05459,8.79844 c 0.0912,0.31912 0.41033,0.59272 0.82062,0.59272 h 3.73827 l -11.94449,-33.91834 c -0.0912,-0.18235 -0.31878,-0.31884 -0.54673,-0.31884 z m 22.06893,0 c -0.31912,0 -0.59273,0.27361 -0.59273,0.59273 v 17.71054 l 4.28553,-4.77645 v -13.52682 z m 19.69441,0 c -0.3647,-1e-5 -0.63821,0.27361 -0.63821,0.59273 v 11.07787 c 0,1.91472 -1.55018,3.46491 -3.4649,3.46491 h -9.61905 c -0.95736,0 -1.82357,0.40998 -2.27945,0.95705 v -0.0227 l -4.28553,4.77697 v 13.39039 h 3.6928 c 0.31912,0 0.59274,-0.2736 0.59273,-0.59272 v -13.72216 c -10e-6,-0.45588 0.41021,-0.8661 0.8661,-0.8661 h 10.39419 l 6.47351,14.63373 c 0.13679,0.27351 0.54699,0.54724 0.8661,0.54725 h 4.10311 l -7.15719,-16.09307 c 2.46178,-1.27648 4.14858,-3.87508 4.14858,-6.83834 v -11.30577 z m 17.9126,-0.18242 c -4.28534,0 -7.74992,3.46458 -7.74992,7.74992 v 3.09645 l 5.0214,-5.59708 0.002,0.002 c 0.63402,-0.80915 1.61784,-1.33067 2.72645,-1.33067 h 10.30325 c 1.91472,0 3.46438,1.55019 3.46438,3.4649 v 19.83084 c 0,1.91473 -1.54966,3.46489 -3.46438,3.4649 h -10.30325 c -1.91472,1e-5 -3.46439,-1.55017 -3.46439,-3.4649 v -18.60353 l -4.28553,4.77697 v 13.46171 c 0,4.28533 3.46458,7.75043 7.74992,7.75043 h 10.30325 c 4.23973,-10e-6 7.74991,-3.4651 7.74991,-7.75043 V 237.5095 c -1e-4,-4.28534 -3.51028,-7.74992 -7.75001,-7.74992 z m 26.28418,0.18242 c -1.45884,0 -2.64427,1.18544 -2.64428,2.64428 v 28.94862 c 0,0.44062 0.10962,0.85552 0.30076,1.22112 l 3.98476,-4.44211 v -23.58512 c 0,-0.50149 0.36462,-0.8661 0.8661,-0.8661 h 12.12639 c 1.91472,0 3.46491,1.55017 3.46491,3.4649 v 19.466 c 0,1.91472 -1.55019,3.4649 -3.46491,3.4649 h -12.12639 c -0.10128,0 -0.19494,-0.0207 -0.28318,-0.0512 l -3.33933,3.72226 c 0.33925,0.15849 0.71642,0.2496 1.11517,0.24959 h 14.63373 c 4.28533,0 7.75043,-3.51069 7.75043,-7.75043 v -18.73684 c 0,-4.28533 -3.4651,-7.74991 -7.75043,-7.74991 z m 56.93503,0 c -0.31913,0 -0.59273,0.27362 -0.59273,0.59273 v 3.32796 h 10.21229 v 5.32474 l 4.24419,-4.73046 0.0408,0.0455 v -0.63975 h 9.756 c 0.31912,0 0.59273,-0.2736 0.59273,-0.59273 v -3.32796 z m 13.90457,7.01301 -4.28501,4.77593 v 22.44824 h 3.69229 c 0.36471,0 0.59272,-0.2736 0.59272,-0.59272 z m 21.61264,-7.01301 c -4.28533,0 -7.74992,3.46458 -7.74992,7.74991 v 10.51151 l 4.28501,-4.77594 v -6.1004 c 0,-1.91472 1.55018,-3.46439 3.46491,-3.46439 h 14.77067 c 0.31912,0 0.59273,-0.27359 0.59273,-0.59273 v -3.32796 z m -1.23093,15.13551 c -0.95737,10e-6 -1.7781,0.36451 -2.23398,0.91157 v -0.0186 l -4.28501,4.77593 v 5.68234 c 0,4.28532 3.46458,7.75043 7.74992,7.75043 h 15.3634 v -3.32796 c -10e-6,-0.31911 -0.2736,-0.59274 -0.59273,-0.59273 h -14.77067 c -1.91472,0 -3.46491,-1.55018 -3.46491,-3.4649 v -7.79539 h 16.63981 c 0.31913,0 0.59273,-0.27361 0.59273,-0.59273 v -3.32796 z"
       inkscape:connector-curvature="0" />
  </g>
</svg>
