<?xml version="1.0" encoding="UTF-8" standalone="no"?>
<!-- Created with Inkscape (http://www.inkscape.org/) -->

<svg
   xmlns:dc="http://purl.org/dc/elements/1.1/"
   xmlns:cc="http://creativecommons.org/ns#"
   xmlns:rdf="http://www.w3.org/1999/02/22-rdf-syntax-ns#"
   xmlns:svg="http://www.w3.org/2000/svg"
   xmlns="http://www.w3.org/2000/svg"
   xmlns:sodipodi="http://sodipodi.sourceforge.net/DTD/sodipodi-0.dtd"
   xmlns:inkscape="http://www.inkscape.org/namespaces/inkscape"
   width="310mm"
   height="160mm"
   viewBox="0 0 310 160"
   version="1.1"
   id="svg2150"
   inkscape:version="0.92.3 (2405546, 2018-03-11)"
   sodipodi:docname="hakodate-logo.svg">
  <defs
     id="defs2144" />
  <sodipodi:namedview
     id="base"
     pagecolor="#ffffff"
     bordercolor="#666666"
     borderopacity="1.0"
     inkscape:pageopacity="0.0"
     inkscape:pageshadow="2"
     inkscape:zoom="0.37705599"
     inkscape:cx="302.95221"
     inkscape:cy="-6.2735934"
     inkscape:document-units="mm"
     inkscape:current-layer="layer1"
     showgrid="false"
     inkscape:window-width="1366"
     inkscape:window-height="705"
     inkscape:window-x="-8"
     inkscape:window-y="-8"
     inkscape:window-maximized="1"
     showguides="true"
     inkscape:guide-bbox="true"
     width="310mm" />
  <metadata
     id="metadata2147">
    <rdf:RDF>
      <cc:Work
         rdf:about="">
        <dc:format>image/svg+xml</dc:format>
        <dc:type
           rdf:resource="http://purl.org/dc/dcmitype/StillImage" />
        <dc:title></dc:title>
      </cc:Work>
    </rdf:RDF>
  </metadata>
  <g
     inkscape:label="Layer 1"
     inkscape:groupmode="layer"
     id="layer1"
     transform="translate(0,-137)">
    <g
       id="g84"
       transform="translate(-28.604879,-5.7043444)">
      <g
         id="text1564-9-6-9-8-2"
         style="font-style:normal;font-variant:normal;font-weight:normal;font-stretch:normal;font-size:25.9512043px;line-height:1.25;font-family:'Blender Pro';-inkscape-font-specification:'Blender Pro';letter-spacing:0px;word-spacing:0px;fill:#ffffff;fill-opacity:1;stroke:none;stroke-width:0.64878005"
         aria-label="p  r  o  j  e  c  t">
        <path
           inkscape:connector-curvature="0"
           d="m 301.04524,282.12866 v -1.89444 h -3.42556 v -4.38575 h -2.02419 v 4.38575 h -1.84254 v 1.89444 h 1.84254 v 5.99473 c 0,0.54497 0.12975,1.064 0.44117,1.50517 0.20761,0.28546 0.85639,0.98614 1.24565,1.27161 0.46713,0.33736 1.14186,0.51902 1.76469,0.51902 h 1.84253 v -1.89444 h -1.81658 c -0.15571,0 -0.31142,-0.0519 -0.36332,-0.0778 -0.36332,-0.18166 -0.85639,-0.67473 -1.03805,-1.03805 -0.026,-0.0519 -0.0519,-0.15571 -0.0519,-0.33737 v -5.94282 z m -21.23864,6.74731 -1.89443,-0.62283 c -0.28547,0.51903 -0.72664,1.064 -1.21971,1.32351 -0.0778,0.026 -0.15571,0.0779 -0.31142,0.0779 h -2.67297 c -0.15571,0 -0.20761,-0.026 -0.31141,-0.0779 -0.36332,-0.18165 -0.9083,-0.67473 -1.08995,-1.03804 -0.026,-0.0519 -0.0519,-0.12976 -0.0519,-0.28547 v -4.85287 c 0,-0.15571 0,-0.18166 0.0519,-0.28547 0.18165,-0.36331 0.72663,-0.85639 1.08995,-1.03804 0.1038,-0.0519 0.1557,-0.0779 0.31141,-0.0779 h 2.59512 c 0.62283,0 1.27161,0.85639 1.55707,1.40137 l 1.89444,-0.59688 c -0.31141,-0.75259 -1.14185,-1.76468 -1.73873,-2.1799 -0.46712,-0.33737 -1.14185,-0.51903 -1.76468,-0.51903 h -2.56917 c -0.62283,0 -1.32351,0.18166 -1.79063,0.51903 -0.38927,0.28546 -1.03805,0.96019 -1.24566,1.24566 -0.31142,0.44117 -0.41522,0.96019 -0.41522,1.47921 v 4.95668 c 0,0.51903 0.1038,1.03805 0.41522,1.47922 0.20761,0.28547 0.85639,0.9602 1.24566,1.24566 0.46712,0.33737 1.1678,0.51903 1.79063,0.51903 h 2.64702 c 0.62283,0 1.29756,-0.18166 1.76468,-0.51903 0.38927,-0.28546 1.0121,-0.96019 1.21971,-1.24566 0.12976,-0.18165 0.31141,-0.46712 0.49307,-0.90829 z m -24.63458,0 -1.89444,-0.62283 -0.1557,0.28547 c -0.18166,0.33736 -0.70069,0.85639 -1.064,1.03804 -0.10381,0.0519 -0.15571,0.0779 -0.31142,0.0779 h -2.62107 c -0.12976,0 -0.23356,-0.026 -0.33737,-0.0779 -0.44117,-0.20761 -0.90829,-0.75258 -1.06399,-1.03804 -0.026,-0.0519 -0.0519,-0.12976 -0.0519,-0.28547 v -1.55707 h 7.4999 v -3.34771 c 0,-0.51902 -0.1038,-1.03804 -0.41522,-1.47921 -0.20761,-0.28547 -0.85639,-0.9602 -1.24566,-1.24566 -0.46712,-0.33737 -1.1678,-0.51903 -1.79063,-0.51903 h -2.59512 c -0.62283,0 -1.32351,0.18166 -1.79063,0.51903 -0.38927,0.28546 -1.03805,0.96019 -1.24566,1.24566 -0.31141,0.41522 -0.44117,0.93424 -0.44117,1.47921 v 4.95668 c 0,0.54498 0.12976,1.064 0.44117,1.47922 0.20761,0.28547 0.85639,0.9602 1.24566,1.24566 0.46712,0.33737 1.1678,0.51903 1.79063,0.51903 h 2.56917 c 0.62283,0 1.29756,-0.18166 1.76468,-0.51903 0.64878,-0.44117 1.37542,-1.37541 1.71278,-2.15395 z m -2.02419,-4.02244 h -5.47571 v -1.45326 c 0,-0.15571 0.0259,-0.25951 0.0519,-0.28547 0.18165,-0.38926 0.57092,-0.75258 1.08995,-1.03804 0.0779,-0.0519 0.23356,-0.0779 0.31141,-0.0779 h 2.56917 c 0.15571,0 0.20761,0.026 0.31141,0.0779 0.36332,0.18165 0.93425,0.67473 1.11591,1.03804 0.0259,0.0519 0.0259,0.23356 0.0259,0.28547 z m -22.79692,7.73346 v -12.35277 h -2.0242 v 12.27492 c 0,0.15571 -0.0259,0.23356 -0.0519,0.28546 -0.20761,0.38927 -0.70068,0.93425 -1.064,1.14186 -0.0779,0.0519 -0.38927,0.0519 -1.99824,0.0779 v 1.86849 h 1.42731 c 0.59688,0 1.53113,-0.18166 2.0242,-0.51903 0.38927,-0.28546 1.03805,-0.98614 1.24566,-1.27161 0.31141,-0.44117 0.44117,-0.96019 0.44117,-1.50517 z m 0.1557,-14.66243 v -2.30965 h -2.3356 v 2.30965 z m -17.88605,10.38048 v -4.95668 c 0,-0.51902 -0.1038,-1.03804 -0.41522,-1.47921 -0.20761,-0.28547 -0.85639,-0.9602 -1.24566,-1.24566 -0.46712,-0.33737 -1.1678,-0.51903 -1.79063,-0.51903 h -2.59512 c -0.62283,0 -1.32351,0.18166 -1.79063,0.51903 -0.38927,0.28546 -1.03805,0.96019 -1.24566,1.24566 -0.31141,0.44117 -0.41522,0.96019 -0.41522,1.47921 v 4.95668 c 0,0.51903 0.10381,1.03805 0.41522,1.47922 0.20761,0.28547 0.85639,0.9602 1.24566,1.24566 0.46712,0.33737 1.1678,0.51903 1.79063,0.51903 h 2.59512 c 0.62283,0 1.32351,-0.18166 1.79063,-0.51903 0.38927,-0.28546 1.03805,-0.96019 1.24566,-1.24566 0.31142,-0.44117 0.41522,-0.96019 0.41522,-1.47922 z m -2.0761,0.28547 c -0.1557,0.28546 -0.80448,0.83044 -1.08995,0.98614 -0.1038,0.0519 -0.1557,0.0779 -0.31141,0.0779 h -2.51727 c -0.1557,0 -0.20761,-0.026 -0.31141,-0.0779 -0.36332,-0.18165 -0.93424,-0.67473 -1.1159,-1.03804 -0.0259,-0.0519 -0.0519,-0.12976 -0.0519,-0.28547 v -4.85287 c 0,-0.15571 0.026,-0.23356 0.0519,-0.28547 0.20761,-0.36331 0.75258,-0.85639 1.1159,-1.03804 0.0519,-0.026 0.15571,-0.0779 0.31141,-0.0779 h 2.51727 c 0.15571,0 0.28546,0.0519 0.36332,0.10381 0.38926,0.23356 0.77853,0.59687 1.01209,0.93424 0.0519,0.0779 0.0779,0.18166 0.0779,0.36332 v 4.85287 c 0,0.0779 0,0.23356 -0.0519,0.33737 z m -21.19848,-5.78712 c -0.31142,-0.75259 -1.14185,-1.79063 -1.73873,-2.20585 -0.46712,-0.33737 -1.14186,-0.49308 -1.76468,-0.49308 h -1.42732 c -0.75259,0 -1.53112,0.54498 -2.05015,1.03805 l -0.12975,-0.90829 h -1.99824 l 0.18165,2.0761 v 9.10887 h 2.0242 v -8.01892 c 0.25951,-0.38927 1.50517,-1.40137 2.05014,-1.40137 h 1.40137 c 0.62283,0 1.24566,0.83044 1.53112,1.37542 z m -24.26519,5.44975 v -4.85287 c 0,-0.54498 -0.12975,-1.064 -0.44117,-1.50517 -0.20761,-0.28547 -0.85639,-0.9602 -1.24566,-1.24566 -0.46712,-0.33737 -1.14185,-0.54498 -1.76468,-0.54498 h -2.02419 c -0.77854,0 -1.55707,0.59688 -2.0761,1.08995 l -0.1038,-0.96019 h -2.0242 l 0.18166,2.0761 v 13.59843 h 2.02419 v -5.34595 c 0.51903,0.46712 1.27161,0.98615 1.99825,0.98615 h 2.02419 c 0.62283,0 1.29756,-0.18166 1.76468,-0.51903 0.38927,-0.28546 1.03805,-0.98614 1.24566,-1.27161 0.31142,-0.41522 0.44117,-0.96019 0.44117,-1.50517 z m -2.02419,-0.0519 c 0,0.15571 -0.0259,0.23356 -0.0519,0.28546 -0.18166,0.36332 -0.72664,0.9083 -1.08996,1.11591 -0.0778,0.0259 -0.1557,0.0519 -0.31141,0.0519 h -1.92039 c -0.54497,0 -1.81658,-1.08995 -2.0761,-1.47922 v -4.72312 c 0.25952,-0.36332 1.55708,-1.45327 2.0761,-1.45327 h 1.92039 c 0.15571,0 0.23356,0.0519 0.31141,0.0779 0.36332,0.20761 0.88235,0.72663 1.08996,1.08995 0.0259,0.0259 0.0519,0.12975 0.0519,0.28546 z"
           style="font-style:normal;font-variant:normal;font-weight:normal;font-stretch:normal;font-family:'Blender Pro';-inkscape-font-specification:'Blender Pro';fill:#ffffff;stroke-width:0.64878005"
           id="path82" />
      </g>
      <path
         inkscape:connector-curvature="0"
         d="m 66.164517,229.61783 v 17.45607 17.45607 h 1.61037 1.60985 v -8.16776 -8.16726 h 10.14392 10.14391 v 8.16726 8.16776 h 1.60984 1.61036 v -17.45607 -2.11063 h -3.2202 v 0.0287 h -10.14391 -10.14392 v -7.6871 -7.6871 h -1.60985 z m 23.50805,0 v 7.6871 5.89332 h 3.2202 v -13.58042 h -1.61036 z m 11.703143,0.16022 -1.576293,0.96955 c -0.97659,0.60055 -1.94728,1.56531 -2.55107,2.53635 l -0.97428,1.56782 -0.0522,8.34648 h 3.07255 l 0.0388,-1.61968 c 0,-5.41756 0.26168,-6.55865 1.775583,-7.74308 0.85259,-0.66704 1.18212,-0.6943 8.36833,-0.6943 7.18622,0 7.51525,0.0272 8.36781,0.6943 1.72369,1.3486 1.77559,1.78146 1.77559,14.82985 0,6.61171 -0.10942,12.02083 -0.2437,12.02083 -0.13428,0 -2.92417,-2.80265 -6.19932,-6.22815 -3.27513,-3.42552 -6.61031,-8.14035 -7.31454,-8.53597 -0.95111,-0.5343 -1.96553,-0.75529 -3.9446,-0.85864 l -1.924283,-0.10014 h -3.78351 l -0.0294,4.7276 -0.0924,14.8391 h 1.62224 1.62224 v -7.36665 l -0.0795,-8.95553 h 1.781773 c 0.96357,-0.17667 2.24759,0.19394 2.81751,0.43085 0.58805,0.24445 3.95095,4.9154 7.6713,8.7152 3.60565,3.68271 6.86598,6.87078 7.24537,7.08473 1.13176,0.63828 2.1319,0.46827 3.13966,-0.53408 l 0.95105,-0.94644 -0.0903,-14.05289 -0.0903,-14.05339 -0.97427,-1.56782 c -0.60381,-0.97111 -1.57446,-1.93578 -2.55107,-2.53635 l -1.5763,-0.96955 h -8.1014 z m 24.68523,-0.16022 v 17.45607 17.45607 h 1.61037 1.60985 v -8.16776 -8.16726 h 1.91137 c 1.05115,0 2.31891,0.15384 2.81749,0.34201 0.49861,0.18815 4.4663,3.86381 8.81701,8.16778 7.80451,7.72065 7.92869,7.82523 9.25844,7.82523 h 1.34756 v -1.6017 c 0,-1.44897 -0.069,-1.60121 -0.72695,-1.60121 -0.5193,0 -2.84304,-2.1061 -8.12825,-7.36666 l -7.40128,-7.36665 6.75692,-6.72628 c 4.80812,-4.78636 6.96627,-6.72628 7.48389,-6.72628 0.20803,0 2.19365,-0.003 4.78051,-0.0514 l 3.07358,-3.4073 -8.47933,-0.0647 c -1.33422,0 -1.45538,0.1014 -8.77519,7.34919 -4.08222,4.0421 -7.82997,7.50133 -8.32856,7.68711 -0.4986,0.18578 -1.69434,0.3379 -2.65693,0.3379 h -1.75028 v -7.6871 -7.6871 h -1.60985 z m 35.34803,0.0811 -4.47537,4.96177 -0.11926,0.19155 v 12.19645 12.19645 l 0.88702,1.50055 c 0.96472,1.63232 2.25153,2.69246 4.06747,3.35081 v -5.3e-4 c 0.8643,0.31336 3.11997,0.40333 8.75814,0.34817 l 7.59387,-0.0744 1.57526,-0.96955 c 0.97535,-0.6002 1.9461,-1.56608 2.54953,-2.53687 l 0.97479,-1.56782 v -12.22164 -12.22162 l -0.97479,-1.56782 c -0.60409,-0.97182 -1.57402,-1.93603 -2.55108,-2.53686 l -1.57629,-0.96955 h -7.44672 v -0.008 z m 1.09044,3.44222 h 7.51797 7.51797 l 0.94898,0.79444 c 1.67309,1.4002 1.70858,1.70279 1.6083,13.70932 l -0.0924,11.10981 -1.2123,1.20578 -1.21229,1.20629 -6.99959,0.0889 c -7.7221,0.098 -8.46964,-0.05 -9.8744,-1.95349 -0.6377,-0.86412 -0.67162,-1.36959 -0.76724,-11.5304 -0.0654,-6.95184 0.0201,-11.03433 0.24732,-11.80462 0.19106,-0.64763 0.79087,-1.54837 1.33259,-2.00176 z m 24.42398,-3.55515 v 17.48431 17.48433 l 10.73353,-0.0924 10.73303,-0.0924 1.57576,-0.96955 c 0.97597,-0.60043 1.94639,-1.56571 2.55005,-2.53686 l 0.97479,-1.56783 v -6.61843 l -3.19904,3.54647 -0.0212,2.53121 -1.21229,1.20578 -1.21281,1.20629 -8.85057,0.0945 -8.85108,0.0945 v -14.10735 -14.10731 h 8.83095 8.83094 l 0.94897,0.79443 c 1.67308,1.40021 1.70912,1.7028 1.60881,13.70933 l -0.0516,6.17013 3.17891,-3.5244 v -3.21678 -12.22161 l -0.97479,-1.56782 c -0.6036,-0.9711 -1.57419,-1.93649 -2.55005,-2.53687 l -1.57526,-0.96955 -10.73354,-0.096 z m 35.71512,0.19206 -1.57629,0.96955 c -0.97661,0.60055 -1.94729,1.56531 -2.55108,2.53635 l -0.97479,1.56782 -0.0686,11.0297 3.10818,-3.44581 0.0202,-0.85709 c 0,-5.41757 0.26116,-6.55865 1.77507,-7.74308 0.85257,-0.66704 1.1821,-0.6943 8.36832,-0.6943 7.1862,0 7.51578,0.0272 8.36834,0.6943 1.72368,1.3486 1.77558,1.78146 1.77558,14.82985 0,6.61171 -0.10993,12.02083 -0.24422,12.02083 -0.13427,0 -2.92365,-2.80265 -6.19879,-6.22815 -3.27513,-3.42552 -6.61031,-8.14034 -7.31455,-8.53597 -0.9511,-0.53429 -1.96604,-0.75531 -3.94511,-0.85864 l -2.66415,-0.13865 0.001,-0.0375 -3.06481,3.39755 -0.009,1.40605 -0.0929,14.8391 h 1.62225 1.62224 v -7.36665 l -0.079,-8.95553 h 1.78127 c 0.96358,-0.17669 2.2481,0.19396 2.81801,0.43085 0.58806,0.24445 3.95094,4.9154 7.67132,8.7152 3.60562,3.68269 6.86597,6.87078 7.24535,7.08473 1.13175,0.63828 2.1319,0.46827 3.13967,-0.53408 l 0.95104,-0.94644 -0.0903,-14.05289 -0.0903,-14.05339 -0.9748,-1.56782 c -0.60382,-0.97111 -1.57394,-1.93577 -2.55056,-2.53635 l -1.57681,-0.96955 h -8.10088 z m 78.31626,-0.19514 -9.62348,0.0976 -9.62401,0.0976 -1.57525,0.96955 c -0.85767,0.52771 -1.71114,1.33778 -2.31513,2.18561 h 22.94425 l 0.0955,-1.65153 z m -54.45662,0.0349 v 1.76194 1.55344 h 26.89143 l 0.0945,-1.63356 0.0976,-1.68182 h -13.54174 z m 11.59267,4.97358 v 14.24391 15.69465 h 1.77096 1.77144 v -15.68697 -14.25162 z m 18.67849,0 -0.16211,0.26088 v 12.19645 12.19645 l 0.88702,1.50055 c 0.96779,1.63747 2.26136,2.7001 4.06746,3.34208 0.84305,0.29964 3.67311,0.41764 10.26115,0.42777 l 9.09683,0.0139 v -1.60121 -1.60171 h -8.77467 c -9.65086,-5.3e-4 -10.23083,-0.101 -11.6505,-2.02333 -0.5964,-0.80753 -0.678,-1.44312 -0.76981,-6.00579 l -0.10274,-5.10248 h 10.64885 10.64887 v -1.6012 -1.60172 h -10.62667 -10.62668 v -4.174 c 0,-3.65475 0.20006,-5.16294 0.99338,-6.22661 z"
         style="fill:#ffffff;stroke-width:0.32115752"
         id="path5512-9-1" />
    </g>
    <path
       inkscape:connector-curvature="0"
       id="rect4610-5-4-5-4-96-4-7"
       style="opacity:0.98999999;fill:#ffffff;stroke:none;stroke-width:0.72678518;stroke-opacity:1"
       d="m 176.27048,176.01697 5.4599,-5.63159 v -22.78404 l -2.63886,-2.70111 c -4.36298,-2.7e-4 -5.67523,-1.4e-4 -8.16707,0 l -2.2816,2.33588 v 20.91533 z m -9.15109,8.9279 v -0.4063 l -5.7148,-5.72792 -13.27541,-0.0422 -6.13584,-6.44863 v -24.76458 l -2.63886,-2.70113 c -4.36299,-2.8e-4 -5.67524,-1.7e-4 -8.16708,0 l -2.28159,2.33587 v 23.77076 l 13.56149,13.98414 z m -33.38988,-6.1601 -5.45989,5.63159 v 22.784 l 2.63885,2.70114 c 4.36298,2.7e-4 5.67523,1.3e-4 8.16707,0 l 2.2816,-2.33588 V 186.6503 Z m 9.33346,-8.74652 v 0.40631 l 6.29111,6.48664 h 13.27541 l 5.55953,5.73211 v 24.76456 l 2.63885,2.70114 c 4.36299,2.7e-4 5.67524,1.6e-4 8.16708,0 l 2.2816,-2.33587 v -23.77075 l -13.5615,-13.98414 z" />
  </g>
</svg>
