<?xml version="1.0" encoding="UTF-8" standalone="no"?>
<!-- Created with Inkscape (http://www.inkscape.org/) -->

<svg
   xmlns:dc="http://purl.org/dc/elements/1.1/"
   xmlns:cc="http://creativecommons.org/ns#"
   xmlns:rdf="http://www.w3.org/1999/02/22-rdf-syntax-ns#"
   xmlns:svg="http://www.w3.org/2000/svg"
   xmlns="http://www.w3.org/2000/svg"
   xmlns:sodipodi="http://sodipodi.sourceforge.net/DTD/sodipodi-0.dtd"
   xmlns:inkscape="http://www.inkscape.org/namespaces/inkscape"
   width="302mm"
   height="70mm"
   viewBox="0 0 302 70"
   version="1.1"
   id="svg2150"
   inkscape:version="0.92.3 (2405546, 2018-03-11)"
   sodipodi:docname="hakodate-logo-katakana.svg">
  <defs
     id="defs2144" />
  <sodipodi:namedview
     id="base"
     pagecolor="#ffffff"
     bordercolor="#666666"
     borderopacity="1.0"
     inkscape:pageopacity="0.0"
     inkscape:pageshadow="2"
     inkscape:zoom="0.26661884"
     inkscape:cx="-42.117496"
     inkscape:cy="-183.54115"
     inkscape:document-units="mm"
     inkscape:current-layer="layer1"
     showgrid="false"
     inkscape:window-width="1366"
     inkscape:window-height="705"
     inkscape:window-x="-8"
     inkscape:window-y="-8"
     inkscape:window-maximized="1"
     showguides="true"
     inkscape:guide-bbox="true" />
  <metadata
     id="metadata2147">
    <rdf:RDF>
      <cc:Work
         rdf:about="">
        <dc:format>image/svg+xml</dc:format>
        <dc:type
           rdf:resource="http://purl.org/dc/dcmitype/StillImage" />
        <dc:title />
      </cc:Work>
    </rdf:RDF>
  </metadata>
  <g
     inkscape:label="Layer 1"
     inkscape:groupmode="layer"
     id="layer1"
     transform="translate(0,-227)">
    <g
       aria-label="プロジェクト"
       transform="scale(1.002697,0.99731026)"
       style="font-style:normal;font-variant:normal;font-weight:normal;font-stretch:normal;font-size:24.30798721px;line-height:1.25;font-family:'Blender Pro';-inkscape-font-specification:'Blender Pro';letter-spacing:0px;word-spacing:0px;fill:#ffffff;fill-opacity:1;stroke:none;stroke-width:0.60769951"
       id="text1564">
      <path
         id="path120"
         style="font-style:normal;font-variant:normal;font-weight:normal;font-stretch:normal;font-family:'Blender Pro';-inkscape-font-specification:'Blender Pro';fill:#ffffff;stroke-width:0.60769951"
         d="m 290.79004,283.09849 q 4.65271,1.32934 9.40036,3.60822 l -1.13944,2.18392 q -5.03251,-2.56374 -8.26092,-3.41831 v 9.87512 h -2.18392 v -18.99062 h 1.89907 q 1.13943,0.0949 0.28485,0.75963 z m -16.61678,-1.6142 q -1.80411,10.34988 -11.86913,14.81268 l -1.70916,-1.80411 q 9.3054,-3.79812 11.20446,-13.10353 h -7.59624 q -2.18392,3.60822 -4.55775,5.79214 l -1.89906,-1.23439 q 4.93756,-4.46279 6.36185,-10.44484 l 2.18393,0.75963 q 0.56971,0.28486 -0.18991,0.56972 -0.37981,1.23439 -1.04448,2.46878 h 6.83662 l 0.85457,-0.47477 1.70916,1.70916 q 0.66467,0.66467 -0.28486,0.94953 z m -30.38498,2.75364 v 7.50129 h 6.93157 v 1.80411 H 235.2425 v -1.80411 h 6.64672 v -7.50129 h -5.31737 v -1.80411 h 12.5338 v 1.80411 z m -14.62278,-0.28486 q -4.8426,7.78615 -15.00258,11.01455 -0.28486,1.13944 -0.94953,0.095 l -1.32935,-2.08897 q 10.34989,-2.27887 15.57231,-10.7297 z m -14.62277,2.56373 q -2.84859,-2.08897 -4.74765,-3.0385 l 1.42429,-1.99401 q 2.37383,1.23439 4.84261,3.0385 z m 2.84859,-5.60223 q -2.56373,-1.80411 -4.74765,-3.0385 l 1.23439,-1.99401 q 2.56373,1.42429 4.8426,3.03849 z m 7.88111,-6.45681 q 1.6142,1.23439 3.2284,2.94355 l -1.23439,1.23439 q -1.70915,-1.89907 -3.2284,-3.0385 z m -2.27888,1.6142 q 1.61421,1.32935 3.22841,3.0385 l -1.23439,1.13944 q -1.6142,-1.70916 -3.32336,-3.13345 z m -21.07958,16.8067 h -2.18392 v -1.04449 h -10.53979 v 1.51925 h -2.18392 v -14.81268 h 14.90763 z m -12.72371,-12.24895 v 9.1155 h 10.53979 v -9.1155 z m -10.25493,-2.46878 q 0.75962,0 1.23439,-0.47477 0.47476,-0.47476 0.47476,-1.23439 0,-0.75962 -0.47476,-1.23439 -0.47477,-0.47476 -1.23439,-0.47476 -0.75963,0 -1.23439,0.47476 -0.47477,0.47477 -0.47477,1.23439 0,0.75963 0.47477,1.23439 0.47476,0.47477 1.23439,0.47477 z m 0,0.94953 q -1.13944,0 -1.89907,-0.75962 -0.75962,-0.75963 -0.75962,-1.89907 0,-1.13943 0.75962,-1.89906 0.75963,-0.75962 1.89907,-0.75962 1.13943,0 1.89906,0.75962 0.75962,0.75963 0.75962,1.89906 0,1.13944 -0.75962,1.89907 -0.75963,0.75962 -1.89906,0.75962 z m -16.9966,1.23439 v -2.08897 h 14.05305 l 2.46878,1.80411 q -0.47476,11.48932 -13.00857,15.00259 l -1.70916,-2.08897 q 11.86914,-2.75364 12.43886,-12.62876 z" />
    </g>
    <path
       id="path5512-9"
       style="fill:#ffffff;stroke-width:0.32115752"
       d="m 66.209751,230.02656 v 17.45607 17.45607 h 1.610368 1.609849 v -8.16776 -8.16726 H 79.573889 89.7178 v 8.16726 8.16776 h 1.609839 1.61036 V 247.48263 245.372 H 89.7178 v 0.0287 H 79.573889 69.429968 v -7.6871 -7.6871 h -1.609849 z m 23.508049,0 v 7.6871 5.89332 h 3.220199 v -13.58042 h -1.61036 z m 11.70314,0.16022 -1.57629,0.96955 c -0.97659,0.60055 -1.94728,1.56531 -2.55107,2.53635 l -0.97428,1.56782 -0.0522,8.34648 h 3.072548 l 0.0388,-1.61968 c 0,-5.41756 0.261681,-6.55865 1.775582,-7.74308 0.85259,-0.66704 1.18212,-0.6943 8.36833,-0.6943 7.18622,0 7.51525,0.0272 8.36781,0.6943 1.72369,1.3486 1.77559,1.78146 1.77559,14.82985 0,6.61171 -0.10942,12.02083 -0.2437,12.02083 -0.13428,0 -2.92417,-2.80265 -6.19932,-6.22815 -3.27513,-3.42552 -6.61031,-8.14035 -7.31454,-8.53597 -0.95111,-0.5343 -1.96553,-0.75529 -3.9446,-0.85864 l -1.92428,-0.10014 h -3.78351 l -0.0294,4.7276 -0.0924,14.8391 h 1.62224 1.62224 v -7.36665 l -0.0795,-8.95553 h 1.78177 c 0.96357,-0.17667 2.24759,0.19394 2.81751,0.43085 0.58805,0.24445 3.95095,4.9154 7.6713,8.7152 3.60565,3.68271 6.86598,6.87078 7.24537,7.08473 1.13176,0.63828 2.1319,0.46827 3.13966,-0.53408 l 0.95105,-0.94644 -0.0903,-14.05289 -0.0903,-14.05339 -0.97427,-1.56782 c -0.60381,-0.97111 -1.57446,-1.93578 -2.55107,-2.53635 l -1.5763,-0.96955 h -8.1014 z m 24.68524,-0.16022 v 17.45607 17.45607 h 1.61037 1.60985 v -8.16776 -8.16726 h 1.91137 c 1.05115,0 2.31891,0.15384 2.81749,0.34201 0.49861,0.18815 4.46629,3.86381 8.817,8.16778 7.80451,7.72065 7.92869,7.82523 9.25844,7.82523 h 1.34756 v -1.6017 c 0,-1.44897 -0.069,-1.60121 -0.72695,-1.60121 -0.5193,0 -2.84304,-2.1061 -8.12825,-7.36666 l -7.40128,-7.36665 6.75692,-6.72628 c 4.80812,-4.78636 6.96627,-6.72628 7.48389,-6.72628 0.20803,0 2.19365,-0.003 4.78051,-0.0514 l 3.07358,-3.4073 -8.47933,-0.0647 c -1.33422,0 -1.45538,0.1014 -8.77519,7.34919 -4.08222,4.0421 -7.82996,7.50133 -8.32855,7.68711 -0.4986,0.18578 -1.69434,0.3379 -2.65693,0.3379 h -1.75028 v -7.6871 -7.6871 h -1.60985 z m 35.34802,0.0811 -4.47537,4.96177 -0.11926,0.19155 v 12.19645 12.19645 l 0.88702,1.50055 c 0.96472,1.63232 2.25153,2.69246 4.06747,3.35081 v -5.3e-4 c 0.8643,0.31336 3.11997,0.40333 8.75814,0.34817 l 7.59387,-0.0744 1.57526,-0.96955 c 0.97535,-0.6002 1.9461,-1.56608 2.54953,-2.53687 l 0.97479,-1.56782 V 247.4826 235.26098 l -0.97479,-1.56782 c -0.60409,-0.97182 -1.57402,-1.93603 -2.55108,-2.53686 l -1.57629,-0.96955 h -7.44672 v -0.008 z m 1.09044,3.44222 h 7.51797 7.51797 l 0.94898,0.79444 c 1.67309,1.4002 1.70858,1.70279 1.6083,13.70932 l -0.0924,11.10981 -1.2123,1.20578 -1.21229,1.20629 -6.99959,0.0889 c -7.7221,0.098 -8.46964,-0.05 -9.8744,-1.95349 -0.6377,-0.86412 -0.67162,-1.36959 -0.76724,-11.5304 -0.0654,-6.95184 0.0201,-11.03433 0.24732,-11.80462 0.19106,-0.64763 0.79087,-1.54837 1.33259,-2.00176 z m 24.42398,-3.55515 v 17.48431 17.48433 l 10.73353,-0.0924 10.73303,-0.0924 1.57576,-0.96955 c 0.97597,-0.60043 1.94639,-1.56571 2.55005,-2.53686 l 0.97479,-1.56783 v -6.61843 l -3.19904,3.54647 -0.0212,2.53121 -1.21229,1.20578 -1.21281,1.20629 -8.85057,0.0945 -8.85108,0.0945 V 247.6573 233.54999 h 8.83095 8.83094 l 0.94897,0.79443 c 1.67308,1.40021 1.70912,1.7028 1.60881,13.70933 l -0.0516,6.17013 3.17891,-3.5244 v -3.21678 -12.22161 l -0.97479,-1.56782 c -0.6036,-0.9711 -1.57419,-1.93649 -2.55005,-2.53687 l -1.57526,-0.96955 -10.73354,-0.096 z m 35.71512,0.19206 -1.57629,0.96955 c -0.97661,0.60055 -1.94729,1.56531 -2.55108,2.53635 l -0.97479,1.56782 -0.0686,11.0297 3.10818,-3.44581 0.0202,-0.85709 c 0,-5.41757 0.26116,-6.55865 1.77507,-7.74308 0.85257,-0.66704 1.1821,-0.6943 8.36832,-0.6943 7.1862,0 7.51578,0.0272 8.36834,0.6943 1.72368,1.3486 1.77558,1.78146 1.77558,14.82985 0,6.61171 -0.10993,12.02083 -0.24422,12.02083 -0.13427,0 -2.92365,-2.80265 -6.19879,-6.22815 -3.27513,-3.42552 -6.61031,-8.14034 -7.31455,-8.53597 -0.9511,-0.53429 -1.96604,-0.75531 -3.94511,-0.85864 l -2.66415,-0.13865 0.001,-0.0375 -3.06481,3.39755 -0.009,1.40605 -0.0929,14.8391 h 1.62225 1.62224 v -7.36665 l -0.079,-8.95553 h 1.78127 c 0.96358,-0.17669 2.2481,0.19396 2.81801,0.43085 0.58806,0.24445 3.95094,4.9154 7.67132,8.7152 3.60562,3.68269 6.86597,6.87078 7.24535,7.08473 1.13175,0.63828 2.1319,0.46827 3.13967,-0.53408 l 0.95104,-0.94644 -0.0903,-14.05289 -0.0903,-14.05339 -0.9748,-1.56782 c -0.60382,-0.97111 -1.57394,-1.93577 -2.55056,-2.53635 l -1.57681,-0.96955 h -8.10088 z M 301,229.99165 l -9.62348,0.0976 -9.62401,0.0976 -1.57525,0.96955 c -0.85767,0.52771 -1.71114,1.33778 -2.31513,2.18561 h 22.94425 l 0.0955,-1.65153 z m -54.45662,0.0349 v 1.76194 1.55344 h 26.89143 l 0.0945,-1.63356 0.0976,-1.68182 h -13.54174 z m 11.59267,4.97358 v 14.24391 15.69465 h 1.77096 1.77144 V 249.25172 235.0001 Z m 18.67849,0 -0.16211,0.26088 v 12.19645 12.19645 l 0.88702,1.50055 c 0.96779,1.63747 2.26136,2.7001 4.06746,3.34208 0.84305,0.29964 3.67311,0.41764 10.26115,0.42777 l 9.09683,0.0139 v -1.60121 -1.60171 h -8.77467 c -9.65086,-5.3e-4 -10.23083,-0.101 -11.6505,-2.02333 -0.5964,-0.80753 -0.678,-1.44312 -0.76981,-6.00579 l -0.10274,-5.10248 h 10.64885 10.64887 v -1.6012 -1.60172 h -10.62667 -10.62668 v -4.174 c 0,-3.65475 0.20006,-5.16294 0.99338,-6.22661 z"
       inkscape:connector-curvature="0" />
    <path
       inkscape:connector-curvature="0"
       id="rect4610-5-4-5-4-96-4"
       style="opacity:0.98999999;fill:#ffffff;stroke:none;stroke-width:0.72678518;stroke-opacity:1"
       d="m 49.000848,259.66303 5.4599,-5.63159 V 231.2474 l -2.638856,-2.70111 c -4.362985,-2.7e-4 -5.675234,-1.4e-4 -8.167071,0 l -2.2816,2.33588 v 20.91533 z m -9.15109,8.9279 v -0.4063 l -5.714799,-5.72792 -13.275405,-0.0422 -6.135848,-6.44863 V 231.2013 l -2.638857,-2.70113 c -4.362986,-2.8e-4 -5.675234,-1.7e-4 -8.167078,0 l -2.281588,2.33587 v 23.77076 l 13.561489,13.98414 z m -33.389878,-6.1601 -5.459888,5.63159 v 22.784 l 2.638847,2.70114 c 4.362985,2.7e-4 5.675234,1.3e-4 8.167072,0 l 2.281599,-2.33588 v -20.91532 z m 9.333456,-8.74652 v 0.40631 l 6.291119,6.48664 h 13.275406 l 5.559528,5.73211 v 24.76456 l 2.638856,2.70114 c 4.36299,2.7e-4 5.675236,1.6e-4 8.167079,0 l 2.281597,-2.33587 V 267.66845 L 40.445422,253.68431 Z" />
  </g>
</svg>
