<?xml version="1.0" encoding="UTF-8" standalone="no"?>
<!-- Created with Inkscape (http://www.inkscape.org/) -->

<svg
   xmlns:dc="http://purl.org/dc/elements/1.1/"
   xmlns:cc="http://creativecommons.org/ns#"
   xmlns:rdf="http://www.w3.org/1999/02/22-rdf-syntax-ns#"
   xmlns:svg="http://www.w3.org/2000/svg"
   xmlns="http://www.w3.org/2000/svg"
   xmlns:sodipodi="http://sodipodi.sourceforge.net/DTD/sodipodi-0.dtd"
   xmlns:inkscape="http://www.inkscape.org/namespaces/inkscape"
   width="310mm"
   height="160mm"
   viewBox="0 0 310 160"
   version="1.1"
   id="svg2150"
   inkscape:version="0.92.3 (2405546, 2018-03-11)"
   sodipodi:docname="hakodate-logo.svg">
  <defs
     id="defs2144" />
  <sodipodi:namedview
     id="base"
     pagecolor="#ffffff"
     bordercolor="#666666"
     borderopacity="1.0"
     inkscape:pageopacity="0.0"
     inkscape:pageshadow="2"
     inkscape:zoom="0.44746063"
     inkscape:cx="527.77537"
     inkscape:cy="147.70127"
     inkscape:document-units="mm"
     inkscape:current-layer="layer1"
     showgrid="false"
     inkscape:window-width="1366"
     inkscape:window-height="705"
     inkscape:window-x="-8"
     inkscape:window-y="-8"
     inkscape:window-maximized="1"
     showguides="true"
     inkscape:guide-bbox="true"
     width="285mm" />
  <metadata
     id="metadata2147">
    <rdf:RDF>
      <cc:Work
         rdf:about="">
        <dc:format>image/svg+xml</dc:format>
        <dc:type
           rdf:resource="http://purl.org/dc/dcmitype/StillImage" />
        <dc:title></dc:title>
      </cc:Work>
    </rdf:RDF>
  </metadata>
  <g
     inkscape:label="Layer 1"
     inkscape:groupmode="layer"
     id="layer1"
     transform="translate(0,-137)">
    <g
       id="g48"
       transform="translate(12.500003,2.9104306)">
      <path
         inkscape:connector-curvature="0"
         d="m 252.68021,236.68259 v -17.39688 h 15.16654 15.16649 v 2.00733 2.00733 h -13.38221 -13.38221 v 5.79896 5.79897 h 12.49005 12.49007 v 1.78429 1.7843 h -12.49007 -12.49005 v 5.79895 5.79897 h 13.38221 13.38221 v 2.00732 2.00734 h -15.16649 -15.16654 z m -21.85762,2.00733 v -15.38955 h -6.6911 -6.6911 v -2.00733 -2.00733 h 15.16649 15.16654 v 2.00733 2.00733 h -6.69112 -6.69111 v 15.38955 15.38955 h -1.78431 -1.78429 z m -50.25997,14.75944 c 0.13301,-0.34656 5.27447,-8.17515 11.42554,-17.39688 l 11.18375,-16.76677 h 4.68083 4.68082 v 17.40792 17.40793 l -7.24869,-0.12256 -7.2487,-0.12257 v -1.7843 -1.78429 l 5.4644,-0.12525 5.46441,-0.12525 v -13.59152 -13.59153 h -1.95598 -1.956 l -9.72572,14.83196 c -5.34914,8.15758 -10.02023,15.18323 -10.38018,15.61259 -0.84333,1.00593 -4.76441,1.14054 -4.38449,0.15051 z m -9.60312,-3.91984 c 0.39048,-0.39049 0.53529,-3.86597 0.53529,-12.84693 0,-8.98096 -0.14481,-12.45645 -0.53529,-12.84692 -0.38756,-0.38756 -3.58842,-0.5353 -11.59792,-0.5353 h -11.06264 v 13.38222 13.38222 h 11.06264 c 8.0095,0 11.21036,-0.14774 11.59792,-0.53529 z m -26.35363,4.27677 c -0.17686,-0.17688 -0.32159,-8.02481 -0.32159,-17.43985 v -17.11827 l 13.35038,0.13029 c 12.67932,0.12373 13.41227,0.17651 14.58135,1.04999 0.67703,0.50584 1.64484,1.47419 2.15069,2.15186 0.87917,1.17785 0.9197,1.79936 0.9197,14.1028 0,12.30361 -0.0405,12.92492 -0.9197,14.10228 -0.50585,0.67738 -1.47361,1.64549 -2.15059,2.15133 -1.16671,0.87178 -1.91,0.92678 -14.25977,1.05543 -7.16591,0.0747 -13.17361,-0.009 -13.35048,-0.18587 z M 122.80211,219.1335 c -5.02243,-0.003 -9.25399,0.12766 -9.8674,0.31843 -0.70105,0.218 -1.6751,0.75875 -2.16454,1.20169 -1.92577,1.7428 -2.11734,2.58577 -2.1333,13.68654 h -0.0342 c -0.003,0.74902 -0.004,1.53511 -0.004,2.37971 0,13.18097 0.0929,13.86382 2.13682,15.71355 0.48942,0.44294 1.46349,0.98367 2.16454,1.20168 0.70103,0.21801 6.12797,0.35701 12.06014,0.30884 10.13154,-0.0822 10.86206,-0.14338 12.044,-1.01122 2.52718,-1.85555 2.79067,-2.80149 2.81297,-14.18587 h 0.0428 c -9.6e-4,-0.75496 -0.003,-1.50833 -0.003,-2.34241 0,-13.49209 -0.13681,-14.2815 -2.81801,-16.25015 -1.18194,-0.86784 -1.91245,-0.92904 -12.044,-1.01122 -0.74153,-0.006 -1.47527,-0.01 -2.19276,-0.01 z m 1.44402,3.8887 c 10.53794,0 11.1449,0.045 11.5825,0.86258 0.25466,0.4759 0.4216,4.41966 0.42288,7.78993 9.7e-4,3.37028 0.003,4.03889 0.003,4.84613 0,7.29369 -0.17655,12.14888 -0.46152,12.68139 -0.43758,0.81767 -1.04454,0.86258 -11.58248,0.86258 -10.53791,0 -11.14443,-0.045 -11.582,-0.86258 -0.25468,-0.47588 -0.42202,-4.41964 -0.45498,-10.45538 h 0.0323 c -0.002,-0.70483 -0.004,-1.37344 -0.004,-2.18065 0,-7.2937 0.17707,-12.14892 0.46202,-12.68142 0.43757,-0.81761 1.04408,-0.86258 11.58199,-0.86258 z m -49.676775,30.78111 c -0.17524,-0.17524 -0.3186,-8.01338 -0.3186,-17.41811 v -17.09949 h 2.00733 2.00732 v 7.80629 7.8063 h 2.27459 2.27457 l 7.97849,-7.8063 7.9785,-7.80629 h 2.564115 2.56411 l -1.55383,1.50919 c -0.85459,0.83005 -4.865905,4.6747 -8.914035,8.54365 -4.04812,3.86896 -7.41313,7.16249 -7.47781,7.31897 -0.0647,0.15649 3.79788,3.98989 8.58343,8.51868 4.78556,4.52878 8.702585,8.3847 8.704515,8.56871 9.6e-4,0.18401 -0.9925,0.33456 -2.20987,0.33456 h -2.213345 l -7.93482,-7.7892 -7.93481,-7.78921 -2.33137,-0.0172 -2.33134,-0.0171 -0.12208,7.69477 -0.12206,7.69477 -1.57719,0.13276 c -0.86748,0.073 -1.72059,-0.0106 -1.89583,-0.18587 z m -36.93279,-0.50447 c 0.24273,-0.42936 5.41867,-8.20776 11.50211,-17.28537 l 11.06076,-16.50472 4.80053,-0.12668 4.80056,-0.12666 -0.11678,17.30051 -0.11689,17.3005 h -7.1372 -7.13718 v -1.7843 -1.78429 l 5.24135,-0.12566 5.24139,-0.12568 v -13.59111 -13.59109 h -1.79242 -1.79239 l -5.19792,7.91781 c -2.85884,4.35481 -7.46561,11.38045 -10.23725,15.61259 l -5.03933,7.69477 h -2.2604 c -2.02351,0 -2.21416,-0.0818 -1.81907,-0.78062 z M 1.986795,236.68259 v -17.39688 h 1.78428 1.78431 v 7.80629 7.8063 h 11.59791 11.59792 v -7.8063 -7.80629 h 1.78429 1.7843 v 17.4238 17.42381 l -1.67277,-0.13845 -1.67278,-0.13845 -0.12206,-7.69477 -0.12206,-7.69477 h -11.58739 -11.5874 v 7.80629 7.80629 h -1.78431 -1.78428 z"
         style="fill:#ffffff;stroke-width:0.4460738"
         id="path7152" />
      <g
         transform="translate(71.880155,151.16584)"
         id="text1564-9-6-9-8-6"
         style="font-style:normal;font-variant:normal;font-weight:normal;font-stretch:normal;font-size:25.96410751px;line-height:1.25;font-family:'Blender Pro';-inkscape-font-specification:'Blender Pro';letter-spacing:0px;word-spacing:0px;fill:#ffffff;fill-opacity:1;stroke:none;stroke-width:0.64910263"
         aria-label="p  r  o  j  e  c  t">
        <path
           inkscape:connector-curvature="0"
           d="m 211.13308,118.31832 v -1.89538 h -3.42726 v -4.38793 h -2.0252 v 4.38793 h -1.84345 v 1.89538 h 1.84345 v 5.99771 c 0,0.54525 0.12982,1.06453 0.44139,1.50592 0.20771,0.2856 0.85682,0.98663 1.24628,1.27224 0.46735,0.33753 1.14242,0.51928 1.76556,0.51928 h 1.84345 v -1.89538 h -1.81749 c -0.15578,0 -0.31157,-0.0519 -0.3635,-0.0779 -0.36349,-0.18175 -0.85681,-0.67507 -1.03856,-1.03856 -0.026,-0.0519 -0.0519,-0.15579 -0.0519,-0.33754 v -5.94578 z m -21.24919,6.75067 -1.89538,-0.62314 c -0.28561,0.51928 -0.727,1.06453 -1.22031,1.32417 -0.0779,0.026 -0.15579,0.0779 -0.31157,0.0779 h -2.67431 c -0.15578,0 -0.20771,-0.026 -0.31157,-0.0779 -0.36349,-0.18175 -0.90874,-0.67507 -1.09049,-1.03856 -0.026,-0.0519 -0.0519,-0.12982 -0.0519,-0.28561 v -4.85529 c 0,-0.15578 0,-0.18175 0.0519,-0.2856 0.18175,-0.3635 0.727,-0.85682 1.09049,-1.03857 0.10386,-0.0519 0.15579,-0.0779 0.31157,-0.0779 h 2.59641 c 0.62314,0 1.27225,0.85682 1.55785,1.40206 l 1.89538,-0.59717 c -0.31157,-0.75296 -1.14242,-1.76556 -1.73959,-2.18099 -0.46736,-0.33753 -1.14242,-0.51928 -1.76556,-0.51928 h -2.57045 c -0.62314,0 -1.32417,0.18175 -1.79152,0.51928 -0.38946,0.28561 -1.03857,0.96068 -1.24628,1.24628 -0.31157,0.44139 -0.41543,0.96067 -0.41543,1.47995 v 4.95915 c 0,0.51928 0.10386,1.03856 0.41543,1.47995 0.20771,0.28561 0.85682,0.96068 1.24628,1.24628 0.46735,0.33753 1.16838,0.51928 1.79152,0.51928 h 2.64834 c 0.62314,0 1.2982,-0.18175 1.76556,-0.51928 0.38946,-0.2856 1.0126,-0.96067 1.22031,-1.24628 0.12982,-0.18175 0.31157,-0.46735 0.49332,-0.90874 z m -24.64684,0 -1.89538,-0.62314 -0.15578,0.28561 c -0.18175,0.33753 -0.70103,0.85681 -1.06453,1.03856 -0.10386,0.0519 -0.15579,0.0779 -0.31157,0.0779 h -2.62238 c -0.12982,0 -0.23367,-0.026 -0.33753,-0.0779 -0.44139,-0.20771 -0.90874,-0.75296 -1.06453,-1.03856 -0.026,-0.0519 -0.0519,-0.12982 -0.0519,-0.28561 V 122.888 h 7.50363 v -3.34937 c 0,-0.51928 -0.10385,-1.03856 -0.41542,-1.47995 -0.20772,-0.2856 -0.85682,-0.96067 -1.24628,-1.24628 -0.46736,-0.33753 -1.16839,-0.51928 -1.79152,-0.51928 h -2.59642 c -0.62313,0 -1.32416,0.18175 -1.79152,0.51928 -0.38946,0.28561 -1.03856,0.96068 -1.24628,1.24628 -0.31157,0.41543 -0.44139,0.93471 -0.44139,1.47995 v 4.95915 c 0,0.54525 0.12982,1.06453 0.44139,1.47995 0.20772,0.28561 0.85682,0.96068 1.24628,1.24628 0.46736,0.33753 1.16839,0.51928 1.79152,0.51928 h 2.57045 c 0.62314,0 1.29821,-0.18175 1.76556,-0.51928 0.6491,-0.44139 1.3761,-1.3761 1.71363,-2.15502 z m -2.0252,-4.02444 h -5.47843 v -1.45399 c 0,-0.15578 0.026,-0.25964 0.0519,-0.2856 0.18175,-0.38946 0.57121,-0.75296 1.0905,-1.03857 0.0779,-0.0519 0.23367,-0.0779 0.31156,-0.0779 h 2.57045 c 0.15579,0 0.20771,0.026 0.31157,0.0779 0.3635,0.18175 0.93471,0.67507 1.11646,1.03857 0.026,0.0519 0.026,0.23367 0.026,0.2856 z m -22.80825,7.73731 v -12.35892 h -2.0252 v 12.28102 c 0,0.15579 -0.026,0.23368 -0.0519,0.28561 -0.20771,0.38946 -0.70103,0.93471 -1.06452,1.14242 -0.0779,0.0519 -0.38947,0.0519 -1.99924,0.0779 v 1.86942 h 1.42803 c 0.59717,0 1.53188,-0.18175 2.0252,-0.51928 0.38946,-0.28561 1.03856,-0.98664 1.24627,-1.27224 0.31157,-0.44139 0.44139,-0.96068 0.44139,-1.50592 z m 0.15579,-14.66972 v -2.31081 h -2.33677 v 2.31081 z m -17.89495,10.38564 v -4.95915 c 0,-0.51928 -0.10386,-1.03856 -0.41543,-1.47995 -0.20771,-0.2856 -0.85681,-0.96067 -1.24628,-1.24628 -0.46735,-0.33753 -1.16838,-0.51928 -1.79152,-0.51928 h -2.59641 c -0.62314,0 -1.32417,0.18175 -1.79152,0.51928 -0.38946,0.28561 -1.03857,0.96068 -1.24628,1.24628 -0.31157,0.44139 -0.41543,0.96067 -0.41543,1.47995 v 4.95915 c 0,0.51928 0.10386,1.03856 0.41543,1.47995 0.20771,0.28561 0.85682,0.96068 1.24628,1.24628 0.46735,0.33753 1.16838,0.51928 1.79152,0.51928 h 2.59641 c 0.62314,0 1.32417,-0.18175 1.79152,-0.51928 0.38947,-0.2856 1.03857,-0.96067 1.24628,-1.24628 0.31157,-0.44139 0.41543,-0.96067 0.41543,-1.47995 z m -2.07713,0.2856 c -0.15579,0.28561 -0.80489,0.83086 -1.09049,0.98664 -0.10386,0.0519 -0.15579,0.0779 -0.31157,0.0779 h -2.51852 c -0.15579,0 -0.20771,-0.026 -0.31157,-0.0779 -0.3635,-0.18175 -0.93471,-0.67507 -1.11646,-1.03856 -0.026,-0.0519 -0.0519,-0.12982 -0.0519,-0.28561 v -4.85529 c 0,-0.15578 0.026,-0.23367 0.0519,-0.2856 0.20772,-0.3635 0.75296,-0.85682 1.11646,-1.03857 0.0519,-0.026 0.15578,-0.0779 0.31157,-0.0779 h 2.51852 c 0.15578,0 0.2856,0.0519 0.36349,0.10386 0.38947,0.23367 0.77893,0.59717 1.0126,0.93471 0.0519,0.0779 0.0779,0.18174 0.0779,0.36349 v 4.85529 c 0,0.0779 0,0.23368 -0.0519,0.33753 z m -21.209026,-5.78999 c -0.311569,-0.75296 -1.14242,-1.79153 -1.739595,-2.20695 -0.467354,-0.33753 -1.142421,-0.49332 -1.765559,-0.49332 h -1.428026 c -0.752959,0 -1.531882,0.54525 -2.051165,1.03857 l -0.12982,-0.90875 h -1.999236 l 0.181748,2.07713 v 9.1134 h 2.025201 v -8.02291 c 0.259641,-0.38946 1.505918,-1.40206 2.051164,-1.40206 h 1.402062 c 0.623139,0 1.246277,0.83085 1.531882,1.3761 z m -24.27725,5.45246 v -4.85529 c 0,-0.54524 -0.129821,-1.06453 -0.44139,-1.50592 -0.207713,-0.2856 -0.856816,-0.96067 -1.246277,-1.24627 -0.467354,-0.33754 -1.142421,-0.54525 -1.76556,-0.54525 h -2.0252 c -0.778923,0 -1.557847,0.59718 -2.077129,1.09049 l -0.103856,-0.96067 h -2.025201 l 0.181749,2.07713 v 13.60519 h 2.025201 v -5.3486 c 0.519282,0.46735 1.272241,0.98663 1.999236,0.98663 h 2.0252 c 0.623139,0 1.298206,-0.18175 1.76556,-0.51928 0.389461,-0.2856 1.038564,-0.98664 1.246277,-1.27224 0.311569,-0.41543 0.44139,-0.96067 0.44139,-1.50592 z m -2.025201,-0.0519 c 0,0.15579 -0.02596,0.23368 -0.05193,0.28561 -0.181749,0.3635 -0.726995,0.90874 -1.090493,1.11645 -0.07789,0.026 -0.155784,0.0519 -0.311569,0.0519 h -1.921344 c -0.545246,0 -1.817487,-1.09049 -2.077128,-1.47995 v -4.72547 c 0.259641,-0.3635 1.557846,-1.45399 2.077128,-1.45399 h 1.921344 c 0.155785,0 0.233677,0.0519 0.311569,0.0779 0.363498,0.20772 0.88278,0.727 1.090493,1.0905 0.02596,0.026 0.05193,0.12982 0.05193,0.2856 z"
           style="font-style:normal;font-variant:normal;font-weight:normal;font-stretch:normal;font-family:'Blender Pro';-inkscape-font-specification:'Blender Pro';fill:#ffffff;stroke-width:0.64910263"
           id="path2322" />
      </g>
      <path
         d="m 148.95601,176.26705 5.4647,-5.66701 v -22.92732 l -2.64116,-2.7181 c -4.36684,-2.7e-4 -5.68024,-1.4e-4 -8.17429,0 l -2.2836,2.35057 v 21.04685 z m -9.15917,8.98404 v -0.40885 l -5.71987,-5.76394 -13.28711,-0.0425 -6.14127,-6.48919 v -24.92028 l -2.64118,-2.71812 c -4.36684,-2.8e-4 -5.68025,-1.7e-4 -8.17429,0 l -2.2836,2.35056 v 23.92025 l 13.57346,14.07207 z m -33.41937,-6.19884 -5.46471,5.66701 v 22.92728 l 2.64117,2.71812 c 4.36684,2.6e-4 5.68024,1.4e-4 8.17429,0 l 2.28362,-2.35056 v -21.04685 z m 9.3417,-8.80152 v 0.40886 l 6.29667,6.52744 h 13.28713 l 5.56443,5.76816 v 24.9203 l 2.64119,2.71812 c 4.36685,2.6e-4 5.68025,1.5e-4 8.17429,0 l 2.28361,-2.35057 v -23.92023 l -13.57347,-14.07208 z"
         style="opacity:0.98999999;fill:#ffffff;stroke:none;stroke-width:0.72938865;stroke-opacity:1"
         id="rect4610-5-4-5-4-96-1-0-0"
         inkscape:connector-curvature="0" />
    </g>
  </g>
</svg>
