<?xml version="1.0" encoding="UTF-8" standalone="no"?>
<!-- Created with Inkscape (http://www.inkscape.org/) -->

<svg
   xmlns:dc="http://purl.org/dc/elements/1.1/"
   xmlns:cc="http://creativecommons.org/ns#"
   xmlns:rdf="http://www.w3.org/1999/02/22-rdf-syntax-ns#"
   xmlns:svg="http://www.w3.org/2000/svg"
   xmlns="http://www.w3.org/2000/svg"
   xmlns:sodipodi="http://sodipodi.sourceforge.net/DTD/sodipodi-0.dtd"
   xmlns:inkscape="http://www.inkscape.org/namespaces/inkscape"
   width="350mm"
   height="70mm"
   viewBox="0 0 350 70"
   version="1.1"
   id="svg2150"
   inkscape:version="0.92.3 (2405546, 2018-03-11)"
   sodipodi:docname="hakodate-logo-katakana.svg">
  <defs
     id="defs2144" />
  <sodipodi:namedview
     id="base"
     pagecolor="#ffffff"
     bordercolor="#666666"
     borderopacity="1.0"
     inkscape:pageopacity="0.0"
     inkscape:pageshadow="2"
     inkscape:zoom="0.547849"
     inkscape:cx="624.3365"
     inkscape:cy="124.48504"
     inkscape:document-units="mm"
     inkscape:current-layer="layer1"
     showgrid="false"
     inkscape:window-width="1366"
     inkscape:window-height="705"
     inkscape:window-x="-8"
     inkscape:window-y="-8"
     inkscape:window-maximized="1"
     showguides="true"
     inkscape:guide-bbox="true" />
  <metadata
     id="metadata2147">
    <rdf:RDF>
      <cc:Work
         rdf:about="">
        <dc:format>image/svg+xml</dc:format>
        <dc:type
           rdf:resource="http://purl.org/dc/dcmitype/StillImage" />
        <dc:title />
      </cc:Work>
    </rdf:RDF>
  </metadata>
  <g
     inkscape:label="Layer 1"
     inkscape:groupmode="layer"
     id="layer1"
     transform="translate(0,-227)">
    <path
       id="path7152-7"
       style="fill:#ffffff;stroke-width:0.4460738"
       d="M 318.4389,246.04119 V 228.6443 h 15.16653 15.1665 v 2.00734 2.00733 H 335.38972 322.0075 v 5.79896 5.79897 h 12.49005 12.49008 v 1.78429 1.7843 H 334.49755 322.0075 v 5.79895 5.79896 h 13.38222 13.38221 v 2.00733 2.00734 h -15.1665 -15.16653 z m -21.85762,2.00733 v -15.38955 h -6.69111 -6.6911 v -2.00733 -2.00734 h 15.1665 15.16653 v 2.00734 2.00733 h -6.69113 -6.69107 v 15.38955 15.38955 h -1.78433 -1.78429 z m -50.25998,14.75943 c 0.13302,-0.34655 5.27447,-8.17514 11.42555,-17.39688 L 268.9306,228.6443 h 4.68082 4.68082 v 17.40792 17.40793 l -7.24868,-0.12256 -7.2487,-0.12257 v -1.78429 -1.7843 l 5.4644,-0.12524 5.46442,-0.12526 v -13.59152 -13.59153 h -1.95599 -1.95598 l -9.72574,14.83196 c -5.34914,8.15758 -10.02023,15.18323 -10.38018,15.61259 -0.84333,1.00593 -4.76441,1.14054 -4.38449,0.15052 z m -9.60311,-3.91984 c 0.39048,-0.39049 0.53528,-3.86597 0.53528,-12.84692 0,-8.98096 -0.1448,-12.45646 -0.53528,-12.84693 -0.38756,-0.38756 -3.58842,-0.5353 -11.59793,-0.5353 h -11.06263 v 13.38223 13.38221 h 11.06263 c 8.00951,0 11.21037,-0.14774 11.59793,-0.53529 z m -26.35364,4.27678 c -0.17686,-0.17688 -0.32158,-8.02482 -0.32158,-17.43985 v -17.11827 l 13.35039,0.13029 c 12.67932,0.12373 13.41225,0.17651 14.58134,1.04998 0.67704,0.50584 1.64485,1.4742 2.15069,2.15186 0.87918,1.17785 0.91971,1.79936 0.91971,14.1028 0,12.30362 -0.0405,12.92493 -0.91971,14.10229 -0.50584,0.67738 -1.4736,1.64549 -2.15058,2.15132 -1.16671,0.87179 -1.91001,0.92678 -14.25977,1.05543 -7.16592,0.0747 -13.17362,-0.009 -13.35049,-0.18587 z m -21.80376,-34.6728 c -5.02243,-0.003 -9.25399,0.12766 -9.8674,0.31843 -0.70105,0.218 -1.6751,0.75875 -2.16453,1.20169 -1.92577,1.7428 -2.11734,2.58577 -2.13331,13.68654 h -0.0342 c -0.003,0.74902 -0.004,1.53511 -0.004,2.37971 0,13.18097 0.0929,13.86382 2.13682,15.71355 0.48942,0.44294 1.46349,0.98367 2.16454,1.20168 0.70103,0.21801 6.12797,0.35701 12.06015,0.30884 10.13154,-0.0822 10.86205,-0.14338 12.044,-1.01122 2.52717,-1.85555 2.79067,-2.80149 2.81297,-14.18587 h 0.0428 c -0.001,-0.75496 -0.003,-1.50833 -0.003,-2.34241 0,-13.49209 -0.13681,-14.2815 -2.81801,-16.25015 -1.18196,-0.86784 -1.91247,-0.92904 -12.04402,-1.01122 -0.74153,-0.006 -1.47527,-0.01 -2.19276,-0.01 z m 1.44402,3.8887 c 10.53795,0 11.1449,0.045 11.5825,0.86258 0.25467,0.4759 0.42161,4.41966 0.4229,7.78994 0.001,3.37027 0.003,4.03888 0.003,4.84613 0,7.29369 -0.17655,12.14888 -0.46153,12.68139 -0.43757,0.81767 -1.04454,0.86257 -11.58248,0.86257 -10.53791,0 -11.14443,-0.045 -11.582,-0.86257 -0.25468,-0.47588 -0.42202,-4.41964 -0.45498,-10.45538 h 0.0323 c -0.002,-0.70483 -0.004,-1.37344 -0.004,-2.18065 0,-7.2937 0.17707,-12.14892 0.46202,-12.68142 0.43757,-0.81761 1.04408,-0.86258 11.58199,-0.86258 z m -49.67677,30.78112 c -0.17524,-0.17524 -0.3186,-8.01338 -0.3186,-17.41812 V 228.6443 h 2.00733 2.00732 v 7.80629 7.80631 h 2.27459 2.27457 l 7.97849,-7.80631 7.9785,-7.80629 h 2.56412 2.56411 l -1.55383,1.50919 c -0.85459,0.83006 -4.86591,4.6747 -8.91404,8.54365 -4.04812,3.86897 -7.41313,7.16249 -7.47781,7.31897 -0.0647,0.15649 3.79788,3.98989 8.58343,8.51868 4.78556,4.52879 8.70259,8.3847 8.70452,8.56872 0.001,0.184 -0.9925,0.33456 -2.20987,0.33456 h -2.21335 l -7.93482,-7.7892 -7.93481,-7.78922 -2.33137,-0.0172 -2.33134,-0.0171 -0.12208,7.69477 -0.12206,7.69477 -1.57719,0.13277 c -0.86748,0.073 -1.72059,-0.0106 -1.89583,-0.18588 z m -36.93279,-0.50448 c 0.24273,-0.42936 5.41867,-8.20776 11.50211,-17.28537 l 11.06076,-16.50472 4.80053,-0.12668 4.80056,-0.12666 -0.11678,17.30051 -0.11689,17.3005 h -7.1372 -7.13718 v -1.7843 -1.78429 l 5.24135,-0.12566 5.24139,-0.12568 v -13.59111 -13.59109 h -1.79242 -1.79239 l -5.19792,7.91781 c -2.85884,4.35481 -7.46561,11.38045 -10.23725,15.61259 l -5.03933,7.69477 h -2.2604 c -2.02351,0 -2.21416,-0.0818 -1.81907,-0.78062 z M 67.745483,246.04119 V 228.6443 h 1.78428 1.78431 v 7.80629 7.80631 h 11.59791 11.59792 v -7.80631 -7.80629 h 1.78429 1.7843 v 17.42381 17.42381 l -1.67277,-0.13845 -1.67278,-0.13845 -0.12206,-7.69477 -0.12206,-7.69477 h -11.58739 -11.5874 v 7.80629 7.80629 h -1.78431 -1.78428 z"
       inkscape:connector-curvature="0" />
    <path
       inkscape:connector-curvature="0"
       id="rect4610-5-4-5-4-96-1-0"
       style="opacity:0.98999999;fill:#ffffff;stroke:none;stroke-width:0.72938865;stroke-opacity:1"
       d="m 48.559476,260.22151 5.464717,-5.66701 v -22.92731 l -2.641184,-2.7181 c -4.36684,-2.7e-4 -5.680244,-1.4e-4 -8.174284,0 l -2.283608,2.35057 v 21.04686 z m -9.159168,8.98404 v -0.40885 l -5.719853,-5.76393 -13.287119,-0.0425 -6.14127,-6.48919 v -24.92029 l -2.64118,-2.71812 c -4.36684,-2.7e-4 -5.68025,-1.7e-4 -8.17429,0 l -2.2836,2.35056 v 23.92025 l 13.57346,14.07208 z m -33.419362,-6.19884 -5.46471,5.66701 V 291.601 l 2.64118,2.71813 c 4.36684,2.7e-4 5.68024,1.3e-4 8.17428,0 l 2.28362,-2.35057 v -21.04685 z m 9.3417,-8.80152 v 0.40886 l 6.29667,6.52744 h 13.287131 l 5.564428,5.76817 v 24.9203 l 2.64119,2.71812 c 4.366842,2.6e-4 5.680244,1.5e-4 8.174289,0 l 2.283613,-2.35056 V 268.27728 L 39.996496,254.20519 Z" />
    <path
       inkscape:connector-curvature="0"
       d="m 340.04974,282.26258 q 4.66936,1.33411 9.43402,3.62115 l -1.14351,2.19175 q -5.05054,-2.57292 -8.29051,-3.43056 v 9.91049 h -2.19175 v -19.05864 h 1.90587 q 1.14352,0.0953 0.28588,0.76235 z m -16.67631,-1.61998 q -1.81057,10.38696 -11.91165,14.86573 l -1.71528,-1.81057 q 9.33873,-3.81172 11.2446,-13.15046 h -7.62346 q -2.19174,3.62114 -4.57407,5.81289 l -1.90587,-1.23881 q 4.95525,-4.47878 6.38465,-10.48226 l 2.19174,0.76235 q 0.57176,0.28588 -0.19058,0.57176 -0.38118,1.23881 -1.04823,2.47762 h 6.86111 l 0.85764,-0.47645 1.71528,1.71526 q 0.66705,0.66706 -0.28588,0.95294 z m -30.49382,2.76351 v 7.52815 h 6.9564 v 1.81058 h -15.53279 v -1.81058 h 6.67052 v -7.52816 h -5.33642 v -1.81057 h 12.57871 v 1.81057 z m -14.67516,-0.28589 q -4.85995,7.81405 -15.05632,11.05401 -0.28588,1.14353 -0.95294,0.0953 l -1.3341,-2.09645 q 10.38696,-2.28704 15.62808,-10.76815 z m -14.67515,2.57293 q -2.8588,-2.09646 -4.76466,-3.04939 l 1.4294,-2.00115 q 2.38233,1.23881 4.85995,3.04938 z m 2.85879,-5.6223 q -2.57291,-1.81057 -4.76466,-3.04939 l 1.23882,-2.00115 q 2.57291,1.42939 4.85995,3.04938 z m 7.90934,-6.47994 q 1.61998,1.23881 3.23997,2.95409 l -1.23881,1.23881 q -1.71528,-1.90586 -3.23997,-3.04938 z m -2.28704,1.61998 q 1.61999,1.33411 3.23997,3.04939 l -1.23881,1.14351 q -1.61998,-1.71528 -3.33526,-3.14468 z m -21.15509,16.86689 h -2.19174 v -1.04822 h -10.57755 v 1.52469 h -2.19174 v -14.86573 h 14.96103 z m -12.76929,-12.29282 v 9.14814 h 10.57755 v -9.14814 z m -10.29166,-2.47762 q 0.76234,0 1.23881,-0.47647 0.47646,-0.47647 0.47646,-1.23881 0,-0.76234 -0.47646,-1.23881 -0.47647,-0.47647 -1.23881,-0.47647 -0.76235,0 -1.23881,0.47647 -0.47647,0.47647 -0.47647,1.23881 0,0.76234 0.47647,1.23881 0.47646,0.47647 1.23881,0.47647 z m 0,0.95294 q -1.14352,0 -1.90587,-0.76236 -0.76234,-0.76234 -0.76234,-1.90585 0,-1.14352 0.76234,-1.90587 0.76235,-0.76234 1.90587,-0.76234 1.14352,0 1.90586,0.76234 0.76235,0.76235 0.76235,1.90587 0,1.14351 -0.76235,1.90585 -0.76234,0.76236 -1.90586,0.76236 z m -17.05749,1.23881 v -2.09645 h 14.1034 l 2.47762,1.81057 q -0.47646,11.53047 -13.05517,15.05632 l -1.71528,-2.09645 q 11.91166,-2.7635 12.48341,-12.67399 z"
       style="font-style:normal;font-variant:normal;font-weight:normal;font-stretch:normal;font-size:medium;line-height:1.25;font-family:'Blender Pro';-inkscape-font-specification:'Blender Pro';letter-spacing:0px;word-spacing:0px;fill:#ffffff;fill-opacity:1;stroke:none;stroke-width:0.60987645"
       id="path2336" />
  </g>
</svg>
