<?xml version="1.0" encoding="UTF-8" standalone="no"?>
<!-- Created with Inkscape (http://www.inkscape.org/) -->

<svg
   xmlns:dc="http://purl.org/dc/elements/1.1/"
   xmlns:cc="http://creativecommons.org/ns#"
   xmlns:rdf="http://www.w3.org/1999/02/22-rdf-syntax-ns#"
   xmlns:svg="http://www.w3.org/2000/svg"
   xmlns="http://www.w3.org/2000/svg"
   xmlns:sodipodi="http://sodipodi.sourceforge.net/DTD/sodipodi-0.dtd"
   xmlns:inkscape="http://www.inkscape.org/namespaces/inkscape"
   version="1.1"
   id="svg815"
   width="182"
   height="97"
   viewBox="0 0 182 97"
   sodipodi:docname="Ryu-github.svg"
   inkscape:version="0.92.2 (5c3e80d, 2017-08-06)">
  <metadata
     id="metadata821">
    <rdf:RDF>
      <cc:Work
         rdf:about="">
        <dc:format>image/svg+xml</dc:format>
        <dc:type
           rdf:resource="http://purl.org/dc/dcmitype/StillImage" />
        <dc:title></dc:title>
      </cc:Work>
    </rdf:RDF>
  </metadata>
  <defs
     id="defs819" />
  <sodipodi:namedview
     pagecolor="#ffffff"
     bordercolor="#666666"
     borderopacity="1"
     objecttolerance="10"
     gridtolerance="10"
     guidetolerance="10"
     inkscape:pageopacity="0"
     inkscape:pageshadow="2"
     inkscape:window-width="1280"
     inkscape:window-height="971"
     id="namedview817"
     showgrid="false"
     inkscape:zoom="1.5193002"
     inkscape:cx="102.66064"
     inkscape:cy="-22.041854"
     inkscape:window-x="-8"
     inkscape:window-y="-8"
     inkscape:window-maximized="1"
     inkscape:current-layer="svg815" />
  <path
     sodipodi:type="star"
     style="fill:#000000;fill-opacity:0;stroke:none;stroke-width:1;stroke-linecap:round;stroke-linejoin:round;stroke-miterlimit:4;stroke-dasharray:none;stroke-opacity:1;paint-order:normal"
     id="path2679"
     sodipodi:sides="5"
     sodipodi:cx="-377.49832"
     sodipodi:cy="-511.73346"
     sodipodi:r1="323.93066"
     sodipodi:r2="161.96533"
     sodipodi:arg1="0.67877047"
     sodipodi:arg2="1.307089"
     inkscape:flatsided="false"
     inkscape:rounded="0"
     inkscape:randomized="0"
     d="m -125.36843,-308.35797 -209.91177,-47.00926 -157.72729,146.27003 -20.15784,-214.16461 -187.85148,-104.80765 197.45354,-85.35175 41.6287,-211.04471 142.19083,161.41433 213.57943,-25.62516 -109.57477,185.11129 z"
     inkscape:transform-center-x="26.092236"
     inkscape:transform-center-y="-5.0481008" />
  <g
     aria-label="Canvate  JS"
     transform="matrix(0.93316925,0,-0.30982868,0.93316925,6.8939204,11.409621)"
     style="font-style:normal;font-weight:normal;font-size:42.39542389px;line-height:1.25;font-family:sans-serif;letter-spacing:0px;word-spacing:0px;fill:#000000;fill-opacity:1;stroke:none;stroke-width:1.0598855"
     id="text10565-2">
    <path
       id="path2909"
       style="font-style:normal;font-variant:normal;font-weight:normal;font-stretch:normal;font-family:Khand;-inkscape-font-specification:Khand;stroke-width:0.69753873"
       d="m 191.4635,43.976073 h 1.48558 l 0.12725,17.635921 q 0.0344,4.762443 -0.62549,9.003992 l -0.62043,3.906691 h -1.52742 l 0.59954,-3.906691 q 0.7189,-4.762443 0.68856,-8.966785 z m 3.57129,5.060097 q -0.0178,-2.455636 0.89298,-3.83228 0.91044,-1.413848 2.5634,-1.413848 1.6739,0 2.82926,0.632512 l 0.0183,2.530047 q -1.09313,-0.706926 -2.66239,-0.706926 -2.15513,0 -2.13419,2.902114 l 0.0129,1.785916 q 0.01,1.302231 0.28678,2.046362 0.2983,0.744131 0.97269,1.413849 l 2.44461,2.41843 q 1.70662,1.637088 1.7305,4.948475 l 0.0145,2.009156 q 0.0185,2.567253 -0.95468,3.981103 -0.97321,1.413851 -2.83542,1.413851 -1.84127,0 -2.93467,-0.744133 l -0.0183,-2.530046 q 1.24041,0.818543 2.80969,0.818543 2.46898,0 2.44671,-3.088145 l -0.0113,-1.562677 q -0.009,-1.227817 -0.26503,-1.934742 -0.25618,-0.706925 -0.90938,-1.339438 l -2.42315,-2.344015 q -1.83296,-1.748708 -1.85793,-5.20892 z"
       inkscape:connector-curvature="0" />
    <path
       id="path2859"
       style="font-style:normal;font-variant:normal;font-weight:normal;font-stretch:normal;font-family:Khand;-inkscape-font-specification:Khand;stroke-width:1.0598855"
       d="m 58.43114,46.113614 q 0,-6.02015 7.631176,-6.02015 2.458934,0 4.917869,0.678327 v 2.798098 q -2.50133,-0.720722 -5.00266,-0.720722 -2.50133,0 -3.51882,0.890303 -1.01749,0.847909 -1.01749,2.543726 v 16.576611 q 0,1.653421 1.01749,2.543725 1.059885,0.847909 3.646006,0.847909 2.628517,0 4.960265,-0.678327 v 2.755702 q -2.119771,0.678327 -5.00266,0.678327 -7.631176,0 -7.631176,-6.02015 z m 22.322516,-1.653421 q 7.207222,0 7.207222,6.147336 v 18.187637 h -2.882889 v -1.738212 q -2.162167,1.907794 -5.172242,1.907794 -5.892964,0 -5.892964,-5.808173 v -1.356654 q 0,-4.409124 5.129847,-5.850568 l 5.935359,-1.653422 v -3.688402 q -0.04239,-1.738212 -0.975095,-2.543725 -0.932699,-0.805513 -3.773192,-0.805513 -2.798098,0 -5.172242,0.847908 v -2.840493 q 2.416539,-0.805513 5.596196,-0.805513 z m -3.815588,17.466914 v 1.271863 q 0,1.695817 0.805513,2.50133 0.805513,0.805513 3.05247,0.805513 2.246958,0 4.239543,-1.653421 v -7.927945 l -4.833079,1.356654 q -1.907794,0.55114 -2.586121,1.356653 -0.678326,0.805514 -0.678326,2.289353 z M 96.515479,45.774451 q 2.840493,-1.187072 5.172241,-1.187072 2.37414,0 3.90038,1.48384 1.52623,1.441444 1.52623,4.112356 v 18.611591 h -3.01007 V 50.480343 q 0,-3.094866 -3.13726,-3.094866 -1.992586,0 -4.324335,1.102281 V 68.795166 H 93.63259 V 44.67217 h 2.882889 z M 122.42637,44.67217 h 3.05247 l -5.34182,24.122996 h -4.23954 L 110.55565,44.67217 h 3.09487 l 2.33175,11.065205 2.07737,10.93802 q 1.27187,-7.037641 4.36673,-22.003225 z m 11.90119,-0.211977 q 7.20722,0 7.20722,6.147336 v 18.187637 h -2.88289 v -1.738212 q -2.16216,1.907794 -5.17224,1.907794 -5.89296,0 -5.89296,-5.808173 v -1.356654 q 0,-4.409124 5.12984,-5.850568 l 5.93536,-1.653422 v -3.688402 q -0.0424,-1.738212 -0.97509,-2.543725 -0.9327,-0.805513 -3.77319,-0.805513 -2.7981,0 -5.17225,0.847908 v -2.840493 q 2.41654,-0.805513 5.5962,-0.805513 z m -3.81559,17.466914 v 1.271863 q 0,1.695817 0.80551,2.50133 0.80552,0.805513 3.05248,0.805513 2.24695,0 4.23954,-1.653421 v -7.927945 l -4.83308,1.356654 q -1.90779,0.55114 -2.58612,1.356653 -0.67833,0.805514 -0.67833,2.289353 z m 19.66221,-21.621666 v 4.366729 h 5.38421 v 2.670912 h -5.38421 v 16.110261 q 0,1.483839 0.72072,2.162166 0.72072,0.635932 2.20456,0.635932 1.48384,0 2.88289,-0.46635 v 2.755702 q -1.69582,0.423955 -3.17966,0.423955 -5.68098,0 -5.68098,-5.384219 V 47.343082 h -2.62852 V 44.67217 h 2.7557 l 0.84791,-4.366729 z m 11.91377,15.431934 h 7.88555 v -4.875473 q 0,-3.98517 -3.94277,-3.98517 -3.94278,0 -3.94278,3.98517 z m -2.96768,6.910455 V 50.861902 q 0,-3.010075 1.69582,-4.790683 1.73821,-1.823003 5.21464,-1.823003 3.47642,0 5.12984,1.823003 1.69582,1.780608 1.69582,4.790683 v 7.376803 h -10.76844 v 4.281938 q 0,1.907794 1.18707,2.840494 1.18708,0.932699 3.68841,0.932699 2.50133,0 5.17224,-0.763118 v 2.798098 q -2.11977,0.678327 -5.04506,0.678327 -7.97034,0 -7.97034,-6.359313 z"
       inkscape:connector-curvature="0" />
  </g>
  <text
     xml:space="preserve"
     style="font-style:normal;font-weight:normal;font-size:17.49296379px;line-height:1.25;font-family:sans-serif;letter-spacing:0px;word-spacing:0px;fill:#000000;fill-opacity:1;stroke:none;stroke-width:0.43732414"
     x="61.651772"
     y="90.588509"
     id="text10569-4"><tspan
       sodipodi:role="line"
       id="tspan10567-9"
       x="61.651772"
       y="90.588509"
       style="font-style:normal;font-variant:normal;font-weight:normal;font-stretch:normal;font-family:khand;-inkscape-font-specification:khand;stroke-width:0.43732414">canvas library</tspan></text>
  <circle
     style="fill:#ff0000;fill-opacity:1;stroke:none;stroke-width:0.17471696;stroke-linecap:round;stroke-linejoin:round;stroke-miterlimit:4;stroke-dasharray:none;stroke-opacity:1;paint-order:normal"
     id="path10642"
     cx="156.45984"
     cy="72.502144"
     r="3.3344805" />
  <path
     style="font-style:normal;font-weight:normal;font-size:42.56049347px;line-height:1.25;font-family:sans-serif;letter-spacing:0px;word-spacing:0px;fill:#00ffff;fill-opacity:1;stroke:none;stroke-width:0.14596382"
     d="m 27.81867,1.1498884 c -0.10108,0.076 0.1958,1.816962 0.37419,2.841222 0.33409,1.32178 0.28865,3.10644 3.26477,3.74239 7.8374,2.00171 10.14269,3.7130996 15.50699,6.1084596 0.47307,0.2185 0.92579,0.61146 1.35423,1.07826 -0.52573,0.15092 -0.99974,0.29985 -1.51143,0.45006 -0.90777,-0.15309 -1.81972,-0.28417 -2.73746,-0.372 C 22.24339,12.996291 2.9760404,29.62488 1.0349304,52.13948 -0.82010959,73.80422 14.07481,93.18217 34.9474,96.25753 36.43638,95.94326 37.29427,95.51118 35.30282,95.39645 16.74792,92.84036 4.0444404,71.8006 5.6736304,52.56411 6.6560304,48.2069 8.7567801,44.24613 11.49969,40.69359 10.23233,43.75993 9.3976101,47.07843 9.0958901,50.57839 7.6216004,67.7998 19.46146,83.20331 36.0531,85.64833 c 0,0 2.41707,-0.44474 0.11155,-0.62931 C 21.41408,82.98725 11.48548,66.20866 12.7815,50.91639 c 0.59809,-6.87082 3.57477,-13.28973 8.38459,-18.08274 -2.9567,4.05562 -4.75728,8.88205 -5.19899,13.93599 -1.23587,14.42904 8.68466,27.33517 22.58613,29.38374 0.14657,-0.0465 0.22034,-0.21369 0.3305,-0.32053 C 26.52537,74.13108 17.97137,59.86454 19.05616,47.05231 c 0.85119,-9.8689 7.36931,-17.80672 15.94733,-20.72153 3.7965,-0.50156 6.82823,-0.61456 8.12789,1.88881 3.00985,4.31178 -12.07436,6.62095 -7.2724,21.7617 -1.8692,-17.00772 6.40527,-12.4003 13.59835,-19.57035 l 11.58078,-1.84183 c 1.87255,0.77452 7.14346,2.64112 11.20299,3.54544 0.0182,0.51381 -0.0503,1.48232 -0.25345,3.47222 l 2.52805,-3.0507 c 0.29269,0.037 0.57177,0.0655 0.82868,0.0833 0.20376,0.35296 0.4944,0.67398 0.64427,0.71349 0.52601,0.13858 0.18015,3.10833 -0.54867,4.70929 l -0.34597,0.76197 0.80045,-0.38913 c 1.4515,-0.70828 2.82936,-2.45982 3.20457,-4.07143 l 0.16278,-0.70517 c 0.489,-2.43623 -0.0119,2.5549 1.24506,-3.62568 -0.13586,-0.2358 -0.0676,-0.65911 0.20254,-1.285 -3.58243,-1.87304 -6.84248,-2.44036 -9.70814,-4.51213 -0.44688,-0.61822 -0.54346,-0.89638 -0.50941,-1.45018 0.0388,-0.63262 -0.0147,-0.7467 -0.68736,-1.5138 -0.40055,-0.45669 -1.21694,-1.16591 -1.81332,-1.57501 -0.28827,-0.19797 -0.67089,-0.42638 -1.0915,-0.66782 l -0.1283,-0.16689 c -2.1897,-2.82364 -7.92709,-7.71263 -11.87213,-10.1166796 -4.09372,-2.49462 -9.51153,-4.68228 -14.21665,-5.73781 -4.35201,-0.97633 -6.04535,-1.02033 -2.60062,-0.0677 5.36182,1.48257 10.66016,4.14371 15.61696,7.8478796 1.57663,1.17821 3.78363,3.18966 4.57249,4.05946 L 52.75271,12.07895 C 45.74579,9.3613404 43.79551,9.0343304 35.22892,6.7553804 32.4789,5.8472204 30.00506,5.2199404 28.64329,2.6111504 28.21466,1.7898484 27.84278,1.1317184 27.8191,1.1478784 Z M 58.79184,20.96376 c 0.26851,0.0233 0.60205,0.0611 0.99096,0.11985 0.50373,0.0772 0.9581,0.17327 1.37154,0.28614 1.24036,0.33969 2.11079,0.85557 2.82372,1.64668 0.42566,0.47226 1.01006,0.98023 1.29645,1.12814 0.73049,0.37695 0.72457,0.4525 -0.037,0.5091 -0.36631,0.0281 -0.7593,0.11066 -0.87206,0.18544 -0.74168,0.49423 -3.03456,-0.70761 -3.76618,-1.97491 -0.36153,-0.62625 -1.3431,-1.37558 -2.16569,-1.65468 -0.44413,-0.1507 -0.49581,-0.24338 -0.242,-0.26662 l -2.8e-4,0.003 c 0.12689,-0.0114 0.33093,-0.005 0.59971,0.0181 z m 0.66257,9.24885 -8.4148,1.14404 c 1.11783,0.75992 5.25947,3.74967 6.31017,4.41333 0.85681,0.56049 2.30772,1.71855 3.22301,2.57164 l 1.66279,1.54808 0.59928,1.97355 c 0.32924,1.08581 0.69546,2.14252 0.81419,2.34805 0.11862,0.20569 0.6762,0.60402 1.23851,0.88366 0.56229,0.27963 1.07749,0.607 1.14746,0.72812 0.14544,0.25194 -0.1445,1.27345 -0.48683,1.71623 -0.38229,0.49437 0.0775,0.5201 0.78108,0.0427 0.52516,-0.35609 0.67194,-0.38384 0.71775,-0.13916 0.0677,0.36295 0.37222,0.1909 0.65068,-0.36606 0.10629,-0.21267 0.2513,-0.62179 0.32294,-0.90864 0.10937,-0.43571 0.22514,-0.5423 0.69333,-0.6539 0.43167,-0.10278 0.64949,-0.27085 0.94458,-0.73072 0.54474,-0.84912 0.97604,-2.66989 0.65277,-2.75489 -0.17582,-0.0462 -0.22412,-0.23336 -0.16198,-0.60357 0.0497,-0.29493 0.0106,-0.79226 -0.0858,-1.10382 l -0.17545,-0.56537 -0.29119,0.92468 c -0.43534,1.37532 -0.78187,1.68977 -1.51407,1.36705 L 67.4817,41.7796 c 0,0 -0.2159,1.60701 -3.11335,-2.30665 -1.67526,-2.22719 -2.0178,-2.84257 -2.61309,-4.68131 -0.15479,-0.47814 -2.09169,-3.78456 -2.30085,-4.57907 z"
     id="path10251-4-7-5"
     inkscape:connector-curvature="0"
     sodipodi:nodetypes="cccccccccccccccccccccccccccccccccccccccccccccccccccccccccccccccccccccccccccccccccccccccccccccc" />
</svg>
