<?xml version="1.0" encoding="UTF-8" standalone="no"?>
<!-- Created with Inkscape (http://www.inkscape.org/) -->

<svg
   xmlns:dc="http://purl.org/dc/elements/1.1/"
   xmlns:cc="http://creativecommons.org/ns#"
   xmlns:rdf="http://www.w3.org/1999/02/22-rdf-syntax-ns#"
   xmlns:svg="http://www.w3.org/2000/svg"
   xmlns="http://www.w3.org/2000/svg"
   xmlns:sodipodi="http://sodipodi.sourceforge.net/DTD/sodipodi-0.dtd"
   xmlns:inkscape="http://www.inkscape.org/namespaces/inkscape"
   version="1.1"
   id="svg815"
   width="160"
   height="97"
   viewBox="0 0 160 97"
   sodipodi:docname="Ryu-github-1.svg"
   inkscape:version="0.92.2 (5c3e80d, 2017-08-06)">
  <metadata
     id="metadata821">
    <rdf:RDF>
      <cc:Work
         rdf:about="">
        <dc:format>image/svg+xml</dc:format>
        <dc:type
           rdf:resource="http://purl.org/dc/dcmitype/StillImage" />
        <dc:title></dc:title>
      </cc:Work>
    </rdf:RDF>
  </metadata>
  <defs
     id="defs819" />
  <sodipodi:namedview
     pagecolor="#ffffff"
     bordercolor="#666666"
     borderopacity="1"
     objecttolerance="10"
     gridtolerance="10"
     guidetolerance="10"
     inkscape:pageopacity="0"
     inkscape:pageshadow="2"
     inkscape:window-width="1280"
     inkscape:window-height="971"
     id="namedview817"
     showgrid="false"
     inkscape:zoom="3.1843918"
     inkscape:cx="137.91226"
     inkscape:cy="41.795558"
     inkscape:window-x="-8"
     inkscape:window-y="-8"
     inkscape:window-maximized="1"
     inkscape:current-layer="svg815" />
  <path
     sodipodi:type="star"
     style="fill:#000000;fill-opacity:0;stroke:none;stroke-width:1;stroke-linecap:round;stroke-linejoin:round;stroke-miterlimit:4;stroke-dasharray:none;stroke-opacity:1;paint-order:normal"
     id="path2679"
     sodipodi:sides="5"
     sodipodi:cx="-377.49832"
     sodipodi:cy="-511.73346"
     sodipodi:r1="323.93066"
     sodipodi:r2="161.96533"
     sodipodi:arg1="0.67877047"
     sodipodi:arg2="1.307089"
     inkscape:flatsided="false"
     inkscape:rounded="0"
     inkscape:randomized="0"
     d="m -125.36843,-308.35797 -209.91177,-47.00926 -157.72729,146.27003 -20.15784,-214.16461 -187.85148,-104.80765 197.45354,-85.35175 41.6287,-211.04471 142.19083,161.41433 213.57943,-25.62516 -109.57477,185.11129 z"
     inkscape:transform-center-x="26.092236"
     inkscape:transform-center-y="-5.0481008" />
  <g
     aria-label="Canvate  JS"
     transform="matrix(0.93316925,0,-0.30982868,0.93316925,7.2539396,11.344586)"
     style="font-style:normal;font-weight:normal;font-size:42.39542389px;line-height:1.25;font-family:sans-serif;letter-spacing:0px;word-spacing:0px;fill:#000000;fill-opacity:1;stroke:none;stroke-width:1.0598855"
     id="text10565-2">
    <path
       id="path2859"
       style="font-style:normal;font-variant:normal;font-weight:normal;font-stretch:normal;font-family:Khand;-inkscape-font-specification:Khand;stroke-width:1.0598855"
       d="m 58.43114,46.113614 q 0,-6.02015 7.631176,-6.02015 2.458934,0 4.917869,0.678327 v 2.798098 q -2.50133,-0.720722 -5.00266,-0.720722 -2.50133,0 -3.51882,0.890303 -1.01749,0.847909 -1.01749,2.543726 v 16.576611 q 0,1.653421 1.01749,2.543725 1.059885,0.847909 3.646006,0.847909 2.628517,0 4.960265,-0.678327 v 2.755702 q -2.119771,0.678327 -5.00266,0.678327 -7.631176,0 -7.631176,-6.02015 z m 22.322516,-1.653421 q 7.207222,0 7.207222,6.147336 v 18.187637 h -2.882889 v -1.738212 q -2.162167,1.907794 -5.172242,1.907794 -5.892964,0 -5.892964,-5.808173 v -1.356654 q 0,-4.409124 5.129847,-5.850568 l 5.935359,-1.653422 v -3.688402 q -0.04239,-1.738212 -0.975095,-2.543725 -0.932699,-0.805513 -3.773192,-0.805513 -2.798098,0 -5.172242,0.847908 v -2.840493 q 2.416539,-0.805513 5.596196,-0.805513 z m -3.815588,17.466914 v 1.271863 q 0,1.695817 0.805513,2.50133 0.805513,0.805513 3.05247,0.805513 2.246958,0 4.239543,-1.653421 v -7.927945 l -4.833079,1.356654 q -1.907794,0.55114 -2.586121,1.356653 -0.678326,0.805514 -0.678326,2.289353 z M 96.515479,45.774451 q 2.840493,-1.187072 5.172241,-1.187072 2.37414,0 3.90038,1.48384 1.52623,1.441444 1.52623,4.112356 v 18.611591 h -3.01007 V 50.480343 q 0,-3.094866 -3.13726,-3.094866 -1.992586,0 -4.324335,1.102281 V 68.795166 H 93.63259 V 44.67217 h 2.882889 z M 122.42637,44.67217 h 3.05247 l -5.34182,24.122996 h -4.23954 L 110.55565,44.67217 h 3.09487 l 2.33175,11.065205 2.07737,10.93802 q 1.27187,-7.037641 4.36673,-22.003225 z m 11.90119,-0.211977 q 7.20722,0 7.20722,6.147336 v 18.187637 h -2.88289 v -1.738212 q -2.16216,1.907794 -5.17224,1.907794 -5.89296,0 -5.89296,-5.808173 v -1.356654 q 0,-4.409124 5.12984,-5.850568 l 5.93536,-1.653422 v -3.688402 q -0.0424,-1.738212 -0.97509,-2.543725 -0.9327,-0.805513 -3.77319,-0.805513 -2.7981,0 -5.17225,0.847908 v -2.840493 q 2.41654,-0.805513 5.5962,-0.805513 z m -3.81559,17.466914 v 1.271863 q 0,1.695817 0.80551,2.50133 0.80552,0.805513 3.05248,0.805513 2.24695,0 4.23954,-1.653421 v -7.927945 l -4.83308,1.356654 q -1.90779,0.55114 -2.58612,1.356653 -0.67833,0.805514 -0.67833,2.289353 z m 19.66221,-21.621666 v 4.366729 h 5.38421 v 2.670912 h -5.38421 v 16.110261 q 0,1.483839 0.72072,2.162166 0.72072,0.635932 2.20456,0.635932 1.48384,0 2.88289,-0.46635 v 2.755702 q -1.69582,0.423955 -3.17966,0.423955 -5.68098,0 -5.68098,-5.384219 V 47.343082 h -2.62852 V 44.67217 h 2.7557 l 0.84791,-4.366729 z m 11.91377,15.431934 h 7.88555 v -4.875473 q 0,-3.98517 -3.94277,-3.98517 -3.94278,0 -3.94278,3.98517 z m -2.96768,6.910455 V 50.861902 q 0,-3.010075 1.69582,-4.790683 1.73821,-1.823003 5.21464,-1.823003 3.47642,0 5.12984,1.823003 1.69582,1.780608 1.69582,4.790683 v 7.376803 h -10.76844 v 4.281938 q 0,1.907794 1.18707,2.840494 1.18708,0.932699 3.68841,0.932699 2.50133,0 5.17224,-0.763118 v 2.798098 q -2.11977,0.678327 -5.04506,0.678327 -7.97034,0 -7.97034,-6.359313 z"
       inkscape:connector-curvature="0" />
  </g>
  <circle
     style="fill:#ff0000;fill-opacity:1;stroke:none;stroke-width:0.17471696;stroke-linecap:round;stroke-linejoin:round;stroke-miterlimit:4;stroke-dasharray:none;stroke-opacity:1;paint-order:normal"
     id="path10642"
     cx="154.53906"
     cy="72.722206"
     r="3.3344805" />
  <path
     style="font-style:normal;font-weight:normal;font-size:42.56049347px;line-height:1.25;font-family:sans-serif;letter-spacing:0px;word-spacing:0px;fill:#00ffff;fill-opacity:1;stroke:none;stroke-width:0.14596382"
     d="m 28.17869,1.0848564 c -0.10109,0.076 0.1958,1.81696 0.37419,2.84122 0.33408,1.32178 0.28865,3.10644 3.26477,3.74239 7.8374,2.00171 10.14269,3.7130996 15.50699,6.1084596 0.47307,0.2185 0.92578,0.61146 1.35423,1.07826 -0.52573,0.15092 -0.99974,0.29985 -1.51143,0.45006 -0.90777,-0.15309 -1.81973,-0.28417 -2.73747,-0.372 -21.82656,-2.00199 -41.0939204,14.6266 -43.0350304,37.1412 -1.85502998,21.66474 13.0398804,41.04269 33.9124704,44.11805 1.48899,-0.31427 2.34688,-0.74635 0.35542,-0.86108 -18.5549,-2.55609 -31.2583704,-23.59585 -29.6291804,-42.83234 0.9824,-4.35721 3.08315,-8.31798 5.8260604,-11.87052 -1.26736,3.06634 -2.1020902,6.38484 -2.4038102,9.8848 -1.4742802,17.22141 10.3655802,32.62492 26.9572202,35.06994 0,0 2.41707,-0.44474 0.11155,-0.62931 -14.75057,-2.03177 -24.67918,-18.81036 -23.38315,-34.10263 0.59808,-6.87082 3.57476,-13.28973 8.38459,-18.08274 -2.9567,4.05562 -4.75728,8.88205 -5.199,13.93599 -1.23586,14.42904 8.68467,27.33517 22.58614,29.38374 0.14657,-0.0465 0.22033,-0.21369 0.3305,-0.32053 -12.35836,-1.70177 -20.91237,-15.96831 -19.82757,-28.78054 0.85118,-9.8689 7.3693,-17.80672 15.94733,-20.72153 3.7965,-0.50156 6.82822,-0.61456 8.12789,1.88881 3.00984,4.31178 -12.07436,6.62095 -7.27241,21.7617 -1.8692,-17.00772 6.40527,-12.4003 13.59835,-19.57035 l 11.58079,-1.84183 c 1.87254,0.77452 7.14345,2.64112 11.20299,3.54544 0.0182,0.51381 -0.0503,1.48232 -0.25345,3.47222 l 2.52805,-3.0507 c 0.29268,0.037 0.57177,0.0655 0.82868,0.0833 0.20375,0.35296 0.49439,0.67398 0.64426,0.71349 0.52602,0.13858 0.18016,3.10833 -0.54867,4.70929 l -0.34597,0.76197 0.80046,-0.38913 c 1.4515,-0.70828 2.82936,-2.45982 3.20457,-4.07143 l 0.16278,-0.70517 c 0.489,-2.43623 -0.0119,2.5549 1.24506,-3.62568 -0.13586,-0.2358 -0.0676,-0.65911 0.20254,-1.285 -3.58243,-1.87304 -6.84248,-2.44036 -9.70814,-4.51213 -0.44689,-0.61822 -0.54346,-0.89638 -0.50941,-1.45018 0.0388,-0.63262 -0.0147,-0.7467 -0.68737,-1.5138 -0.40054,-0.45669 -1.21693,-1.16591 -1.81331,-1.57501 -0.28827,-0.19797 -0.67089,-0.42638 -1.0915,-0.66782 l -0.1283,-0.16689 c -2.1897,-2.82364 -7.9271,-7.71263 -11.87214,-10.1166796 -4.09371,-2.49462 -9.51152,-4.68228 -14.21664,-5.73781 -4.35201,-0.97633 -6.04535,-1.02033 -2.60062,-0.0677 5.36182,1.48257 10.66016,4.14371 15.61696,7.8478796 1.57662,1.17821 3.78362,3.18966 4.57249,4.05946 l -5.51873,-2.74808 C 46.10581,9.2963064 44.15553,8.9692964 35.58894,6.6903464 c -2.75002,-0.90816 -5.22386,-1.53544 -6.58564,-4.14423 -0.42862,-0.8213 -0.8005,-1.47943 -0.82419,-1.46327 z M 59.15186,20.898726 c 0.26851,0.0233 0.60205,0.0611 0.99095,0.11985 0.50374,0.0772 0.9581,0.17327 1.37154,0.28614 1.24037,0.33969 2.1108,0.85557 2.82373,1.64668 0.42566,0.47226 1.01006,0.98023 1.29644,1.12814 0.73049,0.37695 0.72458,0.4525 -0.037,0.5091 -0.3663,0.0281 -0.75929,0.11066 -0.87205,0.18544 -0.74168,0.49423 -3.03456,-0.70761 -3.76618,-1.97491 -0.36153,-0.62625 -1.3431,-1.37558 -2.1657,-1.65468 -0.44413,-0.1507 -0.49581,-0.24338 -0.24199,-0.26662 l -2.9e-4,0.003 c 0.1269,-0.0114 0.33094,-0.005 0.59971,0.0181 z m 0.66257,9.24885 -8.4148,1.14404 c 1.11783,0.75992 5.25947,3.74967 6.31017,4.41333 0.85681,0.56049 2.30771,1.71855 3.22301,2.57164 l 1.66279,1.54808 0.59928,1.97355 c 0.32924,1.08581 0.69545,2.14252 0.81419,2.34805 0.11862,0.20569 0.67619,0.60402 1.23851,0.88366 0.56228,0.27963 1.07749,0.607 1.14746,0.72812 0.14543,0.25194 -0.14451,1.27345 -0.48684,1.71623 -0.38228,0.49437 0.0775,0.5201 0.78109,0.0427 0.52515,-0.35609 0.67194,-0.38384 0.71774,-0.13916 0.0677,0.36295 0.37223,0.1909 0.65068,-0.36606 0.1063,-0.21267 0.25131,-0.62179 0.32295,-0.90864 0.10937,-0.43571 0.22514,-0.5423 0.69332,-0.6539 0.43167,-0.10278 0.6495,-0.27085 0.94459,-0.73072 0.54473,-0.84912 0.97604,-2.66989 0.65276,-2.75489 -0.17582,-0.0462 -0.22411,-0.23336 -0.16197,-0.60357 0.0497,-0.29493 0.0106,-0.79226 -0.0858,-1.10382 l -0.17545,-0.56537 -0.2912,0.92468 c -0.43534,1.37532 -0.78186,1.68977 -1.51407,1.36705 l -0.60112,-0.26801 c 0,0 -0.21591,1.60701 -3.11335,-2.30665 -1.67526,-2.22719 -2.0178,-2.84257 -2.61309,-4.68131 -0.15479,-0.47814 -2.09169,-3.78456 -2.30086,-4.57907 z"
     id="path10251-4-7-5"
     inkscape:connector-curvature="0"
     sodipodi:nodetypes="cccccccccccccccccccccccccccccccccccccccccccccccccccccccccccccccccccccccccccccccccccccccccccccc" />
</svg>
