<?xml version="1.0" encoding="UTF-8" standalone="no"?>
<!-- Created with Inkscape (http://www.inkscape.org/) -->

<svg
   xmlns:dc="http://purl.org/dc/elements/1.1/"
   xmlns:cc="http://creativecommons.org/ns#"
   xmlns:rdf="http://www.w3.org/1999/02/22-rdf-syntax-ns#"
   xmlns:svg="http://www.w3.org/2000/svg"
   xmlns="http://www.w3.org/2000/svg"
   xmlns:sodipodi="http://sodipodi.sourceforge.net/DTD/sodipodi-0.dtd"
   xmlns:inkscape="http://www.inkscape.org/namespaces/inkscape"
   version="1.1"
   id="svg815"
   width="255"
   height="97"
   viewBox="0 0 255 97"
   sodipodi:docname="canvate--aoi-1.svg"
   inkscape:version="0.92.2 (5c3e80d, 2017-08-06)">
  <metadata
     id="metadata821">
    <rdf:RDF>
      <cc:Work
         rdf:about="">
        <dc:format>image/svg+xml</dc:format>
        <dc:type
           rdf:resource="http://purl.org/dc/dcmitype/StillImage" />
        <dc:title></dc:title>
      </cc:Work>
    </rdf:RDF>
  </metadata>
  <defs
     id="defs819" />
  <sodipodi:namedview
     pagecolor="#ffffff"
     bordercolor="#666666"
     borderopacity="1"
     objecttolerance="10"
     gridtolerance="10"
     guidetolerance="10"
     inkscape:pageopacity="0"
     inkscape:pageshadow="2"
     inkscape:window-width="1280"
     inkscape:window-height="971"
     id="namedview817"
     showgrid="false"
     inkscape:zoom="2.6010623"
     inkscape:cx="99.961404"
     inkscape:cy="9.7075139"
     inkscape:window-x="-8"
     inkscape:window-y="-8"
     inkscape:window-maximized="1"
     inkscape:current-layer="svg815"
     showguides="true"
     inkscape:guide-bbox="true" />
  <g
     id="g9361"
     transform="matrix(1.5400951,0,0,1.5400951,-58.265085,-25.018304)">
    <g
       id="text10565-2"
       style="font-style:normal;font-weight:normal;font-size:42.39542389px;line-height:1.25;font-family:sans-serif;letter-spacing:0px;word-spacing:0px;fill:#20232a;fill-opacity:1;stroke:none;stroke-width:1.0598855"
       transform="matrix(0.93316925,0,-0.30982868,0.93316925,51.377229,4.6199883)"
       aria-label="Canvate  JS">
      <path
         inkscape:connector-curvature="0"
         d="m 58.43114,46.113614 q 0,-6.02015 7.631176,-6.02015 2.458934,0 4.917869,0.678327 v 2.798098 q -2.50133,-0.720722 -5.00266,-0.720722 -2.50133,0 -3.51882,0.890303 -1.01749,0.847909 -1.01749,2.543726 v 16.576611 q 0,1.653421 1.01749,2.543725 1.059885,0.847909 3.646006,0.847909 2.628517,0 4.960265,-0.678327 v 2.755702 q -2.119771,0.678327 -5.00266,0.678327 -7.631176,0 -7.631176,-6.02015 z m 22.322516,-1.653421 q 7.207222,0 7.207222,6.147336 v 18.187637 h -2.882889 v -1.738212 q -2.162167,1.907794 -5.172242,1.907794 -5.892964,0 -5.892964,-5.808173 v -1.356654 q 0,-4.409124 5.129847,-5.850568 l 5.935359,-1.653422 v -3.688402 q -0.04239,-1.738212 -0.975095,-2.543725 -0.932699,-0.805513 -3.773192,-0.805513 -2.798098,0 -5.172242,0.847908 v -2.840493 q 2.416539,-0.805513 5.596196,-0.805513 z m -3.815588,17.466914 v 1.271863 q 0,1.695817 0.805513,2.50133 0.805513,0.805513 3.05247,0.805513 2.246958,0 4.239543,-1.653421 v -7.927945 l -4.833079,1.356654 q -1.907794,0.55114 -2.586121,1.356653 -0.678326,0.805514 -0.678326,2.289353 z M 96.515479,45.774451 q 2.840493,-1.187072 5.172241,-1.187072 2.37414,0 3.90038,1.48384 1.52623,1.441444 1.52623,4.112356 v 18.611591 h -3.01007 V 50.480343 q 0,-3.094866 -3.13726,-3.094866 -1.992586,0 -4.324335,1.102281 V 68.795166 H 93.63259 V 44.67217 h 2.882889 z M 122.42637,44.67217 h 3.05247 l -5.34182,24.122996 h -4.23954 L 110.55565,44.67217 h 3.09487 l 2.33175,11.065205 2.07737,10.93802 q 1.27187,-7.037641 4.36673,-22.003225 z m 11.90119,-0.211977 q 7.20722,0 7.20722,6.147336 v 18.187637 h -2.88289 v -1.738212 q -2.16216,1.907794 -5.17224,1.907794 -5.89296,0 -5.89296,-5.808173 v -1.356654 q 0,-4.409124 5.12984,-5.850568 l 5.93536,-1.653422 v -3.688402 q -0.0424,-1.738212 -0.97509,-2.543725 -0.9327,-0.805513 -3.77319,-0.805513 -2.7981,0 -5.17225,0.847908 v -2.840493 q 2.41654,-0.805513 5.5962,-0.805513 z m -3.81559,17.466914 v 1.271863 q 0,1.695817 0.80551,2.50133 0.80552,0.805513 3.05248,0.805513 2.24695,0 4.23954,-1.653421 v -7.927945 l -4.83308,1.356654 q -1.90779,0.55114 -2.58612,1.356653 -0.67833,0.805514 -0.67833,2.289353 z m 19.66221,-21.621666 v 4.366729 h 5.38421 v 2.670912 h -5.38421 v 16.110261 q 0,1.483839 0.72072,2.162166 0.72072,0.635932 2.20456,0.635932 1.48384,0 2.88289,-0.46635 v 2.755702 q -1.69582,0.423955 -3.17966,0.423955 -5.68098,0 -5.68098,-5.384219 V 47.343082 h -2.62852 V 44.67217 h 2.7557 l 0.84791,-4.366729 z m 11.91377,15.431934 h 7.88555 v -4.875473 q 0,-3.98517 -3.94277,-3.98517 -3.94278,0 -3.94278,3.98517 z m -2.96768,6.910455 V 50.861902 q 0,-3.010075 1.69582,-4.790683 1.73821,-1.823003 5.21464,-1.823003 3.47642,0 5.12984,1.823003 1.69582,1.780608 1.69582,4.790683 v 7.376803 h -10.76844 v 4.281938 q 0,1.907794 1.18707,2.840494 1.18708,0.932699 3.68841,0.932699 2.50133,0 5.17224,-0.763118 v 2.798098 q -2.11977,0.678327 -5.04506,0.678327 -7.97034,0 -7.97034,-6.359313 z"
         style="font-style:normal;font-variant:normal;font-weight:normal;font-stretch:normal;font-family:Khand;-inkscape-font-specification:Khand;fill:#20232a;fill-opacity:1;stroke-width:1.0598855"
         id="path2859" />
    </g>
    <circle
       r="3.3344805"
       cy="65.997604"
       cx="198.66234"
       id="path10642"
       style="fill:#ff0000;fill-opacity:1;stroke:none;stroke-width:0.17471696;stroke-linecap:round;stroke-linejoin:round;stroke-miterlimit:4;stroke-dasharray:none;stroke-opacity:1;paint-order:normal" />
  </g>
  <path
     style="font-style:normal;font-weight:normal;font-size:42.56049347px;line-height:1.25;font-family:sans-serif;letter-spacing:0px;word-spacing:0px;fill:#00ffff;fill-opacity:1;stroke:none;stroke-width:0.14596382"
     d="m 29.563524,0.40815317 c -0.101083,0.076 0.195803,1.81695733 0.374189,2.84122003 0.334086,1.32178 0.288652,3.1064398 3.264769,3.74239 7.837406,2.00171 10.142691,3.7130998 15.506992,6.1084598 0.47307,0.2185 0.925785,0.61146 1.35423,1.07826 -0.525729,0.15092 -0.999736,0.29985 -1.51143,0.45006 -0.907771,-0.15309 -1.819724,-0.28417 -2.737465,-0.372 -21.826563,-2.00199 -41.0939186,14.626603 -43.0350276,37.1412 -1.855039,21.66474 13.0398776,41.042695 33.9124696,44.118056 1.488983,-0.31427 2.346874,-0.74635 0.355419,-0.861084 C 18.49277,92.098622 5.7892984,71.058864 7.4184854,51.822376 c 0.982402,-4.357208 3.0831476,-8.317984 5.8260596,-11.870525 -1.267361,3.066342 -2.102086,6.384845 -2.403804,9.884807 -1.4742846,17.221406 10.365575,32.62492 26.957213,35.069938 0,0 2.417069,-0.444737 0.111549,-0.629311 C 23.158933,82.24552 13.23033,65.466926 14.526356,50.174657 c 0.598084,-6.870821 3.574765,-13.28973 8.384587,-18.082739 -2.956699,4.055613 -4.75728,8.882051 -5.198993,13.935984 -1.235866,14.429042 8.684665,27.33517 22.586135,29.383746 0.146572,-0.04653 0.220335,-0.213691 0.330503,-0.320537 C 28.270225,73.389343 19.71622,59.122804 20.801014,46.310571 21.6522,36.441674 28.170319,28.503852 36.748347,25.589044 c 3.796498,-0.501559 6.828222,-0.61456 8.127888,1.888816 3.009846,4.311775 -12.074362,6.620948 -7.272404,21.761694 C 35.73463,32.231839 44.009099,36.83926 51.202179,29.669204 l 11.580788,-1.841827 c 1.872542,0.77452 7.143453,2.641117 11.202991,3.545438 0.0182,0.513806 -0.05033,1.482318 -0.253453,3.472217 l 2.528052,-3.050697 c 0.292684,0.03705 0.57177,0.06553 0.828681,0.08331 0.203752,0.352957 0.494393,0.673977 0.644263,0.713493 0.526016,0.138577 0.180152,3.108325 -0.54867,4.709287 L 76.83886,38.0624 77.639312,37.673261 c 1.451504,-0.708274 2.829366,-2.459816 3.204576,-4.071427 l 0.162776,-0.705173 c 0.488999,-2.436221 -0.01192,2.554908 1.24506,-3.625677 -0.135856,-0.235795 -0.06757,-0.659104 0.202539,-1.285001 -3.582425,-1.873034 -6.84248,-2.440361 -9.70814,-4.512129 -0.446884,-0.618223 -0.543455,-0.896381 -0.509406,-1.450181 0.03884,-0.63262 -0.01468,-0.7467 -0.687367,-1.5138 -0.400545,-0.45669 -1.216937,-1.16591 -1.813318,-1.57501 -0.288268,-0.19797 -0.670885,-0.42638 -1.091498,-0.66782 l -0.128301,-0.16689 c -2.189699,-2.82364 -7.927094,-7.71263 -11.872132,-10.1166798 -4.093715,-2.49462 -9.511527,-4.68228 -14.216648,-5.73781 -4.35201,-0.97633 -6.045347,-1.02033 -2.600618,-0.0677 5.361822,1.48257 10.660163,4.14371 15.61696,7.8478798 1.576624,1.17821 3.783624,3.18966 4.572489,4.05946 l -5.518725,-2.74808 C 47.490643,8.6196132 45.540363,8.2926032 36.973773,6.0136532 34.223757,5.1054978 31.749914,4.4782132 30.388141,1.8694232 29.959516,1.0481232 29.587635,0.38999317 29.56395,0.40615317 Z M 60.536693,20.222023 c 0.268509,0.0233 0.602052,0.0611 0.990957,0.11985 0.503736,0.0772 0.9581,0.17327 1.371541,0.28614 1.240367,0.33969 2.110791,0.85557 2.823726,1.64668 0.425657,0.472265 1.010057,0.980228 1.296442,1.128141 0.730492,0.376954 0.724576,0.452504 -0.03703,0.509106 -0.366304,0.02805 -0.759295,0.110651 -0.872051,0.185439 -0.741686,0.494222 -3.034564,-0.707618 -3.766184,-1.974916 -0.361527,-0.62625 -1.3431,-1.37558 -2.165695,-1.65468 -0.444128,-0.1507 -0.495808,-0.24338 -0.241993,-0.26662 l -2.87e-4,0.003 c 0.126896,-0.0114 0.330936,-0.005 0.599711,0.0181 z m 0.662575,9.248849 -8.414805,1.144043 c 1.117833,0.759922 5.259472,3.749666 6.310175,4.413333 0.856804,0.560488 2.307711,1.718547 3.223005,2.571633 l 1.662789,1.548086 0.599286,1.973544 c 0.329234,1.085812 0.695453,2.142523 0.814189,2.348054 0.118618,0.20569 0.676194,0.604017 1.238505,0.883657 0.562289,0.279631 1.077495,0.607002 1.147466,0.728123 0.145432,0.251938 -0.144507,1.273453 -0.486839,1.716229 -0.382286,0.49437 0.07746,0.520104 0.781087,0.04266 0.525155,-0.356091 0.671938,-0.383836 0.717745,-0.139159 0.06767,0.36295 0.372221,0.190901 0.650679,-0.366062 0.106297,-0.212666 0.251304,-0.62179 0.322945,-0.90864 0.109372,-0.435705 0.225139,-0.542302 0.693325,-0.653896 0.431669,-0.102786 0.649498,-0.270854 0.944587,-0.730726 0.544733,-0.849117 0.976039,-2.669889 0.652764,-2.754881 -0.175821,-0.04615 -0.224118,-0.233361 -0.161978,-0.603572 0.04969,-0.294937 0.01064,-0.792261 -0.08576,-1.103818 l -0.17545,-0.565379 -0.291194,0.924687 c -0.43534,1.375318 -0.781864,1.689765 -1.514069,1.367051 l -0.601127,-0.268018 c 0,0 -0.215903,1.607017 -3.113345,-2.306642 -1.67526,-2.227198 -2.017805,-2.842573 -2.61309,-4.681309 -0.154795,-0.478143 -2.091691,-3.784567 -2.300859,-4.579072 z"
     id="path10251-4-7-5"
     inkscape:connector-curvature="0"
     sodipodi:nodetypes="cccccccccccccccccccccccccccccccccccccccccccccccccccccccccccccccccccccccccccccccccccccccccccccc" />
</svg>
